<svg width="52" height="49" viewBox="0 0 52 49" fill="none" xmlns="http://www.w3.org/2000/svg">
<path d="M25.9999 6.31323C20.6946 6.31323 15.8655 8.26933 12.2803 11.4555C12.2299 11.4899 12.1816 11.5283 12.1371 11.5721C12.1127 11.5962 12.0899 11.6211 12.0686 11.6468C8.32055 15.076 5.98749 19.8712 5.98749 25.171C5.98749 35.5693 14.9649 44.0288 25.9998 44.0288C37.0346 44.0288 46.0122 35.5693 46.0122 25.171C46.0122 14.7728 37.0347 6.31323 25.9999 6.31323ZM25.9998 8.26523C27.4027 8.26523 28.9276 9.98677 30.0788 12.8703C31.2929 15.9112 31.9995 19.9018 32.0927 24.1947H21.7724C21.2003 24.1947 20.7365 24.6317 20.7365 25.1708C20.7365 25.7099 21.2004 26.1471 21.7725 26.1471H32.0928C32.0408 28.5441 31.7976 30.8466 31.3814 32.9423C29.6466 32.4871 27.8388 32.2505 25.9999 32.2505C24.1604 32.2505 22.3529 32.487 20.6183 32.9419C20.146 30.5632 19.896 27.9181 19.896 25.1709C19.896 22.4565 20.1403 19.842 20.6017 17.4854C22.3399 17.9424 24.1527 18.1799 25.9998 18.1799C26.9244 18.1799 27.8545 18.1198 28.7642 18.0013C29.3309 17.9275 29.7268 17.4348 29.6485 16.9007C29.5701 16.3666 29.0465 15.9932 28.4806 16.0675C27.6645 16.1738 26.8299 16.2276 25.9998 16.2276C24.3008 16.2276 22.6342 16.0037 21.0389 15.5729C21.2933 14.6097 21.5879 13.7041 21.9208 12.8703C23.0721 9.98667 24.597 8.26523 25.9998 8.26523ZM21.8857 8.71462C21.1795 9.62796 20.5382 10.7898 19.9819 12.1831C19.6424 13.0335 19.3403 13.9515 19.0773 14.924C17.4098 14.2669 15.8478 13.3697 14.4425 12.2519C16.5616 10.5659 19.099 9.33308 21.8857 8.71462ZM8.08986 26.1471H10.6872C11.2593 26.1471 11.723 25.7101 11.723 25.171C11.723 24.6319 11.2593 24.1949 10.6872 24.1949H8.08986C8.33795 20.109 10.1328 16.4074 12.9301 13.6028C14.6384 14.9936 16.5607 16.088 18.6206 16.8575C18.1002 19.4067 17.8244 22.2386 17.8244 25.1709C17.8244 28.1352 18.1064 30.9967 18.6379 33.5674C16.591 34.3301 14.6792 35.4137 12.9789 36.7884C10.1535 33.9781 8.3395 30.257 8.08986 26.1471ZM14.4982 38.1347C15.8948 37.0335 17.4456 36.1484 19.0995 35.4991C19.3574 36.4414 19.6518 37.3323 19.9819 38.159C20.5382 39.5522 21.1795 40.7142 21.8857 41.6275C19.1235 41.0144 16.6061 39.798 14.4982 38.1347ZM25.9999 42.0767C24.5972 42.0767 23.0722 40.3552 21.9209 37.4717C21.5976 36.6619 21.3104 35.7847 21.0611 34.8525C22.6508 34.4248 24.3104 34.2028 25.9999 34.2028C27.6889 34.2028 29.3487 34.4248 30.9388 34.8527C30.6895 35.7848 30.4022 36.6619 30.0789 37.4717C28.9277 40.3553 27.4028 42.0767 25.9999 42.0767ZM30.1141 41.6275C30.8204 40.7142 31.4617 39.5523 32.018 38.1591C32.3481 37.3324 32.6425 36.4415 32.9003 35.4992C34.5542 36.1485 36.1052 37.0336 37.5018 38.1345C35.3939 39.7979 32.8764 41.0144 30.1141 41.6275ZM39.0206 36.7889C37.3207 35.4145 35.4087 34.3311 33.3619 33.5684C33.8349 31.2808 34.1102 28.7629 34.1651 26.1472H43.91C43.6603 30.2571 41.8462 33.9784 39.0206 36.7889ZM34.1651 24.1949C34.0701 19.6691 33.3164 15.4347 32.018 12.183C31.4618 10.7898 30.8204 9.62786 30.1141 8.71462C32.8704 9.32634 35.3831 10.5388 37.4882 12.1967C36.6257 12.889 35.696 13.5043 34.7124 14.031C34.2151 14.2974 34.0411 14.8932 34.3237 15.3619C34.5146 15.6784 34.8648 15.8559 35.2252 15.8559C35.3987 15.8559 35.5744 15.8148 35.7361 15.7283C36.9002 15.1049 37.996 14.3693 39.0067 13.539C41.8403 16.3511 43.66 20.0781 43.91 24.1949H34.1651Z" fill="white"/>
<path d="M15.948 24.1949H13.7873C13.2152 24.1949 12.7514 24.6319 12.7514 25.171C12.7514 25.7101 13.2152 26.1471 13.7873 26.1471H15.948C16.5201 26.1471 16.9838 25.7101 16.9838 25.171C16.9838 24.6319 16.5201 24.1949 15.948 24.1949Z" fill="white"/>
<path d="M50.0481 18.8393C50.5918 18.6713 50.8878 18.1198 50.7095 17.6076C49.0158 12.7429 45.7968 8.5593 41.4003 5.509C36.9134 2.39614 31.588 0.750732 26 0.750732C19.0552 0.750732 12.526 3.29912 7.6152 7.9266C2.70441 12.5541 0 18.7066 0 25.2507C0 28.6137 0.710183 31.8722 2.11087 34.936C3.35586 37.6592 5.09331 40.1158 7.27907 42.2504C6.90699 42.8429 6.69257 43.5332 6.69257 44.2701C6.69257 46.4643 8.58694 48.2493 10.9153 48.2493C13.2437 48.2493 15.1381 46.4642 15.1381 44.2701C15.1381 42.0761 13.2437 40.291 10.9153 40.291C10.1189 40.291 9.37336 40.5001 8.73693 40.8627C4.43326 36.6447 2.07171 31.131 2.07171 25.2507C2.07171 12.8178 12.8059 2.70292 26 2.70292C36.3716 2.70292 45.5106 8.93725 48.741 18.2161C48.9194 18.7285 49.5047 19.0074 50.0481 18.8393ZM10.9153 42.2431C12.1015 42.2431 13.0664 43.1524 13.0664 44.2701C13.0664 45.3878 12.1015 46.297 10.9153 46.297C9.72918 46.297 8.76428 45.3878 8.76428 44.2701C8.76428 43.1523 9.72918 42.2431 10.9153 42.2431Z" fill="white"/>
<path d="M51.7249 21.6743C51.642 21.1409 51.1155 20.7715 50.55 20.8498C49.9839 20.9278 49.5922 21.4235 49.675 21.9569C49.843 23.0395 49.9283 24.1477 49.9283 25.2507C49.9283 25.7897 50.3922 26.2267 50.9642 26.2267C51.5362 26.2267 52 25.7897 52 25.2507C52 24.0535 51.9074 22.8502 51.7249 21.6743Z" fill="white"/>
</svg>
