<svg width="52" height="52" viewBox="0 0 52 52" fill="none" xmlns="http://www.w3.org/2000/svg">
<path d="M4.19351 28.5165H19.2903C19.7541 28.5165 20.129 28.1408 20.129 27.6778V15.9359C20.129 15.4729 19.7541 15.0972 19.2903 15.0972H4.19351C3.7297 15.0972 3.3548 15.4729 3.3548 15.9359V27.6778C3.3548 28.1408 3.7297 28.5165 4.19351 28.5165ZM5.03222 16.7746H18.4516V26.8391H5.03222V16.7746Z" fill="white"/>
<path d="M6.70972 5.03223H16.7742V6.70965H6.70972V5.03223Z" fill="white"/>
<path d="M6.70972 8.3877H16.7742V10.0651H6.70972V8.3877Z" fill="white"/>
<path d="M7.54835 30.1938H4.19351C3.7297 30.1938 3.3548 30.5696 3.3548 31.0326V34.3874C3.3548 34.8504 3.7297 35.2261 4.19351 35.2261H7.54835C8.01215 35.2261 8.38706 34.8504 8.38706 34.3874V31.0326C8.38706 30.5696 8.01215 30.1938 7.54835 30.1938ZM6.70964 33.5487H5.03222V31.8713H6.70964V33.5487Z" fill="white"/>
<path d="M13.4194 30.1938H10.0645C9.60073 30.1938 9.22583 30.5696 9.22583 31.0326V34.3874C9.22583 34.8504 9.60073 35.2261 10.0645 35.2261H13.4194C13.8832 35.2261 14.2581 34.8504 14.2581 34.3874V31.0326C14.2581 30.5696 13.8832 30.1938 13.4194 30.1938ZM12.5807 33.5487H10.9032V31.8713H12.5807V33.5487Z" fill="white"/>
<path d="M7.54835 36.9033H4.19351C3.7297 36.9033 3.3548 37.2791 3.3548 37.742V41.0969C3.3548 41.5598 3.7297 41.9356 4.19351 41.9356H7.54835C8.01215 41.9356 8.38706 41.5598 8.38706 41.0969V37.742C8.38706 37.2791 8.01215 36.9033 7.54835 36.9033ZM6.70964 40.2582H5.03222V38.5807H6.70964V40.2582Z" fill="white"/>
<path d="M13.4194 36.9033H10.0645C9.60073 36.9033 9.22583 37.2791 9.22583 37.742V41.0969C9.22583 41.5598 9.60073 41.9356 10.0645 41.9356H13.4194C13.8832 41.9356 14.2581 41.5598 14.2581 41.0969V37.742C14.2581 37.2791 13.8832 36.9033 13.4194 36.9033ZM12.5807 40.2582H10.9032V38.5807H12.5807V40.2582Z" fill="white"/>
<path d="M7.54835 43.6133H4.19351C3.7297 43.6133 3.3548 43.989 3.3548 44.452V47.8068C3.3548 48.2698 3.7297 48.6455 4.19351 48.6455H7.54835C8.01215 48.6455 8.38706 48.2698 8.38706 47.8068V44.452C8.38706 43.989 8.01215 43.6133 7.54835 43.6133ZM6.70964 46.9681H5.03222V45.2907H6.70964V46.9681Z" fill="white"/>
<path d="M13.4194 43.6133H10.0645C9.60073 43.6133 9.22583 43.989 9.22583 44.452V47.8068C9.22583 48.2698 9.60073 48.6455 10.0645 48.6455H13.4194C13.8832 48.6455 14.2581 48.2698 14.2581 47.8068V44.452C14.2581 43.989 13.8832 43.6133 13.4194 43.6133ZM12.5807 46.9681H10.9032V45.2907H12.5807V46.9681Z" fill="white"/>
<path d="M43.6129 31.8712H30.1935V14.2583C30.1935 13.7953 29.8186 13.4196 29.3548 13.4196H23.4839V9.22606C23.4839 8.76309 23.109 8.38735 22.6452 8.38735H20.129V0.838963C20.129 0.529479 19.9588 0.245157 19.6862 0.0992211C19.4144 -0.0467144 19.0823 -0.030779 18.8257 0.141157L16.7742 1.50825L14.7235 0.141157C14.4417 -0.0467145 14.0752 -0.0467145 13.7934 0.141157L11.7419 1.50825L9.69129 0.141157C9.40948 -0.0467145 9.04297 -0.0467145 8.76116 0.141157L6.70968 1.50825L4.65903 0.141157C4.40155 -0.030779 4.07026 -0.0467144 3.79852 0.0992211C3.5251 0.245157 3.35484 0.529479 3.35484 0.838963V8.38735H0.83871C0.374903 8.38735 0 8.76309 0 9.22606V51.1615C0 51.6245 0.374903 52.0003 0.83871 52.0003H18.4516H43.6129C45.0001 52.0003 46.129 50.8713 46.129 49.4841V34.3873C46.129 33.0001 45.0001 31.8712 43.6129 31.8712ZM44.4516 34.3873V35.2261H17.6129V34.3873C17.6129 33.9252 17.9886 33.5486 18.4516 33.5486H43.6129C44.0759 33.5486 44.4516 33.9252 44.4516 34.3873ZM17.6129 36.9035H44.4516V38.5809H17.6129V36.9035ZM28.5161 15.097V31.8712H26.8387V16.7744H25.1613V31.8712H23.4839V15.097H28.5161ZM21.8064 10.0648V11.7422H20.129V10.0648H21.8064ZM6.24419 3.21419C6.526 3.40206 6.89252 3.40206 7.17432 3.21419L9.22581 1.84709L11.2765 3.21419C11.5583 3.40206 11.9248 3.40206 12.2066 3.21419L14.2581 1.84709L16.3087 3.21419C16.5905 3.40206 16.957 3.40206 17.2388 3.21419L18.4516 2.40651V11.7422H5.03226V2.40651L6.24419 3.21419ZM3.35484 10.0648V11.7422H1.67742V10.0648H3.35484ZM1.67742 13.4196H21.8064V31.8712H18.4516C17.0644 31.8712 15.9355 33.0001 15.9355 34.3873V49.4841C15.9355 49.7793 15.9959 50.0595 16.0898 50.3228H1.67742V13.4196ZM43.6129 50.3228H18.4516C17.9886 50.3228 17.6129 49.9463 17.6129 49.4841V40.2583H44.4516V49.4841C44.4516 49.9463 44.0759 50.3228 43.6129 50.3228Z" fill="white"/>
<path d="M39.4194 41.9355C38.8281 41.9355 38.2502 42.0949 37.742 42.3926C37.2337 42.0949 36.6558 41.9355 36.0646 41.9355C34.2144 41.9355 32.7097 43.4402 32.7097 45.2904C32.7097 47.1406 34.2144 48.6452 36.0646 48.6452C36.6558 48.6452 37.2337 48.4859 37.742 48.1881C38.2502 48.4859 38.8281 48.6452 39.4194 48.6452C41.2696 48.6452 42.7742 47.1406 42.7742 45.2904C42.7742 43.4402 41.2696 41.9355 39.4194 41.9355ZM39.4194 46.9678C39.0126 46.9678 38.6167 46.8126 38.3031 46.5308C38.1446 46.3874 37.9424 46.3153 37.742 46.3153C37.5415 46.3153 37.3402 46.3866 37.1809 46.5308C36.8672 46.8126 36.4713 46.9678 36.0646 46.9678C35.1395 46.9678 34.3871 46.2155 34.3871 45.2904C34.3871 44.3653 35.1395 43.613 36.0646 43.613C36.4713 43.613 36.8672 43.7681 37.1809 44.0499C37.4988 44.3376 37.9852 44.3376 38.3031 44.0499C38.6167 43.7681 39.0126 43.613 39.4194 43.613C40.3445 43.613 41.0968 44.3653 41.0968 45.2904C41.0968 46.2155 40.3445 46.9678 39.4194 46.9678Z" fill="white"/>
<path d="M41.0968 0C35.0849 0 30.1935 4.89136 30.1935 10.9032C30.1935 16.9151 35.0849 21.8065 41.0968 21.8065C47.1086 21.8065 52 16.9151 52 10.9032C52 4.89136 47.1086 0 41.0968 0ZM31.871 10.9032C31.871 8.66136 32.677 6.60484 34.0113 5.00374L37.7805 8.7729C37.96 10.3111 39.1719 11.523 40.7101 11.7025L42.7423 13.7347C42.5939 14.5088 41.9137 15.0968 41.0968 15.0968C40.1717 15.0968 39.4193 14.3445 39.4193 13.4194H37.7419C37.7419 14.9777 38.8146 16.2802 40.2581 16.6551V18.4516H41.9355V16.6551C42.8396 16.4203 43.5877 15.8206 44.0272 15.0196L46.9963 17.9886C45.3952 19.323 43.3386 20.129 41.0968 20.129C36.01 20.129 31.871 15.99 31.871 10.9032ZM48.1822 16.8027L44.413 13.0335C44.2335 11.4954 43.0216 10.2834 41.4834 10.1039L39.4512 8.07174C39.5997 7.29761 40.2799 6.70968 41.0968 6.70968C42.0219 6.70968 42.7742 7.462 42.7742 8.3871H44.4516C44.4516 6.82877 43.3789 5.52626 41.9355 5.15136V3.35484H40.2581V5.15136C39.3539 5.38619 38.6058 5.98587 38.1663 6.78684L35.1973 3.81781C36.7984 2.48342 38.8549 1.67742 41.0968 1.67742C46.1835 1.67742 50.3226 5.81645 50.3226 10.9032C50.3226 13.1451 49.5166 15.2016 48.1822 16.8027Z" fill="white"/>
</svg>
