<svg width="48" height="48" viewBox="0 0 48 48" fill="none" xmlns="http://www.w3.org/2000/svg">
<g clip-path="url(#clip0)">
<path d="M21.6 6.40017H26.4C26.8418 6.40017 27.2 6.042 27.2 5.60017C27.2 5.15834 26.8418 4.80017 26.4 4.80017H21.6C21.1582 4.80017 20.8 5.15834 20.8 5.60017C20.8 6.042 21.1582 6.40017 21.6 6.40017Z" fill="white"/>
<path d="M35.2 6.40017H44C44.4418 6.40017 44.8 6.042 44.8 5.60017C44.8 5.15834 44.4418 4.80017 44 4.80017H35.2C34.7582 4.80017 34.4 5.15834 34.4 5.60017C34.4 6.042 34.7582 6.40017 35.2 6.40017Z" fill="white"/>
<path d="M44 1.6001H3.99998C1.79194 1.60274 0.00262964 3.39206 -1.52588e-05 5.6001V42.4001C0.00262964 44.6081 1.79194 46.3975 3.99998 46.4001H44C46.208 46.3975 47.9973 44.6081 48 42.4001V5.6001C47.9973 3.39206 46.208 1.60274 44 1.6001ZM3.99998 3.2001H44C45.3255 3.2001 46.4 4.27461 46.4 5.6001V8.0001H1.59998V5.6001C1.59998 4.27461 2.6745 3.2001 3.99998 3.2001ZM44 44.8001H3.99998C2.6745 44.8001 1.59998 43.7256 1.59998 42.4001V9.6001H46.4V42.4001C46.4 43.7256 45.3255 44.8001 44 44.8001Z" fill="white"/>
<path d="M3.99999 6.40017C4.44182 6.40017 4.79999 6.042 4.79999 5.60017C4.79999 5.15834 4.44182 4.80017 3.99999 4.80017C3.55816 4.80017 3.19999 5.15834 3.19999 5.60017C3.19999 6.042 3.55816 6.40017 3.99999 6.40017Z" fill="white"/>
<path d="M7.20001 6.40017C7.64184 6.40017 8.00001 6.042 8.00001 5.60017C8.00001 5.15834 7.64184 4.80017 7.20001 4.80017C6.75818 4.80017 6.40001 5.15834 6.40001 5.60017C6.40001 6.042 6.75818 6.40017 7.20001 6.40017Z" fill="white"/>
<path d="M10.3999 6.40017C10.8418 6.40017 11.1999 6.042 11.1999 5.60017C11.1999 5.15834 10.8418 4.80017 10.3999 4.80017C9.95812 4.80017 9.59995 5.15834 9.59995 5.60017C9.59995 6.042 9.95812 6.40017 10.3999 6.40017Z" fill="white"/>
<path d="M30.4 28.8001C28.3961 28.8028 26.5464 29.8761 25.5496 31.6145C24.5904 31.062 23.4096 31.062 22.4504 31.6145C20.9747 29.0411 17.7618 28.0449 15.0891 29.3319C12.4164 30.6189 11.1918 33.7519 12.2834 36.5102C13.375 39.2685 16.412 40.715 19.2416 39.8245C22.0712 38.9339 23.7322 36.0087 23.0472 33.1225C23.6222 32.7312 24.3779 32.7312 24.9528 33.1225C24.4091 35.4429 25.3936 37.8532 27.4064 39.1295C29.4191 40.4057 32.0191 40.2682 33.8861 38.7868C35.753 37.3054 36.4777 34.8046 35.6923 32.5545C34.9069 30.3044 32.7833 28.7979 30.4 28.8001ZM17.6 38.4001C15.3909 38.4001 13.6 36.6092 13.6 34.4001C13.6 32.1909 15.3909 30.4001 17.6 30.4001C19.8092 30.4001 21.6 32.1909 21.6 34.4001C21.5974 36.6081 19.8081 38.3974 17.6 38.4001ZM30.4 38.4001C28.1909 38.4001 26.4 36.6092 26.4 34.4001C26.4 32.1909 28.1909 30.4001 30.4 30.4001C32.6092 30.4001 34.4 32.1909 34.4 34.4001C34.3974 36.6081 32.6081 38.3974 30.4 38.4001Z" fill="white"/>
<path d="M33.3496 22.2728L31.1496 15.12C30.8819 14.2524 30.259 13.539 29.4355 13.1568C28.6119 12.7747 27.6649 12.7595 26.8296 13.1152L24.6232 14.0624C24.2253 14.2384 23.7715 14.2384 23.3736 14.0624L21.1696 13.112C20.3343 12.7563 19.3873 12.7715 18.5637 13.1536C17.7402 13.5358 17.1173 14.2492 16.8496 15.1168L14.6496 22.2728C12.403 22.9515 10.3658 24.1903 8.7296 25.8728C8.52211 26.1096 8.47281 26.4461 8.60366 26.7325C8.7345 27.0189 9.02115 27.2019 9.336 27.2H38.664C38.9776 27.2 39.2623 27.0168 39.3922 26.7313C39.5221 26.4459 39.4733 26.1109 39.2672 25.8744C37.6319 24.1916 35.5956 22.9523 33.3496 22.2728ZM18.3808 15.5864C18.5153 15.1531 18.8268 14.7969 19.2383 14.6057C19.6498 14.4146 20.1229 14.4064 20.5408 14.5832L22.7344 15.524C23.539 15.8768 24.4546 15.8768 25.2592 15.524L27.4568 14.58C27.8748 14.4035 28.3479 14.412 28.7594 14.6032C29.1708 14.7944 29.4822 15.1507 29.6168 15.584L31.5024 21.7168C26.5744 20.4901 21.4208 20.4901 16.4928 21.7168L18.3808 15.5864ZM11.44 25.6C14.2528 23.6184 18.9144 22.4 24 22.4C26.8503 22.3793 29.6869 22.7953 32.4112 23.6336C32.4483 23.648 32.4866 23.6592 32.5256 23.6672C33.9576 24.1108 35.3169 24.762 36.56 25.6H11.44Z" fill="white"/>
</g>
<defs>
<clipPath id="clip0">
<rect width="48" height="48" fill="white"/>
</clipPath>
</defs>
</svg>
