<svg width="55" height="52" viewBox="0 0 55 52" fill="none" xmlns="http://www.w3.org/2000/svg">
<path d="M37.8125 44.6875H25.2777L26.3888 43.6369C26.7248 43.3193 26.7248 42.8057 26.3888 42.4881L16.0763 32.7381C15.9156 32.5853 15.6965 32.5 15.4688 32.5H2.57812V30.875H0.859375V45.5H2.57812V43.875H10.0057L19.2216 51.0039C19.3746 51.1225 19.5671 51.1875 19.7656 51.1875H37.8125C38.2869 51.1875 38.6719 50.8243 38.6719 50.375V45.5C38.6719 45.0507 38.2869 44.6875 37.8125 44.6875ZM36.9531 49.5625H20.0724L10.8565 42.4336C10.7035 42.315 10.511 42.25 10.3125 42.25H2.57812V34.125H15.113L24.5661 43.0625L22.3438 45.1636L17.7951 40.8631L16.5799 42.0119L21.7362 46.8869C21.9037 47.0454 22.1238 47.125 22.3438 47.125C22.5637 47.125 22.7838 47.0454 22.9513 46.8869L23.5589 46.3125H36.9531V49.5625Z" fill="white"/>
<path d="M52.4219 37.5245V29.25C52.4219 22.9775 47.025 17.875 40.3906 17.875C33.7563 17.875 28.3594 22.9775 28.3594 29.25V37.5245C27.3616 37.8609 26.6406 38.7546 26.6406 39.8125C26.6406 41.1564 27.7973 42.25 29.2188 42.25H51.5625C52.9839 42.25 54.1406 41.1564 54.1406 39.8125C54.1406 38.7546 53.4196 37.8609 52.4219 37.5245ZM51.5625 40.625H29.2188C28.7452 40.625 28.3594 40.261 28.3594 39.8125C28.3594 39.364 28.7452 39 29.2188 39H31.7969V37.375H30.0781V29.25C30.0781 23.8737 34.7041 19.5 40.3906 19.5C46.0771 19.5 50.7031 23.8737 50.7031 29.25V37.375H48.9844V39H51.5625C52.036 39 52.4219 39.364 52.4219 39.8125C52.4219 40.261 52.036 40.625 51.5625 40.625Z" fill="white"/>
<path d="M40.3906 26C41.3385 26 42.1094 26.7288 42.1094 27.625H43.8281C43.8281 26.1146 42.7281 24.8536 41.25 24.4904V22.75H39.5312V24.4904C38.0531 24.8536 36.9531 26.1146 36.9531 27.625C36.9531 29.4174 38.4948 30.875 40.3906 30.875C41.3385 30.875 42.1094 31.6038 42.1094 32.5C42.1094 33.3962 41.3385 34.125 40.3906 34.125C39.4427 34.125 38.6719 33.3962 38.6719 32.5H36.9531C36.9531 34.0104 38.0531 35.2714 39.5312 35.6346V37.375H41.25V35.6346C42.7281 35.2714 43.8281 34.0104 43.8281 32.5C43.8281 30.7076 42.2864 29.25 40.3906 29.25C39.4427 29.25 38.6719 28.5212 38.6719 27.625C38.6719 26.7288 39.4427 26 40.3906 26Z" fill="white"/>
<path d="M45.5469 16.2501H43.3495L45.4919 10.8486C45.6113 10.5472 45.5314 10.2076 45.2882 9.98249C45.0441 9.75743 44.6832 9.6908 44.3678 9.80861L40.3906 11.3126L36.4134 9.8078C36.0963 9.68918 35.7362 9.75661 35.493 9.98168C35.2498 10.2067 35.1699 10.5464 35.2894 10.8478L37.4318 16.2501H35.2344V17.8751H40.3906H45.5469V16.2501ZM39.2674 16.2501L37.5813 12.0007L40.0709 12.9424C40.2763 13.0204 40.5041 13.0204 40.7095 12.9424L43.1991 12.0007L41.5138 16.2501H39.2674Z" fill="white"/>
<path d="M14.6094 26.8125C17.2657 26.8125 19.8301 26.0959 22.055 24.7349L27.1691 26.7491C27.2766 26.7922 27.3883 26.8125 27.5 26.8125C27.7234 26.8125 27.9434 26.7296 28.1076 26.5744C28.3542 26.3421 28.4273 25.9911 28.2932 25.6872L26.1628 20.852C27.6014 18.7476 28.3594 16.3239 28.3594 13.8125C28.3594 6.64463 22.1908 0.8125 14.6094 0.8125C7.02797 0.8125 0.859375 6.64463 0.859375 13.8125C0.859375 20.9804 7.02797 26.8125 14.6094 26.8125ZM14.6094 2.4375C21.2437 2.4375 26.6406 7.54 26.6406 13.8125C26.6406 16.1403 25.8955 18.3828 24.4862 20.2971C24.3186 20.5246 24.2859 20.8179 24.3977 21.0738L25.9033 24.4904L22.2896 23.0669C22.0189 22.9596 21.7095 22.9905 21.468 23.1506C19.4434 24.4831 17.0715 25.1875 14.6094 25.1875C7.975 25.1875 2.57812 20.085 2.57812 13.8125C2.57812 7.54 7.975 2.4375 14.6094 2.4375Z" fill="white"/>
<path d="M10.3125 13C12.2083 13 13.75 11.5424 13.75 9.75C13.75 7.95762 12.2083 6.5 10.3125 6.5C8.41672 6.5 6.875 7.95762 6.875 9.75C6.875 11.5424 8.41672 13 10.3125 13ZM10.3125 8.125C11.2604 8.125 12.0312 8.85381 12.0312 9.75C12.0312 10.6462 11.2604 11.375 10.3125 11.375C9.36461 11.375 8.59375 10.6462 8.59375 9.75C8.59375 8.85381 9.36461 8.125 10.3125 8.125Z" fill="white"/>
<path d="M18.9062 14.625C17.0105 14.625 15.4688 16.0826 15.4688 17.875C15.4688 19.6674 17.0105 21.125 18.9062 21.125C20.802 21.125 22.3438 19.6674 22.3438 17.875C22.3438 16.0826 20.802 14.625 18.9062 14.625ZM18.9062 19.5C17.9584 19.5 17.1875 18.7712 17.1875 17.875C17.1875 16.9788 17.9584 16.25 18.9062 16.25C19.8541 16.25 20.625 16.9788 20.625 17.875C20.625 18.7712 19.8541 19.5 18.9062 19.5Z" fill="white"/>
<path d="M7.12421 19.7372L20.8719 6.73938L22.087 7.88826L8.33936 20.8861L7.12421 19.7372Z" fill="white"/>
</svg>
