<svg width="55" height="55" viewBox="0 0 55 55" fill="none" xmlns="http://www.w3.org/2000/svg">
<path d="M4.29688 28.3594H14.6094V19.7656H4.29688V28.3594ZM6.01562 24.9219H7.73438V26.6406H6.01562V24.9219ZM12.8906 21.4844V23.2031H11.1719V24.9219H12.8906V26.6406H9.45312V23.2031H6.01562V21.4844H12.8906Z" fill="white"/>
<path d="M24.9219 28.3594C24.3143 28.3594 23.7239 28.5295 23.2005 28.8363C22.6935 28.5407 22.1126 28.3594 21.4844 28.3594C19.5886 28.3594 18.0469 29.9011 18.0469 31.7969C18.0469 33.6927 19.5886 35.2344 21.4844 35.2344C22.1126 35.2344 22.6935 35.053 23.2005 34.7574C23.7239 35.0642 24.3143 35.2344 24.9219 35.2344C26.8177 35.2344 28.3594 33.6927 28.3594 31.7969C28.3594 29.9011 26.8177 28.3594 24.9219 28.3594ZM19.7656 31.7969C19.7656 30.849 20.5365 30.0781 21.4844 30.0781C22.4323 30.0781 23.2031 30.849 23.2031 31.7969C23.2031 32.7448 22.4323 33.5156 21.4844 33.5156C20.5365 33.5156 19.7656 32.7448 19.7656 31.7969ZM24.9219 33.5156C24.7586 33.5156 24.6142 33.4881 24.4793 33.4503C24.7526 32.9579 24.9219 32.3993 24.9219 31.7969C24.9219 31.1945 24.7526 30.6359 24.4793 30.1434C24.6142 30.1056 24.7586 30.0781 24.9219 30.0781C25.8698 30.0781 26.6406 30.849 26.6406 31.7969C26.6406 32.7448 25.8698 33.5156 24.9219 33.5156Z" fill="white"/>
<path d="M4.29688 30.0781H14.6094V31.7969H4.29688V30.0781Z" fill="white"/>
<path d="M4.29688 33.5156H14.6094V35.2344H4.29688V33.5156Z" fill="white"/>
<path d="M19.7656 19.7656H28.3594V21.4844H19.7656V19.7656Z" fill="white"/>
<path d="M23.2031 23.2031H24.9219V24.9219H23.2031V23.2031Z" fill="white"/>
<path d="M26.6406 23.2031H28.3594V24.9219H26.6406V23.2031Z" fill="white"/>
<path d="M19.7656 23.2031H21.4844V24.9219H19.7656V23.2031Z" fill="white"/>
<path d="M35.2344 16.3281C33.7262 16.3281 32.2309 16.5155 30.7777 16.867C30.3437 16.5344 29.8074 16.3281 29.2188 16.3281H21.9055C23.2934 14.6549 24.0625 12.552 24.0625 10.3125C24.0625 5.10039 19.8215 0.859375 14.6094 0.859375C9.39727 0.859375 5.15625 5.10039 5.15625 10.3125C5.15625 12.552 5.92539 14.6549 7.31328 16.3281H3.4375C2.01609 16.3281 0.859375 17.4848 0.859375 18.9062V36.0938C0.859375 37.5152 2.01609 38.6719 3.4375 38.6719H16.6607C18.2961 47.538 26.1396 54.1406 35.2344 54.1406C45.6595 54.1406 54.1406 45.6595 54.1406 35.2344C54.1406 24.8093 45.6595 16.3281 35.2344 16.3281ZM35.2344 52.4219C33.7305 52.4219 32.01 49.5782 30.9848 44.6875H39.4625C38.457 49.4158 36.789 52.4219 35.2344 52.4219ZM30.6677 42.9688C30.4477 41.598 30.2818 40.0976 30.183 38.4811C31.1274 38.0978 31.7969 37.174 31.7969 36.0938H40.376C40.3356 38.5885 40.1216 40.9062 39.783 42.9688H30.6677ZM31.7969 27.5H39.783C40.1216 29.5625 40.3348 31.8802 40.376 34.375H31.7969V27.5ZM42.1025 36.0938H52.3789C52.256 38.5576 51.6192 40.883 50.563 42.9688H41.531C41.8713 40.773 42.0647 38.4252 42.1025 36.0938ZM42.1025 34.375C42.0647 32.0435 41.8713 29.6957 41.5302 27.5H50.5622C51.6192 29.5857 52.256 31.9112 52.378 34.375H42.1025ZM49.5739 25.7812H41.2259C40.6141 22.7159 39.6902 20.069 38.4708 18.3623C43.0951 19.2483 47.0645 21.988 49.5739 25.7812ZM39.4625 25.7812H31.7969V18.9062C31.7969 18.7344 31.7788 18.5668 31.7462 18.4044C32.8883 18.1689 34.057 18.0469 35.2344 18.0469C36.789 18.0469 38.457 21.053 39.4625 25.7812ZM6.875 10.3125C6.875 6.04828 10.3452 2.57812 14.6094 2.57812C18.8736 2.57812 22.3438 6.04828 22.3438 10.3125C22.3438 12.6784 21.2893 14.8509 19.4545 16.3281H15.4688V14.4513C16.4665 14.0955 17.1875 13.1502 17.1875 12.0312C17.1875 10.6098 16.0308 9.45312 14.6094 9.45312C14.1359 9.45312 13.75 9.06727 13.75 8.59375C13.75 8.12023 14.1359 7.73438 14.6094 7.73438C15.0829 7.73438 15.4688 8.12023 15.4688 8.59375H17.1875C17.1875 7.47484 16.4665 6.52953 15.4688 6.17375V4.29688H13.75V6.17375C12.7523 6.52953 12.0312 7.47484 12.0312 8.59375C12.0312 10.0152 13.188 11.1719 14.6094 11.1719C15.0829 11.1719 15.4688 11.5577 15.4688 12.0312C15.4688 12.5048 15.0829 12.8906 14.6094 12.8906C14.1359 12.8906 13.75 12.5048 13.75 12.0312H12.0312C12.0312 13.1502 12.7523 14.0955 13.75 14.4513V16.3281H9.76422C7.92945 14.8509 6.875 12.6775 6.875 10.3125ZM2.57812 36.0938V18.9062C2.57812 18.4327 2.96398 18.0469 3.4375 18.0469H29.2188C29.6923 18.0469 30.0781 18.4327 30.0781 18.9062V36.0938C30.0781 36.5673 29.6923 36.9531 29.2188 36.9531H3.4375C2.96398 36.9531 2.57812 36.5673 2.57812 36.0938ZM28.4677 38.6719C28.5605 40.113 28.7169 41.5637 28.9377 42.9688H19.9083C19.2268 41.6298 18.718 40.1904 18.4087 38.6719H28.4677ZM20.9009 44.6875H29.2463C29.8547 47.7065 30.7777 50.3817 32.0117 52.1099C27.4287 51.2248 23.4309 48.4945 20.9009 44.6875ZM38.4708 52.1065C39.6902 50.3998 40.6141 47.7537 41.2259 44.6875H49.5739C47.0645 48.4808 43.0951 51.2205 38.4708 52.1065Z" fill="white"/>
</svg>
