<svg width="55" height="55" viewBox="0 0 55 55" fill="none" xmlns="http://www.w3.org/2000/svg">
<path d="M47.1247 35.4028C46.4879 34.8666 45.6466 34.644 44.8353 34.7849L27.7922 37.7489L22.9513 32.908C22.7906 32.7465 22.5723 32.6563 22.3438 32.6563H13.75C13.75 32.1819 13.3659 31.7969 12.8906 31.7969H9.45312H3.4375V33.5156H8.59375V45.5469H3.4375V47.2656H9.45312H12.8906C13.3659 47.2656 13.75 46.8806 13.75 46.4063H16.1253L25.3129 51.0005C25.7108 51.199 26.1405 51.2987 26.5702 51.2978C27.0583 51.2978 27.5473 51.1698 27.9847 50.9145L46.7328 39.9781C47.5913 39.4763 48.125 38.5464 48.125 37.5521C48.125 36.7211 47.7598 35.9373 47.1247 35.4028ZM12.0312 45.5469H10.3125V33.5156H12.0312V45.5469ZM45.8657 38.494L27.1184 49.4295C26.8005 49.6152 26.4129 49.628 26.082 49.463L16.7131 44.7786C16.5937 44.7184 16.4613 44.6875 16.3281 44.6875H13.75V34.375H21.988L28.759 41.1452C29.0555 41.4425 29.2188 41.837 29.2188 42.2563C29.2188 43.1234 28.5141 43.8281 27.6478 43.8281C27.2345 43.8281 26.8297 43.6605 26.5366 43.3675L22.092 38.9237L20.8768 40.1388L25.3215 44.5827C25.9428 45.2048 26.7678 45.5469 27.6478 45.5469C29.4611 45.5469 30.9375 44.0713 30.9375 42.2563C30.9375 41.378 30.5955 40.5522 29.9741 39.93L29.2789 39.2348L45.1292 36.4779C45.4489 36.422 45.7712 36.5105 46.0178 36.7177C46.2645 36.9256 46.4062 37.2298 46.4062 37.5521C46.4062 37.938 46.1991 38.2989 45.8657 38.494Z" fill="white"/>
<path d="M32.8801 12.3145L24.286 21.7671L25.5583 22.9239L34.1524 13.4713L32.8801 12.3145Z" fill="white"/>
<path d="M25.7812 17.6172C27.2027 17.6172 28.3594 16.4605 28.3594 15.0391C28.3594 13.6177 27.2027 12.4609 25.7812 12.4609C24.3598 12.4609 23.2031 13.6177 23.2031 15.0391C23.2031 16.4605 24.3598 17.6172 25.7812 17.6172ZM25.7812 14.1797C26.2556 14.1797 26.6406 14.5655 26.6406 15.0391C26.6406 15.5126 26.2556 15.8984 25.7812 15.8984C25.3069 15.8984 24.9219 15.5126 24.9219 15.0391C24.9219 14.5655 25.3069 14.1797 25.7812 14.1797Z" fill="white"/>
<path d="M30.0781 20.1953C30.0781 21.6167 31.2348 22.7734 32.6562 22.7734C34.0777 22.7734 35.2344 21.6167 35.2344 20.1953C35.2344 18.7739 34.0777 17.6172 32.6562 17.6172C31.2348 17.6172 30.0781 18.7739 30.0781 20.1953ZM33.5156 20.1953C33.5156 20.6688 33.1306 21.0547 32.6562 21.0547C32.1819 21.0547 31.7969 20.6688 31.7969 20.1953C31.7969 19.7218 32.1819 19.3359 32.6562 19.3359C33.1306 19.3359 33.5156 19.7218 33.5156 20.1953Z" fill="white"/>
<path d="M28.5948 35.8256C28.7581 35.9966 28.9833 36.0938 29.2187 36.0938C29.4542 36.0938 29.6794 35.9966 29.8426 35.8256L43.4706 21.4672C47.3739 17.3542 47.3739 10.6623 43.4706 6.55016C41.5654 4.54266 39.0294 3.4375 36.3292 3.4375C33.6428 3.4375 31.1197 4.53063 29.2187 6.5175C27.3178 4.53063 24.7947 3.4375 22.1083 3.4375C19.4081 3.4375 16.8721 4.54266 14.9669 6.55016C11.0636 10.6631 11.0636 17.3551 14.9669 21.4672L28.5948 35.8256ZM16.2138 7.73352C17.7908 6.07148 19.8842 5.15625 22.1083 5.15625C24.3332 5.15625 26.4258 6.07148 28.0027 7.73352L28.5948 8.35828C28.9205 8.69945 29.5161 8.69945 29.8418 8.35828L30.4339 7.73352C32.0117 6.07148 34.1051 5.15625 36.3292 5.15625C38.5533 5.15625 40.6458 6.07148 42.2228 7.73352C45.5073 11.1934 45.5073 16.824 42.2228 20.2838L29.2187 33.9857L16.2138 20.2838C12.9293 16.824 12.9293 11.1934 16.2138 7.73352Z" fill="white"/>
<path d="M26.6406 24.0625H24.9219V25.7812H26.6406V24.0625Z" fill="white"/>
<path d="M30.0781 24.0625H28.3594V25.7812H30.0781V24.0625Z" fill="white"/>
<path d="M33.5156 24.0625H31.7969V25.7812H33.5156V24.0625Z" fill="white"/>
</svg>
