<svg width="633" height="377" viewBox="0 0 633 377" fill="none" xmlns="http://www.w3.org/2000/svg">
<path d="M519.656 257.602C517.357 256.616 517.849 254.974 520.97 254.235C523.024 253.824 525.159 254.071 527.048 254.892L528.609 255.549C530.826 256.452 533.29 256.452 535.508 255.549L609.838 224.016C613.37 222.538 613.37 219.992 609.838 218.514L560.394 197.492C556.78 195.932 550.949 195.767 546.924 197.081C518.26 206.607 476.618 205.786 450.172 194.536C423.725 183.286 421.754 165.63 444.258 153.477C447.461 151.753 447.051 149.289 443.355 147.729L393.91 126.707C390.379 125.229 384.465 125.229 380.933 126.707L306.192 158.404C305.042 158.897 305.042 160.539 306.192 160.95L308.656 162.017C310.463 162.756 310.545 164.152 308.656 164.973C306.767 165.795 303.646 165.795 301.675 164.973L299.622 164.07C297.404 163.167 294.94 163.167 292.722 164.07L23.2436 278.706C19.7119 280.184 19.7119 282.729 23.2436 284.208L72.6878 305.23C76.3016 306.79 82.1331 306.954 86.1576 305.64C114.822 296.115 156.464 296.936 182.91 308.186C209.357 319.436 211.328 337.091 188.824 349.244C185.621 350.969 186.031 353.432 189.727 354.993L239.172 376.015C242.703 377.493 248.617 377.493 252.149 376.015L522.202 261.379C523.352 260.886 523.352 259.244 522.202 258.833L519.656 257.602Z" fill="url(#paint0_radial)"/>
<path d="M627.661 128.103L577.314 106.752C573.453 105.11 567.211 104.946 562.94 106.342C532.223 116.524 487.706 115.621 459.453 103.632C431.199 91.6428 429.063 72.7558 453.128 59.6992C454.689 58.878 455.428 57.8926 455.428 56.8251V50.2557L451.404 53.2119L399.331 31.1224C395.553 29.4801 389.311 29.4801 385.451 31.1224L310.874 62.7375L310.627 61.9164L304.55 59.8634V66.3507C304.55 66.9255 304.878 67.4182 305.453 67.6646L308.081 68.8142C310.053 69.6354 310.053 71.1135 308.163 71.9347C306.11 72.8379 302.825 72.8379 300.689 71.9347L298.472 71.0314C296.09 70.046 293.462 70.046 291.162 71.0314L4.84585 192.647L0 189.937V196.506C0 197.574 0.985597 198.641 2.87466 199.463L55.7684 221.881C59.6286 223.523 65.8708 223.687 70.1417 222.291C100.859 212.109 145.376 213.012 173.629 225.001C200.569 236.415 203.772 254.153 183.075 267.045L177.654 265.239V271.726C177.654 272.958 178.722 274.107 180.857 275.01L233.751 297.428C237.529 299.071 243.771 299.071 247.631 297.428L536.411 174.91C537.068 174.663 537.315 174.088 537.315 173.514V167.273C538.793 167.273 540.354 167.601 541.75 168.176L543.393 168.915C545.775 169.9 548.403 169.9 550.703 168.915L630.207 135.165C632.096 134.344 633.082 133.276 633.082 132.209V125.639L627.661 128.103ZM343.152 86.88C341.099 87.7833 337.814 87.7833 335.678 86.88L323.933 81.8708C321.962 81.0497 321.962 79.5716 323.851 78.7504C325.904 77.8471 329.19 77.8471 331.325 78.7504L343.07 83.7595C345.123 84.5807 345.123 86.0588 343.152 86.88ZM378.141 101.743C376.088 102.646 372.802 102.646 370.667 101.743L358.922 96.734C356.951 95.9129 356.951 94.4348 358.84 93.6136C360.893 92.7103 364.178 92.7103 366.314 93.6136L378.059 98.6227C380.03 99.4439 380.112 100.922 378.141 101.743ZM413.13 116.606C411.076 117.51 407.791 117.51 405.655 116.606L393.91 111.597C391.939 110.776 391.939 109.298 393.828 108.477C395.882 107.574 399.167 107.574 401.302 108.477L413.047 113.486C415.019 114.307 415.101 115.703 413.13 116.606ZM448.036 131.387C445.983 132.291 442.698 132.291 440.562 131.387L428.817 126.378C426.846 125.557 426.846 124.079 428.735 123.258C430.788 122.355 434.074 122.355 436.209 123.258L447.954 128.267C450.007 129.17 450.007 130.566 448.036 131.387ZM483.025 146.251C480.972 147.154 477.686 147.154 475.551 146.251L463.806 141.242C461.835 140.42 461.835 138.942 463.724 138.121C465.777 137.218 469.062 137.218 471.198 138.121L482.943 143.13C484.996 143.951 484.996 145.43 483.025 146.251ZM518.014 161.114C515.96 162.017 512.675 162.017 510.539 161.114L498.794 156.105C496.823 155.284 496.823 153.805 498.712 152.984C500.766 152.081 504.051 152.081 506.186 152.984L517.931 157.993C519.903 158.815 519.985 160.211 518.014 161.114Z" fill="url(#paint1_radial)"/>
<path d="M533.783 165.959C531.319 164.891 531.812 163.085 535.179 162.346C537.397 161.853 539.615 162.181 541.668 163.003L543.311 163.742C545.693 164.727 548.321 164.727 550.621 163.742L630.125 129.991C633.904 128.349 633.904 125.721 630.125 124.079L577.232 101.661C573.371 100.019 567.129 99.8545 562.858 101.25C532.141 111.433 487.624 110.53 459.371 98.5406C431.117 86.5515 428.981 67.6645 453.046 54.6079C456.414 52.8013 456.003 50.1736 452.143 48.5312L399.249 26.1132C395.471 24.4709 389.229 24.4709 385.369 26.1132L305.535 60.1098C304.303 60.6025 304.303 62.3269 305.535 62.9017L308.164 64.0514C310.135 64.8726 310.135 66.3507 308.246 67.1718C306.192 68.0751 302.907 68.0751 300.772 67.1718L298.554 66.2685C296.172 65.2831 293.544 65.2831 291.244 66.2685L2.87469 188.541C-0.903431 190.183 -0.903431 192.811 2.87469 194.453L55.7684 216.871C59.6287 218.514 65.8708 218.678 70.1417 217.282C100.86 207.1 145.376 208.003 173.629 219.992C201.883 231.981 204.019 250.868 179.954 263.925C176.586 265.731 176.997 268.359 180.857 270.001L233.751 292.419C237.529 294.062 243.771 294.062 247.631 292.419L536.411 169.9C537.643 169.408 537.643 167.683 536.411 167.108L533.783 165.959ZM335.76 81.9529L324.015 76.9438C322.044 76.1226 322.044 74.6445 323.933 73.8233C325.986 72.92 329.272 72.92 331.407 73.8233L343.152 78.8325C345.123 79.6536 345.123 81.1318 343.234 81.9529C341.099 82.7741 337.814 82.7741 335.76 81.9529ZM370.667 96.734L358.922 91.7249C356.951 90.9037 356.951 89.4256 358.84 88.6044C360.893 87.7011 364.178 87.7011 366.314 88.6044L378.059 93.6136C380.03 94.4347 380.03 95.9128 378.141 96.734C376.088 97.6373 372.802 97.6373 370.667 96.734ZM405.656 111.597L393.911 106.588C391.939 105.767 391.939 104.289 393.828 103.468C395.882 102.564 399.167 102.564 401.303 103.468L413.048 108.477C415.019 109.298 415.019 110.776 413.13 111.597C411.076 112.501 407.709 112.501 405.656 111.597ZM440.644 126.46L428.899 121.451C426.928 120.63 426.928 119.152 428.817 118.331C430.87 117.428 434.156 117.428 436.291 118.331L448.036 123.34C450.007 124.161 450.007 125.639 448.118 126.46C446.065 127.282 442.698 127.282 440.644 126.46ZM475.633 141.242L463.888 136.232C461.917 135.411 461.917 133.933 463.806 133.112C465.859 132.209 469.144 132.209 471.28 133.112L483.025 138.121C484.996 138.942 484.996 140.42 483.107 141.242C480.972 142.145 477.686 142.145 475.633 141.242ZM510.54 156.105L498.795 151.096C496.823 150.274 496.823 148.796 498.712 147.975C500.766 147.072 504.051 147.072 506.186 147.975L517.932 152.984C519.903 153.805 519.903 155.284 518.014 156.105C515.96 157.008 512.593 157.008 510.54 156.105Z" fill="url(#paint2_radial)"/>
<path d="M533.783 164.399C531.319 163.331 531.812 161.524 535.179 160.785C537.397 160.293 539.615 160.621 541.668 161.442L543.311 162.181C545.693 163.167 548.321 163.167 550.621 162.181L630.125 128.431C633.904 126.789 633.904 124.161 630.125 122.519L577.232 100.101C573.371 98.4585 567.129 98.2943 562.858 99.6902C532.141 109.873 487.624 108.969 459.371 96.9804C431.117 84.9913 428.981 66.1043 453.046 53.0477C456.414 51.2411 456.003 48.6134 452.143 46.971L399.249 24.553C395.471 22.9107 389.229 22.9107 385.369 24.553L305.535 58.4674C304.303 58.9601 304.303 60.6846 305.535 61.2594L308.164 62.409C310.135 63.2302 310.135 64.7083 308.246 65.5295C306.192 66.4328 302.907 66.4328 300.772 65.5295L298.554 64.6262C296.172 63.6408 293.544 63.6408 291.244 64.6262L2.87469 186.981C-0.903431 188.623 -0.903431 191.251 2.87469 192.893L55.7684 215.311C59.6287 216.954 65.8708 217.118 70.1417 215.722C100.86 205.539 145.376 206.443 173.629 218.432C201.883 230.421 204.019 249.308 179.954 262.364C176.586 264.171 176.997 266.799 180.857 268.441L233.751 290.859C237.529 292.501 243.771 292.501 247.631 290.859L536.411 168.34C537.643 167.848 537.643 166.123 536.411 165.548L533.783 164.399ZM335.76 80.3106L324.015 75.3014C322.044 74.4803 322.044 73.0022 323.933 72.181C325.986 71.2777 329.272 71.2777 331.407 72.181L343.152 77.1901C345.123 78.0113 345.123 79.4894 343.234 80.3106C341.099 81.2139 337.814 81.2139 335.76 80.3106ZM370.667 95.1738L358.922 90.1647C356.951 89.3435 356.951 87.8654 358.84 87.0442C360.893 86.1409 364.178 86.1409 366.314 87.0442L378.059 92.0533C380.03 92.8745 380.03 94.3526 378.141 95.1738C376.088 96.0771 372.802 96.0771 370.667 95.1738ZM405.656 110.037L393.911 105.028C391.939 104.207 391.939 102.729 393.828 101.907C395.882 101.004 399.167 101.004 401.303 101.907L413.048 106.917C415.019 107.738 415.019 109.216 413.13 110.037C411.076 110.858 407.709 110.94 405.656 110.037ZM440.644 124.9L428.899 119.891C426.928 119.07 426.928 117.592 428.817 116.771C430.87 115.867 434.156 115.867 436.291 116.771L448.036 121.78C450.007 122.601 450.007 124.079 448.118 124.9C446.065 125.721 442.698 125.721 440.644 124.9ZM475.633 139.681L463.888 134.672C461.917 133.851 461.917 132.373 463.806 131.552C465.859 130.648 469.144 130.648 471.28 131.552L483.025 136.561C484.996 137.382 484.996 138.86 483.107 139.681C480.972 140.585 477.686 140.585 475.633 139.681ZM510.54 154.545L498.795 149.535C496.823 148.714 496.823 147.236 498.712 146.415C500.766 145.512 504.051 145.512 506.186 146.415L517.932 151.424C519.903 152.245 519.903 153.723 518.014 154.545C515.96 155.448 512.593 155.448 510.54 154.545Z" fill="url(#paint3_radial)"/>
<g opacity="0.4">
<g opacity="0.4">
<g opacity="0.4">
<path opacity="0.4" d="M371.817 264.582C371.817 223.194 338.224 175.402 296.829 157.829C277.774 149.782 260.444 149.453 247.221 155.53L224.141 165.466L233.094 166.287C225.948 174.745 221.842 186.488 221.842 201.023C221.842 242.41 255.434 290.202 296.829 307.775C307.26 312.21 317.198 314.262 326.233 314.262L322.537 320.339L344.713 310.814C361.304 304.08 371.817 287.821 371.817 264.582Z" fill="url(#paint4_radial)"/>
<path opacity="0.4" d="M349.887 274.025C349.887 315.412 316.295 334.71 274.9 317.137C233.505 299.563 199.912 251.771 199.912 210.384C199.912 168.997 233.505 149.7 274.9 167.273C316.295 184.846 349.887 232.638 349.887 274.025Z" fill="url(#paint5_radial)"/>
<path opacity="0.4" d="M348.655 274.518C348.655 315.905 315.063 335.202 273.668 317.629C232.273 300.056 198.68 252.264 198.68 210.877C198.68 169.49 232.273 150.192 273.668 167.765C315.063 185.338 348.655 233.131 348.655 274.518Z" fill="url(#paint6_radial)"/>
<path opacity="0.4" d="M334.939 268.77C334.939 302.602 307.506 318.368 273.668 303.998C239.829 289.627 212.396 250.54 212.396 216.707C212.396 182.875 239.829 167.108 273.668 181.479C307.506 195.849 334.939 234.937 334.939 268.77Z" fill="url(#paint7_radial)"/>
<path opacity="0.4" d="M281.306 298.25C247.467 283.879 220.035 244.791 220.035 210.959C220.035 197.985 224.059 187.638 230.958 180.658C219.542 186.899 212.396 199.463 212.396 216.625C212.396 250.457 239.829 289.545 273.668 303.916C294.529 312.784 312.927 310.157 324.015 298.907C313.009 305.065 297.897 305.312 281.306 298.25Z" fill="url(#paint8_radial)"/>
<path opacity="0.4" d="M274.982 302.93C241.143 288.56 213.71 249.472 213.71 215.64C213.71 201.762 218.31 191.005 226.113 184.025C217.571 190.922 212.478 202.173 212.478 216.707C212.478 250.54 239.911 289.627 273.75 303.998C293.626 312.456 311.285 310.485 322.455 300.549C311.12 309.5 294.119 311.06 274.982 302.93Z" fill="url(#paint9_radial)"/>
</g>
<g opacity="0.4">
<path opacity="0.4" d="M268.822 205.786C270.136 204.472 269.397 202.747 268.986 200.859C266.358 200.612 263.976 200.859 261.84 201.598C261.594 201.68 261.43 201.762 261.266 201.844L261.101 201.926H261.019L254.12 205.047L256.584 206.032C256.091 206.935 255.763 207.921 255.598 208.988C260.034 208.988 264.551 207.674 268.822 205.786Z" fill="url(#paint10_radial)"/>
<path opacity="0.4" d="M288.616 264.992C286.562 265.731 283.524 265.321 279.417 263.596C274.735 261.625 271.121 258.998 268.575 255.877C266.358 253.167 265.126 250.129 264.879 246.926C264.797 246.023 264.058 245.12 263.237 244.709L254.941 241.178C254.531 241.014 254.12 241.014 253.791 241.178L247.056 244.217L254.038 247.008C254.613 249.061 255.434 251.032 256.502 253.003C258.801 257.109 261.923 260.968 266.029 264.499C267.918 266.142 269.889 267.62 271.943 268.934C272.682 269.426 273.257 270.33 273.257 271.069V278.459C273.257 279.281 273.914 280.184 274.735 280.594L275.639 281.005L276.049 286.671L282.784 283.633C283.113 283.469 283.277 283.222 283.277 282.729V275.832C283.277 275.01 283.934 274.6 284.756 274.846C285.823 275.175 286.809 275.421 287.794 275.585C288.041 271.972 288.78 268.605 288.78 265.074C288.698 264.992 288.698 264.992 288.616 264.992Z" fill="url(#paint11_radial)"/>
<path opacity="0.4" d="M301.182 254.645C299.704 251.443 297.404 248.158 294.201 244.873C290.998 241.507 286.809 237.976 281.635 234.198C276.378 230.421 272.682 227.218 270.382 224.59C268.083 221.963 266.933 219.417 266.933 216.954C266.933 215.311 267.261 214.079 267.918 213.094C266.686 210.795 264.879 208.988 262.333 207.921C260.116 208.496 257.816 208.824 255.516 208.824C255.352 209.809 255.188 210.795 255.188 211.944C255.188 218.103 258.227 224.426 264.387 230.914C267.59 234.28 271.861 237.893 277.281 241.835C282.702 245.777 286.48 248.979 288.534 251.443C290.587 253.906 291.655 256.616 291.655 259.572C291.655 262.2 290.669 263.925 288.698 264.746C288.698 268.277 288.041 271.644 287.712 275.257C289.437 275.585 291.08 275.749 292.558 275.749L290.916 277.802L297.404 274.846C301.346 273.286 303.318 269.755 303.318 264.417C303.4 261.215 302.661 257.848 301.182 254.645Z" fill="url(#paint12_radial)"/>
<path opacity="0.4" d="M267.918 213.176C268.411 212.437 269.15 211.862 270.136 211.534C272.271 210.795 275.228 211.205 279.006 212.848C283.113 214.572 286.234 216.954 288.452 219.828C290.341 222.373 291.408 225.083 291.655 227.957C291.737 228.778 292.394 229.764 293.215 230.092L295.104 230.914L296.008 236.744L302.743 233.706C303.071 233.541 303.318 233.131 303.236 232.556C302.989 229.271 301.921 225.904 300.197 222.455C298.143 218.35 295.186 214.736 291.573 211.452C289.437 209.563 287.137 207.839 284.591 206.36C283.852 205.95 283.277 205.047 283.277 204.308V197.245C283.277 196.26 282.538 195.193 281.552 194.782L274.982 191.99C274.571 191.826 274.16 191.826 273.832 191.908L267.097 194.946L273.175 197.656V200.284C273.175 201.023 272.682 201.433 271.943 201.269C270.875 201.023 269.889 200.859 268.904 200.776C269.315 202.665 269.972 204.472 268.74 205.704C266.604 206.607 264.469 207.428 262.251 208.003C264.879 209.07 266.604 210.877 267.918 213.176Z" fill="url(#paint13_radial)"/>
<g opacity="0.4">
<path opacity="0.4" d="M289.684 264.417C289.355 264.664 289.027 264.828 288.616 264.992C286.563 265.731 283.524 265.321 279.417 263.596C274.735 261.625 271.122 258.998 268.575 255.877C266.358 253.167 265.126 250.129 264.879 246.926C264.879 246.598 264.715 246.269 264.551 245.941L255.106 249.965C255.516 250.95 256.009 252.018 256.584 253.003C258.884 257.109 262.005 260.968 266.111 264.499C268 266.142 269.972 267.62 272.025 268.934C272.764 269.426 273.339 270.33 273.339 271.069V278.459C273.339 278.788 273.421 279.198 273.668 279.527L283.441 275.339C283.606 274.846 284.099 274.682 284.756 274.764L289.766 272.629V264.417H289.684Z" fill="url(#paint14_radial)"/>
</g>
<g opacity="0.4">
<path opacity="0.4" d="M273.257 200.037L282.867 195.932C282.538 195.439 282.127 195.028 281.552 194.782L274.982 191.99C274.571 191.826 274.16 191.826 273.832 191.908L267.097 194.946L273.175 197.656V200.037H273.257Z" fill="url(#paint15_radial)"/>
</g>
<path opacity="0.4" d="M294.447 257.684C292.969 254.481 290.669 251.196 287.466 247.912C284.263 244.545 280.074 241.014 274.9 237.237C269.643 233.459 265.947 230.257 263.647 227.629C261.348 225.001 260.198 222.455 260.198 219.992C260.198 217.036 261.266 215.229 263.401 214.49C265.536 213.751 268.493 214.162 272.271 215.804C276.378 217.528 279.499 219.91 281.717 222.784C283.606 225.33 284.673 228.039 284.92 230.914C285.002 231.735 285.659 232.72 286.48 233.049L294.858 236.58C295.844 236.99 296.583 236.497 296.501 235.512C296.254 232.227 295.187 228.861 293.462 225.412C291.408 221.306 288.452 217.693 284.838 214.408C282.702 212.519 280.403 210.795 277.856 209.317C277.117 208.906 276.542 208.003 276.542 207.264V200.202C276.542 199.216 275.803 198.149 274.818 197.738L268.247 194.946C267.261 194.536 266.522 194.946 266.522 195.932V203.24C266.522 203.979 266.029 204.39 265.29 204.225C261.348 203.404 257.98 203.404 255.106 204.472C250.67 206.114 248.453 209.645 248.453 215.065C248.453 221.224 251.492 227.547 257.652 234.034C260.855 237.401 265.126 241.014 270.547 244.956C275.967 248.897 279.745 252.1 281.799 254.563C283.852 257.027 284.92 259.737 284.92 262.693C284.92 265.403 283.934 267.127 281.881 267.948C279.828 268.687 276.789 268.277 272.682 266.552C268 264.582 264.387 261.954 261.84 258.833C259.623 256.124 258.391 253.085 258.144 249.883C258.062 248.979 257.323 248.076 256.502 247.665L248.206 244.134C247.221 243.724 246.399 244.217 246.482 245.284C246.81 248.815 247.878 252.428 249.767 255.877C252.067 259.983 255.188 263.843 259.294 267.374C261.183 269.016 263.155 270.494 265.208 271.808C265.947 272.301 266.522 273.204 266.522 273.943V281.333C266.522 282.155 267.179 283.058 268 283.469L275.064 286.425C275.885 286.753 276.542 286.425 276.542 285.604V278.706C276.542 277.885 277.199 277.474 278.021 277.72C282.949 279.198 287.055 279.363 290.259 278.295C294.529 276.817 296.665 273.286 296.665 267.702C296.665 264.171 295.926 260.886 294.447 257.684Z" fill="url(#paint16_radial)"/>
</g>
</g>
</g>
<path d="M335.76 80.3106L324.015 75.3015C321.962 74.3982 321.962 73.0022 324.015 72.181C326.069 71.2777 329.354 71.2777 331.407 72.181L343.152 77.1901C345.206 78.0934 345.206 79.4894 343.152 80.3106C341.099 81.2139 337.814 81.2139 335.76 80.3106Z" fill="#528CE2"/>
<path opacity="0.8" d="M319.991 249.718C423.277 249.718 507.008 214.203 507.008 170.393C507.008 126.583 423.277 91.0679 319.991 91.0679C216.704 91.0679 132.974 126.583 132.974 170.393C132.974 214.203 216.704 249.718 319.991 249.718Z" fill="url(#paint17_radial)"/>
<path d="M371.817 113.24C371.817 71.8525 338.224 24.0603 296.829 6.48725C277.774 -1.56023 260.444 -1.8887 247.221 4.18797L224.141 14.1241L233.094 14.9453C225.948 23.4034 221.842 35.1461 221.842 49.6809C221.842 91.068 255.434 138.86 296.829 156.433C307.26 160.868 317.198 162.92 326.233 162.92L322.537 168.997L344.713 159.472C361.304 152.656 371.817 136.397 371.817 113.24Z" fill="url(#paint18_radial)"/>
<path d="M349.887 122.601C349.887 163.988 316.295 183.286 274.9 165.712C233.505 148.139 199.912 100.347 199.912 58.9601C199.912 17.5731 233.505 -1.72446 274.9 15.8486C316.295 33.4217 349.887 81.2139 349.887 122.601Z" fill="url(#paint19_radial)"/>
<path d="M360.564 118.167C360.564 159.554 326.972 178.851 285.577 161.278C244.182 143.705 210.589 95.9129 210.589 54.5258C210.589 13.1387 244.182 -6.1588 285.577 11.4143C326.972 28.9874 360.564 76.7796 360.564 118.167Z" fill="url(#paint20_radial)"/>
<path d="M348.655 123.176C348.655 164.563 315.063 183.86 273.668 166.287C232.272 148.714 198.762 100.922 198.762 59.535C198.762 18.1479 232.272 -1.14964 273.668 16.4234C315.063 33.9965 348.655 81.7887 348.655 123.176Z" fill="url(#paint21_radial)"/>
<path d="M334.939 117.345C334.939 151.178 307.506 166.944 273.668 152.574C239.829 138.203 212.396 99.1154 212.396 65.2831C212.396 31.4509 239.829 15.6844 273.668 30.0549C307.506 44.4254 334.939 83.5131 334.939 117.345Z" fill="url(#paint22_radial)"/>
<path d="M281.306 146.908C247.467 132.537 220.035 93.4494 220.035 59.6171C220.035 46.6426 224.059 36.2958 230.958 29.3158C219.542 35.5567 212.396 48.1207 212.396 65.2832C212.396 99.1154 239.829 138.203 273.668 152.574C294.529 161.442 312.927 158.815 324.015 147.565C313.009 153.723 297.897 153.97 281.306 146.908Z" fill="url(#paint23_radial)"/>
<path d="M274.982 151.588C241.143 137.218 213.71 98.13 213.71 64.2977C213.71 50.4199 218.31 39.6626 226.112 32.6826C217.571 39.5805 212.478 50.8305 212.478 65.3653C212.478 99.1975 239.911 138.285 273.75 152.656C293.626 161.114 311.285 159.143 322.455 149.207C311.12 158.158 294.119 159.636 274.982 151.588Z" fill="url(#paint24_radial)"/>
<path d="M268.822 54.3616C270.136 53.0477 269.397 51.3232 268.986 49.4345C266.358 49.1882 263.976 49.4345 261.84 50.1736C261.594 50.2557 261.43 50.3378 261.265 50.4199L261.101 50.5021H261.019L254.12 53.6225L256.584 54.6079C256.091 55.5112 255.762 56.4966 255.598 57.5641C260.033 57.6462 264.551 56.2503 268.822 54.3616Z" fill="url(#paint25_radial)"/>
<path d="M288.616 113.65C286.562 114.389 283.523 113.979 279.417 112.254C274.735 110.283 271.121 107.656 268.575 104.535C266.358 101.825 265.126 98.787 264.879 95.5844C264.797 94.6811 264.058 93.7778 263.237 93.3672L254.941 89.8362C254.53 89.672 254.12 89.672 253.791 89.8362L247.056 92.8745L254.038 95.6665C254.613 97.7194 255.434 99.6902 256.502 101.661C258.801 105.767 261.922 109.626 266.029 113.157C267.918 114.8 269.889 116.278 271.943 117.592C272.682 118.084 273.257 118.988 273.257 119.727V127.117C273.257 127.939 273.914 128.842 274.735 129.252L275.639 129.663L276.049 135.329L282.784 132.291C283.113 132.127 283.277 131.88 283.277 131.387V124.49C283.277 123.668 283.934 123.258 284.755 123.504C285.823 123.833 286.809 124.079 287.794 124.243C288.041 120.63 288.78 117.263 288.78 113.732C288.698 113.568 288.698 113.65 288.616 113.65Z" fill="url(#paint26_radial)"/>
<path d="M301.182 103.303C299.704 100.101 297.404 96.8161 294.201 93.5315C290.998 90.1647 286.809 86.6336 281.634 82.8562C276.378 79.0788 272.682 75.8763 270.382 73.2485C268.082 70.6208 266.933 68.1572 266.933 65.6937C266.933 64.0514 267.261 62.8196 267.918 61.8342C266.686 59.5349 264.879 57.7284 262.333 56.6608C260.116 57.2357 257.816 57.5641 255.516 57.5641C255.352 58.5495 255.188 59.5349 255.188 60.6846C255.188 66.8434 258.227 73.1664 264.386 79.6537C267.59 83.0205 271.861 86.6336 277.281 90.5752C282.702 94.5169 286.48 97.7194 288.534 100.183C290.587 102.646 291.655 105.356 291.655 108.313C291.655 110.94 290.669 112.665 288.698 113.486C288.698 117.017 288.041 120.384 287.712 123.997C289.437 124.325 291.08 124.49 292.558 124.49L290.916 126.543L297.404 123.586C301.346 122.026 303.318 118.495 303.318 113.157C303.4 109.791 302.661 106.506 301.182 103.303Z" fill="url(#paint27_radial)"/>
<path d="M267.918 61.8342C268.411 61.0952 269.15 60.5204 270.136 60.1919C272.271 59.4528 275.228 59.8634 279.006 61.5058C283.113 63.2302 286.234 65.6116 288.451 68.4857C290.341 71.0314 291.408 73.7412 291.655 76.6153C291.737 77.4365 292.394 78.4219 293.215 78.7504L295.104 79.5715L296.008 85.4019L302.743 82.3635C303.071 82.1993 303.318 81.7887 303.235 81.2139C302.989 77.9292 301.921 74.5624 300.197 71.1135C298.143 67.0076 295.186 63.3944 291.573 60.1098C289.437 58.2211 287.137 56.4966 284.591 55.0185C283.852 54.6079 283.277 53.7046 283.277 52.9656V45.9035C283.277 44.9181 282.538 43.8506 281.552 43.44L274.982 40.648C274.571 40.4838 274.16 40.4838 273.832 40.5659L267.097 43.6042L273.175 46.3141V48.9418C273.175 49.6809 272.682 50.0915 271.943 49.9272C270.875 49.6809 269.889 49.5166 268.904 49.4345C269.314 51.3232 269.972 53.1298 268.74 54.3616C266.604 55.2648 264.469 56.086 262.251 56.6608C264.879 57.6462 266.604 59.5349 267.918 61.8342Z" fill="url(#paint28_radial)"/>
<path d="M289.684 113.075C289.355 113.322 289.026 113.486 288.616 113.65C286.562 114.389 283.524 113.979 279.417 112.254C274.735 110.283 271.121 107.656 268.575 104.535C266.358 101.825 265.126 98.7869 264.879 95.5844C264.879 95.2559 264.715 94.9274 264.551 94.599L255.105 98.6227C255.516 99.6081 256.009 100.676 256.584 101.661C258.884 105.767 262.005 109.626 266.111 113.157C268 114.8 269.972 116.278 272.025 117.592C272.764 118.084 273.339 118.988 273.339 119.727V127.117C273.339 127.446 273.421 127.856 273.668 128.185L283.441 123.997C283.606 123.504 284.098 123.34 284.756 123.422L289.766 121.287V113.075H289.684Z" fill="url(#paint29_radial)"/>
<path d="M273.257 48.6955L282.866 44.5896C282.538 44.0969 282.127 43.6863 281.552 43.44L274.982 40.648C274.571 40.4838 274.16 40.4838 273.832 40.5659L267.097 43.6042L273.175 46.3141V48.6955H273.257Z" fill="url(#paint30_radial)"/>
<path d="M294.447 106.342C292.969 103.139 290.669 99.8545 287.466 96.5698C284.263 93.203 280.074 89.672 274.9 85.8946C269.643 82.1172 265.947 78.9146 263.647 76.2869C261.348 73.6591 260.198 71.1135 260.198 68.6499C260.198 65.6937 261.265 63.8872 263.401 63.1481C265.536 62.409 268.493 62.8196 272.271 64.462C276.378 66.1864 279.499 68.5678 281.717 71.4419C283.606 73.9876 284.673 76.6974 284.92 79.5715C285.002 80.3927 285.659 81.3781 286.48 81.7066L294.858 85.2376C295.843 85.6482 296.583 85.1555 296.501 84.1701C296.254 80.8854 295.186 77.5186 293.462 74.0697C291.408 69.9638 288.451 66.3507 284.838 63.066C282.702 61.1773 280.402 59.4528 277.856 57.9747C277.117 57.5641 276.542 56.6608 276.542 55.9218V48.8597C276.542 47.8743 275.803 46.8068 274.817 46.3962L268.247 43.6042C267.261 43.1936 266.522 43.6042 266.522 44.5896V51.898C266.522 52.6371 266.029 53.0477 265.29 52.8835C261.348 52.0623 257.98 52.0623 255.105 53.1298C250.67 54.7721 248.453 58.3032 248.453 63.7229C248.453 69.8817 251.492 76.2047 257.652 82.692C260.855 86.0588 265.126 89.672 270.546 93.6136C275.967 97.5552 279.745 100.758 281.799 103.221C283.852 105.685 284.92 108.395 284.92 111.351C284.92 114.061 283.934 115.785 281.881 116.606C279.828 117.345 276.789 116.935 272.682 115.21C268 113.24 264.386 110.612 261.84 107.491C259.623 104.782 258.391 101.743 258.144 98.5406C258.062 97.6373 257.323 96.734 256.502 96.3234L248.206 92.7924C247.221 92.3818 246.399 92.8745 246.482 93.942C246.81 97.4731 247.878 101.086 249.767 104.535C252.067 108.641 255.188 112.501 259.294 116.032C261.183 117.674 263.155 119.152 265.208 120.466C265.947 120.959 266.522 121.862 266.522 122.601V129.992C266.522 130.813 267.179 131.716 268 132.127L275.064 135.083C275.885 135.411 276.542 135.083 276.542 134.262V127.364C276.542 126.543 277.199 126.132 278.021 126.378C282.949 127.856 287.055 128.021 290.258 126.953C294.529 125.475 296.665 121.944 296.665 116.36C296.665 112.829 295.926 109.544 294.447 106.342Z" fill="url(#paint31_radial)"/>
<path d="M293.462 253.824L290.833 254.892C290.341 255.138 289.519 255.138 289.026 254.892L253.463 239.782C252.97 239.536 252.97 239.207 253.463 239.043L256.091 237.976C256.584 237.729 257.405 237.729 257.898 237.976L293.544 253.085C293.954 253.249 293.954 253.578 293.462 253.824Z" fill="#F9F9F9"/>
<path d="M307.424 247.912L299.622 251.196C299.129 251.443 298.307 251.443 297.815 251.196L262.169 236.087C261.676 235.841 261.676 235.512 262.169 235.348L269.972 232.063C270.464 231.817 271.286 231.817 271.778 232.063L307.424 247.173C307.917 247.337 307.917 247.665 307.424 247.912Z" fill="#F9F9F9"/>
<path d="M313.995 245.12L313.009 245.53C312.517 245.777 311.695 245.777 311.202 245.53L275.557 230.421C275.064 230.174 275.064 229.846 275.557 229.682L276.542 229.271C277.035 229.025 277.856 229.025 278.349 229.271L313.995 244.381C314.488 244.545 314.488 244.873 313.995 245.12Z" fill="#F9F9F9"/>
<path d="M320.319 242.41L319.334 242.821C318.841 243.067 318.019 243.067 317.527 242.821L281.881 227.711C281.388 227.465 281.388 227.136 281.881 226.972L282.866 226.561C283.359 226.315 284.181 226.315 284.673 226.561L320.319 241.671C320.812 241.835 320.812 242.246 320.319 242.41Z" fill="#F9F9F9"/>
<path d="M330.832 237.976L325.658 240.193C325.165 240.439 324.344 240.439 323.851 240.193L288.205 225.001C287.712 224.755 287.712 224.426 288.205 224.262L293.38 222.045C293.872 221.799 294.694 221.799 295.186 222.045L330.832 237.154C331.325 237.401 331.325 237.729 330.832 237.976Z" fill="#F9F9F9"/>
<path d="M352.105 228.943L335.76 235.841C335.267 236.087 334.446 236.087 333.953 235.841L298.307 220.731C297.815 220.485 297.815 220.156 298.307 219.992L314.652 213.094C315.145 212.848 315.966 212.848 316.459 213.094L352.105 228.204C352.597 228.368 352.597 228.696 352.105 228.943Z" fill="#F9F9F9"/>
<path d="M357.772 226.561C357.279 226.808 356.458 226.808 355.965 226.561L320.319 211.452C319.826 211.205 319.826 210.877 320.319 210.713C320.812 210.466 321.633 210.466 322.126 210.713L357.772 225.822C358.265 225.986 358.265 226.315 357.772 226.561Z" fill="#F9F9F9"/>
<path d="M365.41 223.277L362.453 224.508C361.961 224.755 361.139 224.755 360.647 224.508L325.083 209.399C324.59 209.152 324.59 208.824 325.083 208.66L328.04 207.428C328.532 207.182 329.354 207.182 329.847 207.428L365.492 222.538C365.903 222.702 365.903 223.03 365.41 223.277Z" fill="#F9F9F9"/>
<path d="M371.735 220.567L370.585 221.059C370.092 221.306 369.271 221.306 368.778 221.059L333.132 205.95C332.639 205.704 332.639 205.375 333.132 205.211L334.282 204.718C334.775 204.472 335.596 204.472 336.089 204.718L371.735 219.828C372.227 220.074 372.227 220.403 371.735 220.567Z" fill="#F9F9F9"/>
<path d="M382.33 216.05L377.566 218.103C377.073 218.35 376.252 218.35 375.759 218.103L340.113 202.994C339.62 202.747 339.62 202.419 340.113 202.255L344.877 200.202C345.37 199.955 346.191 199.955 346.684 200.202L382.33 215.311C382.823 215.558 382.823 215.886 382.33 216.05Z" fill="#F9F9F9"/>
<path d="M388.818 213.34L388.079 213.669C387.586 213.915 386.765 213.915 386.272 213.669L350.708 198.559C350.216 198.313 350.216 197.985 350.708 197.82L351.448 197.492C351.94 197.245 352.762 197.245 353.255 197.492L388.9 212.601C389.311 212.766 389.311 213.176 388.818 213.34Z" fill="#F9F9F9"/>
<path d="M394.814 210.795L394.075 211.123C393.582 211.37 392.761 211.37 392.268 211.123L356.622 196.014C356.129 195.767 356.129 195.439 356.622 195.275L357.361 194.946C357.854 194.7 358.675 194.7 359.168 194.946L394.814 210.056C395.307 210.22 395.307 210.549 394.814 210.795Z" fill="#F9F9F9"/>
<path d="M452.307 186.406L451.568 186.734C451.075 186.981 450.254 186.981 449.761 186.734L414.115 171.625C413.622 171.379 413.622 171.05 414.115 170.886L414.854 170.557C415.347 170.311 416.169 170.311 416.661 170.557L452.307 185.667C452.8 185.831 452.8 186.16 452.307 186.406Z" fill="#F9F9F9"/>
<path d="M445.819 189.198L400.645 208.413C400.153 208.66 399.331 208.66 398.838 208.413L363.193 193.304C362.7 193.057 362.7 192.729 363.193 192.565L408.366 173.349C408.859 173.103 409.68 173.103 410.173 173.349L445.819 188.459C446.311 188.623 446.311 188.952 445.819 189.198Z" fill="#F9F9F9"/>
<path d="M110.058 161.771L103.323 164.645L121.886 172.528L118.19 174.088L99.6275 166.205L92.9747 168.997L89.9358 167.683L107.019 160.457L110.058 161.771Z" fill="#F9F9F9"/>
<path d="M135.355 166.78L131.659 168.34L110.058 159.225L113.754 157.665L135.355 166.78Z" fill="#F9F9F9"/>
<path d="M149.4 154.873C151.454 155.941 152.439 157.09 152.275 158.24C152.111 159.389 150.796 160.539 148.332 161.607C146.608 162.346 144.719 162.838 142.583 163.003C140.448 163.167 138.312 163.167 136.095 162.838C133.877 162.51 131.742 161.935 129.77 161.114L127.717 160.293C125.664 159.389 124.267 158.486 123.446 157.583C122.625 156.68 122.461 155.694 122.953 154.709C123.446 153.805 124.596 152.902 126.403 152.163C128.785 151.178 131.331 150.603 134.123 150.521C136.834 150.439 139.544 150.849 142.172 151.753L138.476 153.313C136.752 152.738 135.191 152.409 133.795 152.492C132.399 152.574 131.002 152.82 129.606 153.395C127.963 154.052 127.306 154.873 127.635 155.776C127.963 156.68 129.278 157.583 131.577 158.568L133.466 159.389C135.766 160.375 137.984 160.95 140.037 161.114C142.09 161.278 143.897 161.032 145.54 160.375C147.018 159.718 147.758 159.143 147.84 158.568C147.922 157.993 147.265 157.336 145.951 156.597L149.4 154.873Z" fill="#F9F9F9"/>
<path d="M156.71 149.864L156.874 151.999L163.609 154.873L159.831 156.433L138.23 147.236L142.008 145.676L152.111 149.946L151.618 147.975L150.386 142.063L154.903 140.174L156.464 147.647L176.997 149.125L172.562 151.013L156.71 149.864Z" fill="#F9F9F9"/>
<path d="M181.925 138.86L173.054 142.638L179.707 145.43L190.056 140.995L193.013 142.227L178.886 148.221L157.285 139.024L171.33 133.112L174.369 134.426L164.102 138.778L170.098 141.324L178.968 137.546L181.925 138.86Z" fill="#F9F9F9"/>
<path d="M193.424 126.378L186.689 129.252L205.251 137.136L201.555 138.696L182.993 130.813L176.34 133.605L173.301 132.291L190.385 125.064L193.424 126.378Z" fill="#F9F9F9"/>
<path d="M134.616 181.561C135.93 182.136 136.67 182.629 136.834 183.121C136.998 183.614 136.587 184.107 135.602 184.517C134.616 184.928 133.548 185.092 132.399 185.01C131.249 184.928 130.017 184.682 128.703 184.107L127.142 183.45C125.828 182.875 125.089 182.382 124.924 181.89C124.76 181.397 125.171 180.904 126.156 180.494C127.142 180.083 128.21 179.919 129.36 179.919C130.51 180.001 131.742 180.247 132.974 180.822L134.616 181.561ZM131.413 181.479C130.592 181.15 129.77 180.904 129.195 180.822C128.538 180.74 127.963 180.822 127.471 181.068C126.978 181.315 126.814 181.479 126.978 181.807C127.142 182.136 127.553 182.382 128.374 182.711L130.427 183.614C131.249 183.942 132.07 184.189 132.727 184.271C133.384 184.353 133.959 184.271 134.452 184.025C134.945 183.778 135.109 183.614 134.945 183.286C134.78 183.039 134.288 182.711 133.466 182.382L131.413 181.479Z" fill="#F9F9F9"/>
<path d="M141.926 178.441C143.24 179.015 143.979 179.508 144.144 180.001C144.308 180.494 143.897 180.986 142.912 181.397C141.926 181.807 140.858 181.972 139.708 181.89C138.559 181.807 137.327 181.561 136.012 180.986L134.452 180.329C133.138 179.755 132.399 179.262 132.234 178.769C132.07 178.276 132.481 177.784 133.466 177.373C134.452 176.963 135.52 176.798 136.67 176.798C137.819 176.88 139.051 177.127 140.283 177.702L141.926 178.441ZM138.723 178.441C137.902 178.112 137.08 177.866 136.505 177.784C135.848 177.702 135.273 177.784 134.78 178.03C134.288 178.276 134.123 178.441 134.288 178.769C134.452 179.098 134.863 179.344 135.684 179.672L137.737 180.576C138.559 180.904 139.38 181.151 140.037 181.233C140.694 181.315 141.269 181.233 141.762 180.986C142.255 180.74 142.419 180.576 142.255 180.247C142.09 180.001 141.598 179.672 140.776 179.344L138.723 178.441Z" fill="#F9F9F9"/>
<path d="M149.236 175.402C150.55 175.977 151.289 176.47 151.454 176.963C151.618 177.455 151.207 177.948 150.222 178.359C149.236 178.769 148.168 178.933 147.018 178.851C145.868 178.769 144.636 178.523 143.322 177.948L141.762 177.291C140.448 176.716 139.708 176.223 139.544 175.731C139.38 175.238 139.791 174.745 140.776 174.335C141.762 173.924 142.83 173.76 143.979 173.76C145.129 173.842 146.361 174.088 147.593 174.663L149.236 175.402ZM146.033 175.32C145.211 174.992 144.39 174.745 143.815 174.663C143.158 174.581 142.583 174.663 142.09 174.91C141.598 175.156 141.433 175.32 141.598 175.649C141.762 175.895 142.172 176.223 142.994 176.552L145.047 177.455C145.868 177.784 146.69 178.03 147.347 178.112C148.004 178.194 148.579 178.112 149.072 177.866C149.564 177.619 149.729 177.455 149.564 177.127C149.4 176.88 148.907 176.552 148.086 176.223L146.033 175.32Z" fill="#F9F9F9"/>
<path d="M156.546 172.282C157.86 172.857 158.599 173.349 158.763 173.842C158.928 174.335 158.517 174.827 157.531 175.238C156.546 175.649 155.478 175.813 154.328 175.731C153.178 175.649 151.946 175.402 150.632 174.827L149.072 174.171C147.757 173.596 147.018 173.103 146.854 172.61C146.69 172.118 147.1 171.625 148.086 171.214C149.072 170.804 150.139 170.639 151.289 170.639C152.439 170.722 153.671 170.968 154.903 171.543L156.546 172.282ZM153.342 172.2C152.521 171.871 151.7 171.625 151.125 171.543C150.468 171.461 149.893 171.543 149.4 171.789C148.907 172.035 148.743 172.2 148.907 172.528C149.072 172.857 149.482 173.103 150.304 173.431L152.357 174.335C153.178 174.663 154 174.91 154.657 174.992C155.314 175.074 155.889 174.992 156.381 174.745C156.874 174.499 157.038 174.335 156.874 174.006C156.71 173.76 156.217 173.431 155.396 173.103L153.342 172.2Z" fill="#F9F9F9"/>
<path d="M163.856 169.161C165.17 169.736 165.909 170.229 166.073 170.722C166.237 171.214 165.827 171.707 164.841 172.118C163.856 172.528 162.788 172.692 161.638 172.61C160.488 172.528 159.256 172.282 157.942 171.707L156.381 171.05C155.067 170.475 154.328 169.983 154.164 169.49C154 168.997 154.41 168.504 155.396 168.094C156.381 167.683 157.449 167.519 158.599 167.519C159.749 167.601 160.981 167.848 162.213 168.422L163.856 169.161ZM160.652 169.079C159.831 168.751 159.01 168.504 158.435 168.422C157.778 168.34 157.203 168.422 156.71 168.669C156.217 168.915 156.053 169.079 156.217 169.408C156.381 169.654 156.792 169.983 157.613 170.311L159.667 171.214C160.488 171.543 161.309 171.789 161.966 171.871C162.624 171.953 163.198 171.871 163.691 171.625C164.184 171.379 164.348 171.214 164.184 170.886C164.02 170.64 163.527 170.311 162.706 169.983L160.652 169.079Z" fill="#F9F9F9"/>
<path d="M171.165 166.041C172.48 166.616 173.219 167.108 173.383 167.601C173.547 168.094 173.137 168.587 172.151 168.997C171.165 169.408 170.098 169.572 168.948 169.49C167.798 169.408 166.566 169.161 165.252 168.587L163.691 167.93C162.377 167.355 161.638 166.862 161.474 166.369C161.309 165.877 161.72 165.384 162.706 164.973C163.691 164.563 164.759 164.399 165.909 164.399C167.059 164.399 168.291 164.727 169.523 165.302L171.165 166.041ZM167.962 166.041C167.141 165.712 166.32 165.466 165.745 165.384C165.088 165.302 164.513 165.384 164.02 165.63C163.527 165.877 163.363 166.041 163.527 166.369C163.691 166.616 164.102 166.944 164.923 167.273L166.977 168.176C167.798 168.504 168.619 168.751 169.276 168.833C169.933 168.915 170.508 168.833 171.001 168.587C171.494 168.34 171.658 168.176 171.494 167.848C171.33 167.601 170.837 167.273 170.016 166.944L167.962 166.041Z" fill="#F9F9F9"/>
<path d="M178.475 163.003C179.789 163.577 180.529 164.07 180.693 164.563C180.857 165.056 180.446 165.548 179.461 165.959C178.475 166.369 177.408 166.534 176.258 166.452C175.108 166.369 173.876 166.123 172.562 165.548L171.001 164.891C169.687 164.316 168.948 163.824 168.784 163.331C168.619 162.838 169.03 162.346 170.016 161.935C171.001 161.525 172.069 161.36 173.219 161.36C174.369 161.442 175.601 161.689 176.833 162.264L178.475 163.003ZM175.272 162.92C174.451 162.592 173.629 162.346 173.055 162.264C172.397 162.181 171.823 162.264 171.33 162.51C170.837 162.756 170.673 162.921 170.837 163.249C171.001 163.577 171.412 163.824 172.233 164.152L174.287 165.056C175.108 165.384 175.929 165.63 176.586 165.712C177.243 165.795 177.818 165.712 178.311 165.466C178.804 165.22 178.968 165.056 178.804 164.727C178.64 164.481 178.147 164.152 177.325 163.824L175.272 162.92Z" fill="#F9F9F9"/>
<path d="M185.785 159.882C187.099 160.457 187.838 160.95 188.003 161.442C188.167 161.935 187.756 162.428 186.771 162.838C185.785 163.249 184.717 163.413 183.568 163.331C182.418 163.249 181.186 163.003 179.872 162.428L178.311 161.771C176.997 161.196 176.258 160.703 176.093 160.211C175.929 159.718 176.34 159.225 177.325 158.815C178.311 158.404 179.379 158.24 180.529 158.24C181.679 158.322 182.91 158.568 184.142 159.143L185.785 159.882ZM182.582 159.8C181.761 159.472 180.939 159.225 180.364 159.143C179.707 159.061 179.132 159.143 178.64 159.389C178.147 159.636 177.983 159.8 178.147 160.128C178.311 160.375 178.722 160.703 179.543 161.032L181.596 161.935C182.418 162.264 183.239 162.51 183.896 162.592C184.553 162.674 185.128 162.592 185.621 162.346C186.114 162.099 186.278 161.935 186.114 161.607C185.949 161.36 185.457 161.032 184.635 160.703L182.582 159.8Z" fill="#F9F9F9"/>
<path d="M193.095 156.762C194.409 157.337 195.148 157.829 195.313 158.322C195.477 158.815 195.066 159.307 194.081 159.718C193.095 160.129 192.027 160.293 190.877 160.211C189.727 160.129 188.495 159.882 187.181 159.307L185.621 158.65C184.307 158.076 183.567 157.583 183.403 157.09C183.239 156.597 183.65 156.105 184.635 155.694C185.621 155.284 186.689 155.119 187.838 155.119C188.988 155.119 190.22 155.448 191.452 156.023L193.095 156.762ZM189.81 156.68C188.988 156.351 188.167 156.105 187.592 156.023C186.935 155.941 186.36 156.023 185.867 156.269C185.374 156.515 185.21 156.68 185.374 157.008C185.539 157.254 185.949 157.583 186.771 157.911L188.824 158.815C189.645 159.143 190.467 159.389 191.124 159.472C191.781 159.554 192.356 159.472 192.849 159.225C193.341 158.979 193.506 158.815 193.341 158.486C193.177 158.24 192.684 157.911 191.863 157.583L189.81 156.68Z" fill="#F9F9F9"/>
<path d="M202.376 156.105L200.898 156.762L193.588 153.641L192.109 154.955L190.795 154.38L193.013 152.327L193.177 152.245L202.376 156.105Z" fill="#F9F9F9"/>
<defs>
<radialGradient id="paint0_radial" cx="0" cy="0" r="1" gradientUnits="userSpaceOnUse" gradientTransform="translate(88.8412 135.93) rotate(22.9972) scale(710.656 511.155)">
<stop stop-color="#F9F9F9" stop-opacity="0"/>
<stop offset="1" stop-color="#E0E0E0"/>
</radialGradient>
<radialGradient id="paint1_radial" cx="0" cy="0" r="1" gradientUnits="userSpaceOnUse" gradientTransform="translate(-90.7661 -276.894) scale(592.107 591.992)">
<stop stop-color="#88C4FF"/>
<stop offset="1" stop-color="#3A72C9"/>
</radialGradient>
<radialGradient id="paint2_radial" cx="0" cy="0" r="1" gradientUnits="userSpaceOnUse" gradientTransform="translate(231.647 301.07) scale(243.141 243.093)">
<stop stop-color="#C7E6FF"/>
<stop offset="1" stop-color="#5A9FF4"/>
</radialGradient>
<radialGradient id="paint3_radial" cx="0" cy="0" r="1" gradientUnits="userSpaceOnUse" gradientTransform="translate(37.7333 111.457) rotate(22.9972) scale(1451.09 1043.73)">
<stop stop-color="#88C4FF"/>
<stop offset="1" stop-color="#5A9FF4"/>
</radialGradient>
<radialGradient id="paint4_radial" cx="0" cy="0" r="1" gradientUnits="userSpaceOnUse" gradientTransform="translate(240.158 159.123) scale(197.018 196.979)">
<stop stop-color="#FFC476"/>
<stop offset="1" stop-color="#EF5316"/>
</radialGradient>
<radialGradient id="paint5_radial" cx="0" cy="0" r="1" gradientUnits="userSpaceOnUse" gradientTransform="translate(333.027 214.941) rotate(22.9972) scale(228.866 193.895)">
<stop stop-color="#FFC476"/>
<stop offset="1" stop-color="#FF9B48" stop-opacity="0"/>
</radialGradient>
<radialGradient id="paint6_radial" cx="0" cy="0" r="1" gradientUnits="userSpaceOnUse" gradientTransform="translate(199.333 196.324) rotate(22.9972) scale(370.157 313.597)">
<stop stop-color="#FFC476"/>
<stop offset="1" stop-color="#EF5316"/>
</radialGradient>
<radialGradient id="paint7_radial" cx="0" cy="0" r="1" gradientUnits="userSpaceOnUse" gradientTransform="translate(125.862 -74.9402) rotate(22.9972) scale(545.288 461.968)">
<stop stop-color="#FFC476"/>
<stop offset="1" stop-color="#EF5316"/>
</radialGradient>
<radialGradient id="paint8_radial" cx="0" cy="0" r="1" gradientUnits="userSpaceOnUse" gradientTransform="translate(337.486 160.111) scale(162.235 162.203)">
<stop stop-color="#FFC476"/>
<stop offset="1" stop-color="#EF5316"/>
</radialGradient>
<radialGradient id="paint9_radial" cx="0" cy="0" r="1" gradientUnits="userSpaceOnUse" gradientTransform="translate(241.187 278.763) scale(158.885 158.854)">
<stop stop-color="#FFC476"/>
<stop offset="1" stop-color="#FF9B48" stop-opacity="0"/>
</radialGradient>
<radialGradient id="paint10_radial" cx="0" cy="0" r="1" gradientUnits="userSpaceOnUse" gradientTransform="translate(255.497 199.284) scale(19.3686 19.3648)">
<stop stop-color="#FFC476"/>
<stop offset="1" stop-color="#EF5316"/>
</radialGradient>
<radialGradient id="paint11_radial" cx="0" cy="0" r="1" gradientUnits="userSpaceOnUse" gradientTransform="translate(240.523 229.692) scale(54.725 54.7143)">
<stop stop-color="#FFC476"/>
<stop offset="1" stop-color="#EF5316"/>
</radialGradient>
<radialGradient id="paint12_radial" cx="0" cy="0" r="1" gradientUnits="userSpaceOnUse" gradientTransform="translate(259.179 256.296) scale(30.0209 30.0151)">
<stop stop-color="#FFC476"/>
<stop offset="1" stop-color="#EF5316"/>
</radialGradient>
<radialGradient id="paint13_radial" cx="0" cy="0" r="1" gradientUnits="userSpaceOnUse" gradientTransform="translate(250.618 215) scale(40.5658 40.5579)">
<stop stop-color="#FFC476"/>
<stop offset="1" stop-color="#EF5316"/>
</radialGradient>
<radialGradient id="paint14_radial" cx="0" cy="0" r="1" gradientUnits="userSpaceOnUse" gradientTransform="translate(323.631 248.852) scale(58.5596 58.5483)">
<stop stop-color="#FFC476"/>
<stop offset="1" stop-color="#EF5316"/>
</radialGradient>
<radialGradient id="paint15_radial" cx="0" cy="0" r="1" gradientUnits="userSpaceOnUse" gradientTransform="translate(266.322 190.836) scale(36.3087 36.3018)">
<stop stop-color="#FFC476"/>
<stop offset="1" stop-color="#EF5316"/>
</radialGradient>
<radialGradient id="paint16_radial" cx="0" cy="0" r="1" gradientUnits="userSpaceOnUse" gradientTransform="translate(245.308 205.421) scale(254.957 254.907)">
<stop stop-color="#FFC476"/>
<stop offset="1" stop-color="#EF5316"/>
</radialGradient>
<radialGradient id="paint17_radial" cx="0" cy="0" r="1" gradientUnits="userSpaceOnUse" gradientTransform="translate(319.95 170.421) rotate(-22.9972) scale(143.633 103.311)">
<stop stop-color="#4C6BDE"/>
<stop offset="1" stop-color="#88C4FF" stop-opacity="0"/>
</radialGradient>
<radialGradient id="paint18_radial" cx="0" cy="0" r="1" gradientUnits="userSpaceOnUse" gradientTransform="translate(240.158 7.75104) scale(197.018 196.979)">
<stop stop-color="#FFC476"/>
<stop offset="1" stop-color="#EF5316"/>
</radialGradient>
<radialGradient id="paint19_radial" cx="0" cy="0" r="1" gradientUnits="userSpaceOnUse" gradientTransform="translate(333.027 63.569) rotate(22.9972) scale(228.866 193.895)">
<stop stop-color="#FFC476"/>
<stop offset="1" stop-color="#FF9B48" stop-opacity="0"/>
</radialGradient>
<radialGradient id="paint20_radial" cx="0" cy="0" r="1" gradientUnits="userSpaceOnUse" gradientTransform="translate(343.716 59.0675) rotate(22.9972) scale(228.866 193.895)">
<stop stop-color="#FFC476"/>
<stop offset="1" stop-color="#FF9B48" stop-opacity="0"/>
</radialGradient>
<radialGradient id="paint21_radial" cx="0" cy="0" r="1" gradientUnits="userSpaceOnUse" gradientTransform="translate(199.333 44.9525) rotate(22.9972) scale(370.157 313.597)">
<stop stop-color="#FFC476"/>
<stop offset="1" stop-color="#EF5316"/>
</radialGradient>
<radialGradient id="paint22_radial" cx="0" cy="0" r="1" gradientUnits="userSpaceOnUse" gradientTransform="translate(125.862 -226.312) rotate(22.9972) scale(545.288 461.968)">
<stop stop-color="#FFC476"/>
<stop offset="1" stop-color="#EF5316"/>
</radialGradient>
<radialGradient id="paint23_radial" cx="0" cy="0" r="1" gradientUnits="userSpaceOnUse" gradientTransform="translate(337.486 8.73942) scale(162.235 162.203)">
<stop stop-color="#FFC476"/>
<stop offset="1" stop-color="#EF5316"/>
</radialGradient>
<radialGradient id="paint24_radial" cx="0" cy="0" r="1" gradientUnits="userSpaceOnUse" gradientTransform="translate(241.187 127.391) scale(158.885 158.854)">
<stop stop-color="#FFC476"/>
<stop offset="1" stop-color="#FF9B48" stop-opacity="0"/>
</radialGradient>
<radialGradient id="paint25_radial" cx="0" cy="0" r="1" gradientUnits="userSpaceOnUse" gradientTransform="translate(255.497 47.9117) scale(19.3686 19.3649)">
<stop stop-color="#FFC476"/>
<stop offset="1" stop-color="#EF5316"/>
</radialGradient>
<radialGradient id="paint26_radial" cx="0" cy="0" r="1" gradientUnits="userSpaceOnUse" gradientTransform="translate(240.522 78.3201) scale(54.725 54.7143)">
<stop stop-color="#FFC476"/>
<stop offset="1" stop-color="#EF5316"/>
</radialGradient>
<radialGradient id="paint27_radial" cx="0" cy="0" r="1" gradientUnits="userSpaceOnUse" gradientTransform="translate(259.179 104.924) scale(30.0209 30.0151)">
<stop stop-color="#FFC476"/>
<stop offset="1" stop-color="#EF5316"/>
</radialGradient>
<radialGradient id="paint28_radial" cx="0" cy="0" r="1" gradientUnits="userSpaceOnUse" gradientTransform="translate(250.618 63.6279) scale(40.5657 40.5578)">
<stop stop-color="#FFC476"/>
<stop offset="1" stop-color="#EF5316"/>
</radialGradient>
<radialGradient id="paint29_radial" cx="0" cy="0" r="1" gradientUnits="userSpaceOnUse" gradientTransform="translate(323.631 97.4805) scale(58.5596 58.5483)">
<stop stop-color="#FFC476"/>
<stop offset="1" stop-color="#EF5316"/>
</radialGradient>
<radialGradient id="paint30_radial" cx="0" cy="0" r="1" gradientUnits="userSpaceOnUse" gradientTransform="translate(266.322 39.464) scale(36.3088 36.3017)">
<stop stop-color="#FFC476"/>
<stop offset="1" stop-color="#EF5316"/>
</radialGradient>
<radialGradient id="paint31_radial" cx="0" cy="0" r="1" gradientUnits="userSpaceOnUse" gradientTransform="translate(245.308 54.0492) scale(254.956 254.907)">
<stop stop-color="#FFC476"/>
<stop offset="1" stop-color="#EF5316"/>
</radialGradient>
</defs>
</svg>
