<svg width="500" height="357" viewBox="0 0 500 357" fill="none" xmlns="http://www.w3.org/2000/svg">
<path d="M119.673 200.428C35.1645 236.274 35.1645 294.29 119.673 330.136C204.181 365.982 341.112 365.982 425.62 330.136C510.128 294.29 510.128 236.274 425.62 200.428C341.112 164.582 204.181 164.582 119.673 200.428ZM381.786 311.525C321.504 337.095 223.789 337.095 163.507 311.525C103.225 285.956 103.225 244.527 163.507 219.039C223.789 193.55 321.504 193.469 381.786 219.039C442.068 244.608 442.068 285.956 381.786 311.525Z" fill="url(#paint0_radial)"/>
<path d="M308.945 107.942V54.1326L273.051 52.838L149.733 72.015L100.308 101.711L46.2648 128.899V160.294C46.2648 160.294 51.3693 158.676 59.3907 156.167C51.7745 165.068 47.2371 174.697 46.2648 184.569C46.1838 185.378 47.8043 186.106 49.7489 186.106H72.7597C73.8941 186.106 74.8663 185.701 74.8663 185.216V184.973C74.8663 184.731 74.5422 184.407 73.9751 184.245C69.8428 182.95 67.5742 180.847 67.8172 178.581C68.2224 175.263 74.7043 172.512 82.5636 172.35C87.3441 172.27 91.8004 173.079 95.0414 174.616C97.148 175.587 98.4444 176.882 98.7685 178.257C99.3356 180.604 97.067 182.869 92.6106 184.245C92.0435 184.407 91.8004 184.65 91.8004 184.892V185.216C91.8004 185.701 92.7727 186.106 93.907 186.106H117.485C119.349 186.106 120.888 185.54 120.969 184.731C125.831 150.908 192.027 124.125 273.051 124.125C274.996 124.125 276.616 123.477 276.616 122.668V112.796C276.616 111.664 278.723 110.774 281.316 110.774H282.045C283.504 110.774 284.8 111.097 285.691 111.583C288.689 113.282 293.47 114.091 298.574 113.687C300.357 113.525 302.058 113.282 303.517 112.796C307.244 111.664 309.188 109.884 308.945 107.942Z" fill="url(#paint1_radial)"/>
<path d="M73.9751 175.102C73.4889 174.94 73.0838 174.778 72.6787 174.616H49.7489C48.2094 174.616 46.994 174.211 46.5079 173.645C46.4269 174.211 46.3458 174.859 46.2648 175.425C46.1838 176.234 47.8043 176.963 49.7489 176.963H72.7597C73.8941 176.963 74.8663 176.558 74.8663 176.073V175.83C74.8663 175.587 74.5422 175.263 73.9751 175.102Z" fill="#3954C4"/>
<path d="M98.6064 168.628C98.8495 167.981 98.9305 167.415 98.7685 166.767C98.4444 165.392 97.148 164.178 95.0414 163.126C91.8814 161.589 87.3441 160.779 82.5636 160.86C74.7043 161.022 68.2224 163.773 67.8172 167.091C67.7362 167.657 67.8173 168.143 68.0603 168.628C69.3567 165.715 75.3525 163.369 82.5636 163.207C87.3441 163.126 91.8004 163.935 95.0414 165.473C96.9049 166.363 98.1203 167.495 98.6064 168.628Z" fill="#3954C4"/>
<path d="M59.3907 144.677C51.3694 147.186 46.2648 148.804 46.2648 148.804V151.15C46.2648 151.15 50.316 149.856 56.879 147.833C57.6892 146.781 58.4995 145.729 59.3907 144.677Z" fill="#3954C4"/>
<path d="M273.051 112.635C192.027 112.635 125.831 139.418 120.969 173.241C120.888 174.05 119.349 174.616 117.485 174.616H93.988C93.5829 174.778 93.0968 174.94 92.6106 175.102C92.0435 175.263 91.8004 175.506 91.8004 175.749V176.073C91.8004 176.558 92.7727 176.963 93.907 176.963H117.485C119.349 176.963 120.888 176.396 120.969 175.587C125.831 141.764 192.027 114.981 273.051 114.981C274.996 114.981 276.616 114.334 276.616 113.525V111.178C276.535 111.987 274.996 112.635 273.051 112.635Z" fill="#3954C4"/>
<path d="M308.945 97.1797C308.702 98.7981 306.757 100.335 303.435 101.306C301.977 101.792 300.276 102.035 298.493 102.197C293.47 102.601 288.608 101.792 285.61 100.093C284.719 99.6072 283.423 99.2836 281.964 99.2836H281.235C278.642 99.2836 276.536 100.174 276.536 101.306V103.653C276.536 102.52 278.642 101.63 281.235 101.63H281.964C283.423 101.63 284.719 101.954 285.61 102.439C288.608 104.138 293.389 104.948 298.493 104.543C300.276 104.381 301.977 104.138 303.435 103.653C307.244 102.52 309.188 100.659 308.945 98.7981V97.1797Z" fill="#3954C4"/>
<path d="M120.888 128.98C120.888 128.98 105.412 114.577 102.82 113.848C100.227 113.12 97.229 111.825 97.229 111.825H80.2949L46.5078 128.818L46.2648 128.98V132.459L120.969 168.547V128.98H120.888Z" fill="url(#paint2_radial)"/>
<path d="M308.945 54.1326L276.616 52.9189V122.668C276.616 122.668 276.616 122.668 276.616 122.587V112.716C276.616 111.583 278.723 110.693 281.316 110.693H282.045C283.503 110.693 284.8 111.016 285.691 111.502C288.689 113.201 293.469 114.01 298.574 113.606C300.356 113.444 302.058 113.201 303.516 112.716C307.325 111.583 309.269 109.722 309.026 107.861V54.1326H308.945Z" fill="url(#paint3_radial)"/>
<path d="M72.7597 132.54C73.8941 132.54 74.8663 132.135 74.8663 131.65V131.407C74.8663 131.164 74.5422 130.841 73.9751 130.679C69.8428 129.384 67.5742 127.28 67.8172 125.015C68.2224 121.697 74.7043 118.946 82.5636 118.784C87.3441 118.703 91.8004 119.512 95.0414 121.05C97.148 122.021 98.4444 123.315 98.7685 124.691C99.3356 127.038 97.067 129.303 92.6106 130.679C92.0435 130.841 91.8004 131.083 91.8004 131.326V131.65C91.8004 132.135 92.7727 132.54 93.907 132.54H117.485C119.349 132.54 120.888 131.973 120.969 131.164C125.831 97.3415 192.027 70.5585 273.051 70.5585C274.996 70.5585 276.616 69.9111 276.616 69.102V59.2303C276.616 58.0974 278.723 57.2074 281.316 57.2074H282.045C283.504 57.2074 284.8 57.531 285.691 58.0165C288.689 59.7158 293.469 60.5249 298.574 60.1203C300.357 59.9585 302.058 59.7158 303.516 59.2303C307.325 58.0974 309.269 56.2364 309.026 54.3753C308.621 52.0288 304.651 50.0059 299.303 49.4395C294.118 48.8731 288.851 49.6822 285.772 51.4624C284.881 51.9478 283.422 52.2715 281.964 52.2715H281.316C278.723 52.2715 276.616 51.3814 276.616 50.2486V40.4578C276.616 39.6487 275.077 39.0013 273.132 39.0013H273.051C150.948 39.0013 51.3693 79.8638 46.2648 131.083C46.1838 131.893 47.8043 132.621 49.7489 132.621H72.7597V132.54Z" fill="url(#paint4_radial)"/>
<path d="M72.7597 130.355C73.8941 130.355 74.8663 129.951 74.8663 129.465V129.222C74.8663 128.98 74.5422 128.656 73.9751 128.494C69.8428 127.199 67.5742 125.096 67.8172 122.83C68.2224 119.512 74.7043 116.761 82.5636 116.6C87.3441 116.519 91.8004 117.328 95.0414 118.865C97.148 119.836 98.4444 121.131 98.7685 122.506C99.3356 124.853 97.067 127.119 92.6106 128.494C92.0435 128.656 91.8004 128.899 91.8004 129.141V129.465C91.8004 129.951 92.7727 130.355 93.907 130.355H117.485C119.349 130.355 120.888 129.789 120.969 128.98C125.831 95.1569 192.027 68.3738 273.051 68.3738C274.996 68.3738 276.616 67.7264 276.616 66.9173V57.0456C276.616 55.9128 278.723 55.0227 281.316 55.0227H282.045C283.504 55.0227 284.8 55.3463 285.691 55.8318C288.689 57.5311 293.469 58.3402 298.574 57.9356C300.357 57.7738 302.058 57.5311 303.516 57.0456C307.325 55.9128 309.269 54.0517 309.026 52.1906C308.621 49.8441 304.651 47.8212 299.303 47.2548C294.118 46.6884 288.851 47.4975 285.772 49.2777C284.881 49.7632 283.422 50.0868 281.964 50.0868H281.316C278.723 50.0868 276.616 49.1968 276.616 48.0639V38.2731C276.616 37.464 275.077 36.8167 273.132 36.8167H273.051C150.948 36.8167 51.3693 77.6791 46.2648 128.899C46.1838 129.708 47.8043 130.436 49.7489 130.436H72.7597V130.355Z" fill="url(#paint5_radial)"/>
<path d="M481.851 141.764L478.853 138.528L471.155 136.586V149.532L479.663 146.053L481.851 141.764Z" fill="url(#paint6_radial)"/>
<path d="M454.221 136.586L441.906 139.984L441.42 145.891L454.221 150.341V136.586Z" fill="url(#paint7_radial)"/>
<path d="M500 96.1279L432.021 55.7509L353.913 26.9449L279.209 28.806V57.2074V66.9982V75.9799V82.2104V86.0134C279.209 86.8226 280.668 87.4699 282.45 87.4699C362.178 89.4928 425.377 117.571 425.377 151.879C425.377 152.688 426.916 153.335 428.861 153.335H452.115C454.708 153.335 456.814 154.225 456.814 155.358V155.682C456.814 156.248 456.166 156.815 454.951 157.219C450.98 158.514 449.036 160.537 450.008 162.641C450.332 163.369 451.061 164.097 452.115 164.744C454.87 166.363 459.083 167.172 463.62 167.091C469.13 166.929 473.91 165.23 475.288 162.964C476.584 160.779 474.639 158.514 470.507 157.219C469.292 156.815 468.563 156.248 468.563 155.601V155.358C468.563 154.225 470.669 153.335 473.262 153.335H496.516C498.461 153.335 500 152.688 500 151.879V101.226V96.1279Z" fill="url(#paint8_radial)"/>
<path d="M425.377 151.879C425.377 152.283 425.782 152.688 426.43 152.931L431.292 153.335H452.115C454.708 153.335 456.814 154.225 456.814 155.358V155.601L469.211 156.653C468.806 156.329 468.563 156.005 468.563 155.682V155.358C468.563 154.225 470.669 153.335 473.262 153.335H496.516C498.461 153.335 500 152.688 500 151.879V101.226V96.0469H425.377V151.879Z" fill="url(#paint9_radial)"/>
<path d="M475.612 106.161V155.844L449.765 153.821V106L475.612 106.161Z" fill="url(#paint10_radial)"/>
<path d="M279.128 11.2473V22.9801C279.128 22.9801 303.435 26.1358 305.461 26.0549C307.487 25.974 313.401 22.4946 313.644 22.4137C313.888 22.3328 314.293 12.7038 314.212 12.542C314.131 12.3801 309.269 8.81984 308.378 8.57709C307.487 8.33434 292.74 5.90687 291.12 5.82596C289.499 5.74504 279.128 11.2473 279.128 11.2473Z" fill="url(#paint11_radial)"/>
<path d="M279.128 13.432C279.128 13.9175 280.1 14.3221 281.235 14.3221H281.883C282.531 14.3221 283.179 14.1603 283.585 13.9175C286.744 12.1374 291.687 11.1664 296.872 11.3282C304.732 11.4901 311.133 14.2412 311.538 17.5587C311.781 19.5816 309.836 21.4427 306.271 22.8183C303.922 23.7083 300.924 24.2747 297.764 24.4366C292.173 24.6793 286.907 23.7083 283.666 21.8473C283.26 21.6045 282.693 21.5236 282.045 21.5236H281.316C280.182 21.5236 279.209 21.9282 279.209 22.4137V32.3663C279.209 33.1755 280.668 33.8228 282.45 33.8228C362.178 35.9266 425.377 64.0043 425.377 98.3126C425.377 99.1217 426.916 99.7691 428.861 99.7691H452.115C454.708 99.7691 456.814 100.659 456.814 101.792V102.116C456.814 102.682 456.166 103.248 454.951 103.653C450.98 104.948 449.036 106.971 450.008 109.074C450.332 109.803 451.061 110.531 452.115 111.178C454.87 112.796 459.083 113.606 463.62 113.525C469.13 113.363 473.91 111.664 475.288 109.398C476.584 107.213 474.639 104.948 470.507 103.653C469.292 103.248 468.563 102.682 468.563 102.035V101.792C468.563 100.659 470.669 99.7691 473.262 99.7691H496.516C498.461 99.7691 500 99.1217 500 98.3126C500 46.5266 403.581 4.36948 282.774 2.18475C280.83 2.18475 279.128 2.83208 279.128 3.64124V13.432Z" fill="url(#paint12_radial)"/>
<path d="M281.478 11.0045H279.128V22.3327H281.478V11.0045Z" fill="url(#paint13_radial)"/>
<path d="M279.128 11.2473C279.128 11.7328 280.1 12.1374 281.235 12.1374H281.883C282.531 12.1374 283.179 11.9755 283.585 11.7328C286.744 9.95263 291.687 8.98164 296.872 9.14347C304.732 9.3053 311.133 12.0564 311.538 15.374C311.781 17.3969 309.836 19.2579 306.271 20.6335C303.922 21.5236 300.924 22.09 297.764 22.2518C292.173 22.4946 286.907 21.5236 283.666 19.6625C283.26 19.4198 282.693 19.3388 282.045 19.3388H281.316C280.182 19.3388 279.209 19.7434 279.209 20.2289V30.1815C279.209 30.9907 280.668 31.638 282.45 31.638C362.178 33.7418 425.377 61.8196 425.377 96.1278C425.377 96.937 426.916 97.5843 428.861 97.5843H452.115C454.708 97.5843 456.814 98.4744 456.814 99.6072V99.9309C456.814 100.497 456.166 101.064 454.951 101.468C450.98 102.763 449.036 104.786 450.008 106.89C450.332 107.618 451.061 108.346 452.115 108.993C454.87 110.612 459.083 111.421 463.62 111.34C469.13 111.178 473.91 109.479 475.288 107.213C476.584 105.029 474.639 102.763 470.507 101.468C469.292 101.064 468.563 100.497 468.563 99.8499V99.6072C468.563 98.4744 470.669 97.5843 473.262 97.5843H496.516C498.461 97.5843 500 96.937 500 96.1278C500 44.3418 403.581 2.18472 282.774 0C280.83 0 279.128 0.647325 279.128 1.45648V11.2473Z" fill="url(#paint14_radial)"/>
<path d="M499.757 136.99L487.603 148.157C487.603 148.157 455.68 173.564 438.098 187.482L437.206 180.118L276.049 225.755L276.941 216.126L263.491 213.375H236.996V269.126C236.996 269.287 236.996 269.368 236.996 269.53C237.401 271.877 241.371 273.9 246.719 274.466C251.904 275.032 257.171 274.223 260.25 272.443C261.141 271.958 262.599 271.634 264.058 271.634H264.706C267.299 271.634 269.405 272.524 269.405 273.657V283.529C269.405 284.338 270.945 284.985 272.889 284.985H272.97C395.074 284.985 494.652 244.123 499.757 192.903V192.822V136.99Z" fill="url(#paint15_radial)"/>
<path d="M269.405 261.762C269.405 260.629 267.299 259.739 264.706 259.739H264.139C262.68 259.739 261.303 260.063 260.331 260.548C257.252 262.248 251.985 263.138 246.8 262.571C241.452 262.005 237.482 259.982 237.077 257.636C237.077 257.474 237.077 257.393 237.077 257.231V259.739C237.077 259.901 237.077 259.982 237.077 260.144C237.482 262.49 241.452 264.513 246.8 265.08C251.985 265.646 257.252 264.837 260.331 263.057C261.222 262.571 262.68 262.248 264.139 262.248H264.787C267.38 262.248 269.486 263.138 269.486 264.271V261.762H269.405Z" fill="#4C6BDE"/>
<path d="M276.373 213.86L277.021 206.82L276.778 206.74L276.13 213.941L276.373 213.86Z" fill="#4C6BDE"/>
<path d="M499.757 181.008C494.652 232.228 395.074 273.09 272.97 273.09H272.889C270.945 273.09 269.405 272.443 269.405 271.634V274.142C269.405 274.951 270.945 275.599 272.889 275.599H272.97C395.074 275.599 494.652 234.736 499.757 183.517V183.436V180.927V181.008C499.757 180.927 499.757 180.927 499.757 181.008Z" fill="#245BAA"/>
<path d="M266.894 207.953V220.333C266.894 220.333 231.891 228.02 231.405 228.02C230.919 228.02 224.194 220.981 223.627 220.172C223.059 219.362 228.974 206.254 229.866 205.607C230.838 204.959 261.708 203.746 261.708 203.746L266.894 207.953Z" fill="url(#paint16_radial)"/>
<path d="M496.273 137.799H475.612V141.279C477.475 142.412 478.367 143.868 478.204 145.325C477.799 148.642 471.317 151.393 463.458 151.555C458.678 151.636 454.221 150.827 450.98 149.289C448.874 148.318 447.577 147.024 447.253 145.648C446.848 144.03 447.82 142.573 449.765 141.279V137.799H428.618C426.754 137.799 425.215 138.366 425.134 139.175C420.272 172.998 354.076 199.781 273.051 199.781C271.107 199.781 269.486 200.428 269.486 201.237V211.109C269.486 212.242 267.38 213.132 264.787 213.132H264.058C262.599 213.132 261.303 212.808 260.412 212.323C257.414 210.624 252.633 209.814 247.529 210.219C245.746 210.381 244.045 210.624 242.586 211.109C238.778 212.242 236.834 214.103 237.077 215.964C237.482 218.311 241.452 220.333 246.8 220.9C251.985 221.466 257.252 220.657 260.331 218.877C261.222 218.391 262.68 218.068 264.139 218.068H264.787C267.38 218.068 269.486 218.958 269.486 220.091V229.962C269.486 230.772 271.026 231.419 272.97 231.419H273.051C395.155 231.419 494.733 190.556 499.838 139.337C499.838 138.447 498.217 137.799 496.273 137.799Z" fill="url(#paint17_radial)"/>
<path d="M246.8 274.466C247.61 274.547 248.42 274.628 249.23 274.628H250.851C254.578 274.547 258.062 273.738 260.331 272.443C261.222 271.958 262.68 271.634 264.139 271.634H264.787C267.38 271.634 269.486 272.524 269.486 273.657V214.669L263.653 213.456H237.158V269.207C237.158 269.368 237.158 269.449 237.158 269.611C237.482 271.877 241.452 273.9 246.8 274.466Z" fill="url(#paint18_radial)"/>
<path d="M496.273 135.615H475.612V139.094C477.475 140.227 478.367 141.683 478.204 143.14C477.799 146.457 471.317 149.209 463.458 149.37C458.678 149.451 454.221 148.642 450.98 147.105C448.874 146.134 447.577 144.839 447.253 143.464C446.848 141.845 447.82 140.389 449.765 139.094V135.615H428.618C426.754 135.615 425.215 136.181 425.134 136.99C420.272 170.813 354.076 197.596 273.051 197.596C271.107 197.596 269.486 198.243 269.486 199.053V208.924C269.486 210.057 267.38 210.947 264.787 210.947H264.058C262.599 210.947 261.303 210.624 260.412 210.138C257.414 208.439 252.633 207.63 247.529 208.034C245.746 208.196 244.045 208.439 242.586 208.924C238.778 210.057 236.834 211.918 237.077 213.779C237.482 216.126 241.452 218.149 246.8 218.715C251.985 219.282 257.252 218.472 260.331 216.692C261.222 216.207 262.68 215.883 264.139 215.883H264.787C267.38 215.883 269.486 216.773 269.486 217.906V227.778C269.486 228.587 271.026 229.234 272.97 229.234H273.051C395.155 229.234 494.733 188.372 499.838 137.152C499.838 136.262 498.217 135.615 496.273 135.615Z" fill="url(#paint19_radial)"/>
<g opacity="0.4">
<path opacity="0.4" d="M425.377 180.037C425.377 180.037 414.033 158.757 400.583 147.509C387.133 136.262 414.276 119.027 414.276 119.027H428.213L434.695 128.818L425.377 180.037Z" fill="url(#paint20_radial)"/>
<path opacity="0.4" d="M425.377 179.795C425.377 179.795 425.377 179.876 425.377 179.795C425.377 180.199 425.782 180.604 426.43 180.847L431.292 181.251H452.115C454.708 181.251 456.814 182.141 456.814 183.274V183.517L469.211 184.569C468.806 184.245 468.563 183.921 468.563 183.598V183.355C468.563 182.222 470.669 181.332 473.262 181.332H496.516C498.461 181.332 500 180.685 500 179.876V129.222V124.044H425.377V179.795Z" fill="url(#paint21_radial)"/>
<path opacity="0.4" d="M475.612 143.14V181.575C475.612 186.672 469.778 190.799 462.648 190.799C455.518 190.799 449.765 186.672 449.765 181.575V143.059L475.612 143.14Z" fill="url(#paint22_radial)"/>
</g>
<path d="M226.057 219.848L149.571 198.405C149.571 198.405 105.169 169.518 103.549 168.709C102.009 167.9 46.0217 132.944 46.0217 132.944V188.695C46.0217 240.481 142.44 282.639 263.247 284.823C265.192 284.823 266.894 284.176 266.894 283.367V273.576V264.594V254.642V225.269L226.057 219.848Z" fill="url(#paint23_radial)"/>
<path d="M263.247 273.171C142.44 270.987 46.0217 228.83 46.0217 177.044V179.471C46.0217 231.257 142.44 273.414 263.247 275.599C265.192 275.599 266.894 274.951 266.894 274.142V271.715C266.894 272.524 265.192 273.171 263.247 273.171Z" fill="url(#paint24_radial)"/>
<g opacity="0.4">
<path opacity="0.4" d="M111.165 261.439C122.934 261.439 132.474 251.911 132.474 240.158C132.474 228.405 122.934 218.877 111.165 218.877C99.3963 218.877 89.8558 228.405 89.8558 240.158C89.8558 251.911 99.3963 261.439 111.165 261.439Z" fill="url(#paint25_radial)"/>
</g>
<path d="M266.894 220.091C266.894 219.605 265.921 219.201 264.787 219.201H264.139C263.491 219.201 262.842 219.362 262.437 219.605C259.277 221.385 254.335 222.356 249.149 222.194C241.29 222.033 234.889 219.281 234.484 215.964C234.241 213.941 236.185 212.08 239.75 210.704C242.1 209.814 245.098 209.248 248.258 209.086C253.849 208.843 259.115 209.814 262.356 211.675C262.761 211.918 263.328 211.999 263.977 211.999H264.706C265.84 211.999 266.813 211.594 266.813 211.109V201.156C266.813 200.347 265.354 199.7 263.572 199.7C183.763 197.677 120.564 169.599 120.564 135.21C120.564 134.401 119.024 133.754 117.08 133.754H93.826C91.2332 133.754 89.1266 132.864 89.1266 131.731V131.407C89.1266 130.841 89.7748 130.274 90.9901 129.87C94.9603 128.575 96.9049 126.552 95.9326 124.448C95.6085 123.72 94.8793 122.992 93.826 122.345C91.0712 120.726 86.8579 119.917 82.3205 119.998C76.8109 120.16 72.0305 121.859 70.6531 124.125C69.3567 126.309 71.3013 128.575 75.4335 129.87C76.6489 130.274 77.3781 130.841 77.3781 131.488V131.731C77.3781 132.864 75.2714 133.754 72.6787 133.754H49.5058C47.5612 133.754 46.0217 134.401 46.0217 135.21C46.0217 186.996 142.44 229.153 263.247 231.338C265.192 231.338 266.894 230.691 266.894 229.881V220.091Z" fill="url(#paint26_radial)"/>
<path d="M266.894 217.825C266.894 217.34 265.921 216.935 264.787 216.935H264.139C263.491 216.935 262.842 217.097 262.437 217.34C259.277 219.12 254.335 220.091 249.149 219.929C241.29 219.767 234.889 217.016 234.484 213.698C234.241 211.675 236.185 209.814 239.75 208.439C242.1 207.549 245.098 206.982 248.258 206.821C253.849 206.578 259.115 207.549 262.356 209.41C262.761 209.653 263.328 209.733 263.977 209.733H264.706C265.84 209.733 266.813 209.329 266.813 208.843V198.891C266.813 198.082 265.354 197.434 263.572 197.434C183.763 195.411 120.564 167.334 120.564 132.944C120.564 132.135 119.024 131.488 117.08 131.488H93.826C91.2332 131.488 89.1266 130.598 89.1266 129.465V129.141C89.1266 128.575 89.7748 128.009 90.9901 127.604C94.9603 126.309 96.9049 124.287 95.9326 122.183C95.6085 121.454 94.8793 120.726 93.826 120.079C91.0712 118.461 86.8579 117.651 82.3205 117.732C76.8109 117.894 72.0305 119.593 70.6531 121.859C69.3567 124.044 71.3013 126.309 75.4335 127.604C76.6489 128.009 77.3781 128.575 77.3781 129.222V129.465C77.3781 130.598 75.2714 131.488 72.6787 131.488H49.5058C47.5612 131.488 46.0217 132.135 46.0217 132.944C46.0217 184.731 142.44 226.888 263.247 229.072C265.192 229.072 266.894 228.425 266.894 227.616V217.825Z" fill="url(#paint27_radial)"/>
<path opacity="0.15" d="M75.3525 356.029C116.968 356.029 150.705 341.719 150.705 324.067C150.705 306.415 116.968 292.106 75.3525 292.106C33.7364 292.106 0 306.415 0 324.067C0 341.719 33.7364 356.029 75.3525 356.029Z" fill="url(#paint28_radial)"/>
<path d="M75.3524 292.106C87.1213 292.106 96.6618 282.578 96.6618 270.825C96.6618 259.072 87.1213 249.544 75.3524 249.544C63.5836 249.544 54.0431 259.072 54.0431 270.825C54.0431 282.578 63.5836 292.106 75.3524 292.106Z" fill="url(#paint29_radial)"/>
<defs>
<radialGradient id="paint0_radial" cx="0" cy="0" r="1" gradientUnits="userSpaceOnUse" gradientTransform="translate(407.551 90.8505) rotate(-22.9736) scale(729.043 523.963)">
<stop stop-color="#F9F9F9" stop-opacity="0"/>
<stop offset="1" stop-color="#E0E0E0"/>
</radialGradient>
<radialGradient id="paint1_radial" cx="0" cy="0" r="1" gradientUnits="userSpaceOnUse" gradientTransform="translate(-66.675 -163.374) scale(407.194 406.649)">
<stop stop-color="#88C4FF"/>
<stop offset="1" stop-color="#3A72C9"/>
</radialGradient>
<radialGradient id="paint2_radial" cx="0" cy="0" r="1" gradientUnits="userSpaceOnUse" gradientTransform="translate(-44.4833 31.8191) scale(139.469 139.282)">
<stop stop-color="#88C4FF"/>
<stop offset="1" stop-color="#528CE2"/>
</radialGradient>
<radialGradient id="paint3_radial" cx="0" cy="0" r="1" gradientUnits="userSpaceOnUse" gradientTransform="translate(237.205 -45.44) scale(118.91 118.75)">
<stop stop-color="#88C4FF"/>
<stop offset="1" stop-color="#528CE2"/>
</radialGradient>
<radialGradient id="paint4_radial" cx="0" cy="0" r="1" gradientUnits="userSpaceOnUse" gradientTransform="translate(269.944 75.6344) scale(131.484 131.308)">
<stop stop-color="#C7E6FF"/>
<stop offset="1" stop-color="#5A9FF4" stop-opacity="0"/>
</radialGradient>
<radialGradient id="paint5_radial" cx="0" cy="0" r="1" gradientUnits="userSpaceOnUse" gradientTransform="translate(65.8635 42.644) scale(724.47 723.501)">
<stop stop-color="#88C4FF"/>
<stop offset="1" stop-color="#5A9FF4"/>
</radialGradient>
<radialGradient id="paint6_radial" cx="0" cy="0" r="1" gradientUnits="userSpaceOnUse" gradientTransform="translate(468.016 145.837) scale(56.8882 56.8118)">
<stop stop-color="#88C4FF"/>
<stop offset="1" stop-color="#5A9FF4"/>
</radialGradient>
<radialGradient id="paint7_radial" cx="0" cy="0" r="1" gradientUnits="userSpaceOnUse" gradientTransform="translate(437.641 146.401) scale(67.7407 67.6499)">
<stop stop-color="#88C4FF"/>
<stop offset="1" stop-color="#5A9FF4"/>
</radialGradient>
<radialGradient id="paint8_radial" cx="0" cy="0" r="1" gradientUnits="userSpaceOnUse" gradientTransform="translate(544.503 -69.3034) scale(331.082 330.639)">
<stop stop-color="#FFC476"/>
<stop offset="1" stop-color="#EF5316"/>
</radialGradient>
<radialGradient id="paint9_radial" cx="0" cy="0" r="1" gradientUnits="userSpaceOnUse" gradientTransform="translate(388.242 17.5893) scale(138.371 129.135)">
<stop stop-color="#FFC476"/>
<stop offset="1" stop-color="#EF5316"/>
</radialGradient>
<radialGradient id="paint10_radial" cx="0" cy="0" r="1" gradientUnits="userSpaceOnUse" gradientTransform="translate(437.962 98.4154) scale(65.9827 61.5781)">
<stop stop-color="#FFC476"/>
<stop offset="1" stop-color="#EF5316"/>
</radialGradient>
<radialGradient id="paint11_radial" cx="0" cy="0" r="1" gradientUnits="userSpaceOnUse" gradientTransform="translate(351.787 66.5441) scale(181.893 77.1105)">
<stop stop-color="#FFC476"/>
<stop offset="1" stop-color="#EF5316"/>
</radialGradient>
<radialGradient id="paint12_radial" cx="0" cy="0" r="1" gradientUnits="userSpaceOnUse" gradientTransform="translate(437.023 109.311) scale(124.365 122.266)">
<stop stop-color="#FFC476"/>
<stop offset="0.3364" stop-color="#FFC173" stop-opacity="0.6636"/>
<stop offset="0.5982" stop-color="#FFB869" stop-opacity="0.4018"/>
<stop offset="0.8342" stop-color="#FFAA59" stop-opacity="0.1658"/>
<stop offset="1" stop-color="#FF9B48" stop-opacity="0"/>
</radialGradient>
<radialGradient id="paint13_radial" cx="0" cy="0" r="1" gradientUnits="userSpaceOnUse" gradientTransform="translate(258.613 5.90598) scale(41.3088 89.1684)">
<stop stop-color="#FFC476"/>
<stop offset="1" stop-color="#FF9B48" stop-opacity="0"/>
</radialGradient>
<radialGradient id="paint14_radial" cx="0" cy="0" r="1" gradientUnits="userSpaceOnUse" gradientTransform="translate(258.637 -26.0855) scale(1173.2 1074.95)">
<stop stop-color="#FFC476"/>
<stop offset="1" stop-color="#EF5316"/>
</radialGradient>
<radialGradient id="paint15_radial" cx="0" cy="0" r="1" gradientUnits="userSpaceOnUse" gradientTransform="translate(-247.598 33.1134) scale(693.067 692.139)">
<stop stop-color="#88C4FF"/>
<stop offset="1" stop-color="#3A72C9"/>
</radialGradient>
<radialGradient id="paint16_radial" cx="0" cy="0" r="1" gradientUnits="userSpaceOnUse" gradientTransform="translate(201.221 154.567) scale(93.6805 93.5551)">
<stop stop-color="#88C4FF"/>
<stop offset="1" stop-color="#5A9FF4"/>
</radialGradient>
<radialGradient id="paint17_radial" cx="0" cy="0" r="1" gradientUnits="userSpaceOnUse" gradientTransform="translate(431.936 207.677) scale(112.723 112.573)">
<stop stop-color="#C7E6FF"/>
<stop offset="1" stop-color="#5A9FF4" stop-opacity="0"/>
</radialGradient>
<radialGradient id="paint18_radial" cx="0" cy="0" r="1" gradientUnits="userSpaceOnUse" gradientTransform="translate(197.731 127.096) scale(106.686 106.543)">
<stop stop-color="#88C4FF"/>
<stop offset="1" stop-color="#528CE2"/>
</radialGradient>
<radialGradient id="paint19_radial" cx="0" cy="0" r="1" gradientUnits="userSpaceOnUse" gradientTransform="translate(65.8635 42.6439) scale(724.47 723.501)">
<stop stop-color="#88C4FF"/>
<stop offset="1" stop-color="#5A9FF4"/>
</radialGradient>
<radialGradient id="paint20_radial" cx="0" cy="0" r="1" gradientUnits="userSpaceOnUse" gradientTransform="translate(408.651 201.739) scale(90.7607 84.7023)">
<stop stop-color="#FFC476"/>
<stop offset="1" stop-color="#EF5316"/>
</radialGradient>
<radialGradient id="paint21_radial" cx="0" cy="0" r="1" gradientUnits="userSpaceOnUse" gradientTransform="translate(442.566 18.633) scale(138.371 129.135)">
<stop stop-color="#FFC476"/>
<stop offset="1" stop-color="#EF5316"/>
</radialGradient>
<radialGradient id="paint22_radial" cx="0" cy="0" r="1" gradientUnits="userSpaceOnUse" gradientTransform="translate(457.783 207.838) scale(79.4999 53.0902)">
<stop stop-color="#FFC476"/>
<stop offset="1" stop-color="#EF5316"/>
</radialGradient>
<radialGradient id="paint23_radial" cx="0" cy="0" r="1" gradientUnits="userSpaceOnUse" gradientTransform="translate(-8.03611 112.046) scale(382.922 382.41)">
<stop stop-color="#88C4FF"/>
<stop offset="1" stop-color="#3A72C9"/>
</radialGradient>
<radialGradient id="paint24_radial" cx="0" cy="0" r="1" gradientUnits="userSpaceOnUse" gradientTransform="translate(-56.2422 58.2839) scale(209.74 209.46)">
<stop stop-color="#88C4FF"/>
<stop offset="1" stop-color="#3A72C9"/>
</radialGradient>
<radialGradient id="paint25_radial" cx="0" cy="0" r="1" gradientUnits="userSpaceOnUse" gradientTransform="translate(93.3707 229.047) scale(136.973 136.79)">
<stop stop-color="#FF9B48"/>
<stop offset="1" stop-color="#EF5316"/>
</radialGradient>
<radialGradient id="paint26_radial" cx="0" cy="0" r="1" gradientUnits="userSpaceOnUse" gradientTransform="translate(72.7151 201.731) scale(181.276 181.033)">
<stop stop-color="#C7E6FF"/>
<stop offset="1" stop-color="#5A9FF4" stop-opacity="0"/>
</radialGradient>
<radialGradient id="paint27_radial" cx="0" cy="0" r="1" gradientUnits="userSpaceOnUse" gradientTransform="translate(65.8635 42.644) scale(724.47 723.501)">
<stop stop-color="#88C4FF"/>
<stop offset="1" stop-color="#5A9FF4"/>
</radialGradient>
<radialGradient id="paint28_radial" cx="0" cy="0" r="1" gradientUnits="userSpaceOnUse" gradientTransform="translate(75.3252 324.052) scale(72.3255 29.4982)">
<stop stop-color="#EF5316"/>
<stop offset="0.461" stop-color="#F76518" stop-opacity="0.539"/>
<stop offset="1" stop-color="#FE751A" stop-opacity="0"/>
</radialGradient>
<radialGradient id="paint29_radial" cx="0" cy="0" r="1" gradientUnits="userSpaceOnUse" gradientTransform="translate(57.5608 259.776) scale(136.973 136.79)">
<stop stop-color="#FF9B48"/>
<stop offset="1" stop-color="#EF5316"/>
</radialGradient>
</defs>
</svg>
