<svg width="535" height="315" viewBox="0 0 535 315" fill="none" xmlns="http://www.w3.org/2000/svg">
<path d="M415.373 212.167L277.97 270.37C272.15 272.832 262.787 272.832 256.967 270.37L119.564 212.167C113.744 209.705 113.744 205.728 119.564 203.267L256.967 145.064C262.787 142.602 272.15 142.602 277.97 145.064L415.373 203.267C421.13 205.728 421.13 209.769 415.373 212.167Z" fill="url(#paint0_linear)"/>
<path d="M415.373 212.167L277.97 270.37C272.15 272.832 262.787 272.832 256.967 270.37L119.564 212.167C113.744 209.705 113.744 205.728 119.564 203.267L256.967 145.064C262.787 142.602 272.15 142.602 277.97 145.064L415.373 203.267C421.13 205.728 421.13 209.769 415.373 212.167Z" fill="url(#paint1_radial)"/>
<path d="M174.538 157.563V142.413H119.311L93.3103 131.366C89.9574 129.977 84.5802 129.977 81.2906 131.366L55.2903 142.413H0V157.563C0 158.51 0.822396 159.394 2.46719 160.088L81.2274 193.419C84.5802 194.808 89.9574 194.808 93.247 193.419L172.07 160.151C173.715 159.457 174.538 158.51 174.538 157.563Z" fill="url(#paint2_radial)"/>
<path d="M83.3784 194.176C85.7823 194.681 88.6923 194.681 91.0962 194.176V180.541H83.3784V194.176Z" fill="url(#paint3_radial)"/>
<path d="M172.071 152.892L93.3104 186.222C89.9576 187.611 84.5804 187.611 81.2908 186.222L2.46733 152.892C1.13885 152.324 0.379712 151.629 0.126668 150.935C-0.316161 152.071 0.442974 153.207 2.46733 154.091L81.2275 187.485C84.5804 188.874 89.9576 188.874 93.2472 187.485L172.071 154.091C174.095 153.207 174.854 152.071 174.411 150.935C174.158 151.692 173.336 152.324 172.071 152.892Z" fill="url(#paint4_radial)"/>
<path d="M172.07 141.782L93.3103 108.451C89.9574 107.062 84.5802 107.062 81.2906 108.451L2.46719 141.782C1.58153 142.16 0.948918 142.602 0.569351 143.044L0 142.413V144.307C0 145.253 0.822396 146.137 2.46719 146.832L81.2274 180.162C84.5802 181.551 89.9574 181.551 93.247 180.162L172.07 146.895C175.36 145.443 175.36 143.17 172.07 141.782Z" fill="white"/>
<path d="M172.071 145.001L93.3104 178.332C89.9575 179.72 84.5803 179.72 81.2907 178.332L2.46727 145.001C-0.885574 143.612 -0.885574 141.34 2.46727 139.888L81.2275 106.557C84.5803 105.168 89.9575 105.168 93.2471 106.557L172.071 139.888C175.36 141.277 175.36 143.549 172.071 145.001Z" fill="url(#paint5_radial)"/>
<path d="M49.2172 143.991C51.0689 143.991 52.5701 143.341 52.5701 142.539C52.5701 141.737 51.0689 141.087 49.2172 141.087C47.3655 141.087 45.8644 141.737 45.8644 142.539C45.8644 143.341 47.3655 143.991 49.2172 143.991Z" fill="#E0E0E0"/>
<path d="M58.7696 139.951C60.6213 139.951 62.1225 139.301 62.1225 138.499C62.1225 137.697 60.6213 137.047 58.7696 137.047C56.9179 137.047 55.4168 137.697 55.4168 138.499C55.4168 139.301 56.9179 139.951 58.7696 139.951Z" fill="#E0E0E0"/>
<path d="M68.2588 135.911C70.1105 135.911 71.6117 135.261 71.6117 134.459C71.6117 133.657 70.1105 133.007 68.2588 133.007C66.4071 133.007 64.906 133.657 64.906 134.459C64.906 135.261 66.4071 135.911 68.2588 135.911Z" fill="#E0E0E0"/>
<path d="M77.748 131.871C79.5997 131.871 81.1008 131.221 81.1008 130.419C81.1008 129.617 79.5997 128.967 77.748 128.967C75.8963 128.967 74.3951 129.617 74.3951 130.419C74.3951 131.221 75.8963 131.871 77.748 131.871Z" fill="#E0E0E0"/>
<path d="M87.2372 127.831C89.0889 127.831 90.59 127.181 90.59 126.379C90.59 125.577 89.0889 124.927 87.2372 124.927C85.3855 124.927 83.8843 125.577 83.8843 126.379C83.8843 127.181 85.3855 127.831 87.2372 127.831Z" fill="#E0E0E0"/>
<path d="M58.7696 147.968C60.6213 147.968 62.1225 147.318 62.1225 146.516C62.1225 145.714 60.6213 145.064 58.7696 145.064C56.9179 145.064 55.4168 145.714 55.4168 146.516C55.4168 147.318 56.9179 147.968 58.7696 147.968Z" fill="#E0E0E0"/>
<path d="M68.2588 143.991C70.1105 143.991 71.6117 143.341 71.6117 142.539C71.6117 141.737 70.1105 141.087 68.2588 141.087C66.4071 141.087 64.906 141.737 64.906 142.539C64.906 143.341 66.4071 143.991 68.2588 143.991Z" fill="#E0E0E0"/>
<path d="M77.748 139.951C79.5997 139.951 81.1008 139.301 81.1008 138.499C81.1008 137.697 79.5997 137.047 77.748 137.047C75.8963 137.047 74.3951 137.697 74.3951 138.499C74.3951 139.301 75.8963 139.951 77.748 139.951Z" fill="#E0E0E0"/>
<path d="M87.2372 135.911C89.0889 135.911 90.59 135.261 90.59 134.459C90.59 133.657 89.0889 133.007 87.2372 133.007C85.3855 133.007 83.8843 133.657 83.8843 134.459C83.8843 135.261 85.3855 135.911 87.2372 135.911Z" fill="#E0E0E0"/>
<path d="M96.7896 131.871C98.6413 131.871 100.142 131.221 100.142 130.419C100.142 129.617 98.6413 128.967 96.7896 128.967C94.9379 128.967 93.4367 129.617 93.4367 130.419C93.4367 131.221 94.9379 131.871 96.7896 131.871Z" fill="#E0E0E0"/>
<path d="M68.2588 152.008C70.1105 152.008 71.6117 151.358 71.6117 150.556C71.6117 149.754 70.1105 149.104 68.2588 149.104C66.4071 149.104 64.906 149.754 64.906 150.556C64.906 151.358 66.4071 152.008 68.2588 152.008Z" fill="#E0E0E0"/>
<path d="M77.748 147.968C79.5997 147.968 81.1008 147.318 81.1008 146.516C81.1008 145.714 79.5997 145.064 77.748 145.064C75.8963 145.064 74.3951 145.714 74.3951 146.516C74.3951 147.318 75.8963 147.968 77.748 147.968Z" fill="#E0E0E0"/>
<path d="M87.2372 143.991C89.0889 143.991 90.59 143.341 90.59 142.539C90.59 141.737 89.0889 141.087 87.2372 141.087C85.3855 141.087 83.8843 141.737 83.8843 142.539C83.8843 143.341 85.3855 143.991 87.2372 143.991Z" fill="#E0E0E0"/>
<path d="M96.7896 139.951C98.6413 139.951 100.142 139.301 100.142 138.499C100.142 137.697 98.6413 137.047 96.7896 137.047C94.9379 137.047 93.4367 137.697 93.4367 138.499C93.4367 139.301 94.9379 139.951 96.7896 139.951Z" fill="#E0E0E0"/>
<path d="M106.279 135.911C108.13 135.911 109.632 135.261 109.632 134.459C109.632 133.657 108.13 133.007 106.279 133.007C104.427 133.007 102.926 133.657 102.926 134.459C102.926 135.261 104.427 135.911 106.279 135.911Z" fill="#E0E0E0"/>
<path d="M77.748 156.048C79.5997 156.048 81.1008 155.398 81.1008 154.596C81.1008 153.794 79.5997 153.144 77.748 153.144C75.8963 153.144 74.3951 153.794 74.3951 154.596C74.3951 155.398 75.8963 156.048 77.748 156.048Z" fill="#E0E0E0"/>
<path d="M87.2372 152.008C89.0889 152.008 90.59 151.358 90.59 150.556C90.59 149.754 89.0889 149.104 87.2372 149.104C85.3855 149.104 83.8843 149.754 83.8843 150.556C83.8843 151.358 85.3855 152.008 87.2372 152.008Z" fill="#E0E0E0"/>
<path d="M96.7896 147.968C98.6413 147.968 100.142 147.318 100.142 146.516C100.142 145.714 98.6413 145.064 96.7896 145.064C94.9379 145.064 93.4367 145.714 93.4367 146.516C93.4367 147.318 94.9379 147.968 96.7896 147.968Z" fill="#E0E0E0"/>
<path d="M106.279 143.991C108.13 143.991 109.632 143.341 109.632 142.539C109.632 141.737 108.13 141.087 106.279 141.087C104.427 141.087 102.926 141.737 102.926 142.539C102.926 143.341 104.427 143.991 106.279 143.991Z" fill="#E0E0E0"/>
<path d="M115.768 139.951C117.62 139.951 119.121 139.301 119.121 138.499C119.121 137.697 117.62 137.047 115.768 137.047C113.916 137.047 112.415 137.697 112.415 138.499C112.415 139.301 113.916 139.951 115.768 139.951Z" fill="#E0E0E0"/>
<path d="M87.2372 160.088C89.0889 160.088 90.59 159.438 90.59 158.636C90.59 157.834 89.0889 157.184 87.2372 157.184C85.3855 157.184 83.8843 157.834 83.8843 158.636C83.8843 159.438 85.3855 160.088 87.2372 160.088Z" fill="#E0E0E0"/>
<path d="M96.7896 156.048C98.6413 156.048 100.142 155.398 100.142 154.596C100.142 153.794 98.6413 153.144 96.7896 153.144C94.9379 153.144 93.4367 153.794 93.4367 154.596C93.4367 155.398 94.9379 156.048 96.7896 156.048Z" fill="#E0E0E0"/>
<path d="M106.279 152.008C108.13 152.008 109.632 151.358 109.632 150.556C109.632 149.754 108.13 149.104 106.279 149.104C104.427 149.104 102.926 149.754 102.926 150.556C102.926 151.358 104.427 152.008 106.279 152.008Z" fill="#E0E0E0"/>
<path d="M115.768 147.968C117.62 147.968 119.121 147.318 119.121 146.516C119.121 145.714 117.62 145.064 115.768 145.064C113.916 145.064 112.415 145.714 112.415 146.516C112.415 147.318 113.916 147.968 115.768 147.968Z" fill="#E0E0E0"/>
<path d="M125.321 143.991C127.172 143.991 128.673 143.341 128.673 142.539C128.673 141.737 127.172 141.087 125.321 141.087C123.469 141.087 121.968 141.737 121.968 142.539C121.968 143.341 123.469 143.991 125.321 143.991Z" fill="#E0E0E0"/>
<path d="M535 157.563V142.413H479.773L453.773 131.366C450.42 129.977 445.043 129.977 441.753 131.366L415.753 142.413H360.526V157.563C360.526 158.51 361.348 159.394 362.993 160.088L441.753 193.419C445.106 194.808 450.483 194.808 453.773 193.419L532.533 160.088C534.178 159.457 535 158.51 535 157.563Z" fill="url(#paint6_radial)"/>
<path d="M443.841 194.176C446.245 194.681 449.155 194.681 451.559 194.176V180.541H443.841V194.176Z" fill="url(#paint7_radial)"/>
<path d="M535 144.307V142.413C535 142.413 534.684 142.665 534.368 142.981C533.925 142.539 533.355 142.16 532.47 141.782L453.71 108.451C450.357 107.062 444.98 107.062 441.69 108.451L362.93 141.782C359.577 143.17 359.577 145.443 362.93 146.895L441.69 180.225C445.043 181.614 450.42 181.614 453.71 180.225L532.47 146.895C534.178 146.2 535 145.253 535 144.307Z" fill="white"/>
<path d="M532.47 145.001L453.71 178.332C450.357 179.72 444.979 179.72 441.69 178.332L362.93 145.001C359.577 143.612 359.577 141.34 362.93 139.888L441.69 106.557C445.043 105.168 450.42 105.168 453.71 106.557L532.47 139.888C535.823 141.277 535.823 143.549 532.47 145.001Z" fill="url(#paint8_radial)"/>
<path d="M532.47 152.892L453.71 186.222C450.357 187.611 444.98 187.611 441.69 186.222L362.93 152.892C361.601 152.324 360.842 151.629 360.589 150.935C360.146 152.071 360.905 153.207 362.93 154.091L441.69 187.485C445.043 188.874 450.42 188.874 453.71 187.485L532.47 154.154C534.494 153.271 535.253 152.134 534.81 150.998C534.557 151.692 533.798 152.324 532.47 152.892Z" fill="url(#paint9_radial)"/>
<path d="M409.68 143.991C411.531 143.991 413.032 143.341 413.032 142.539C413.032 141.737 411.531 141.087 409.68 141.087C407.828 141.087 406.327 141.737 406.327 142.539C406.327 143.341 407.828 143.991 409.68 143.991Z" fill="#E0E0E0"/>
<path d="M419.232 139.951C421.084 139.951 422.585 139.301 422.585 138.499C422.585 137.697 421.084 137.047 419.232 137.047C417.38 137.047 415.879 137.697 415.879 138.499C415.879 139.301 417.38 139.951 419.232 139.951Z" fill="#E0E0E0"/>
<path d="M428.721 135.911C430.573 135.911 432.074 135.261 432.074 134.459C432.074 133.657 430.573 133.007 428.721 133.007C426.87 133.007 425.368 133.657 425.368 134.459C425.368 135.261 426.87 135.911 428.721 135.911Z" fill="#E0E0E0"/>
<path d="M438.21 131.871C440.062 131.871 441.563 131.221 441.563 130.419C441.563 129.617 440.062 128.967 438.21 128.967C436.359 128.967 434.858 129.617 434.858 130.419C434.858 131.221 436.359 131.871 438.21 131.871Z" fill="#E0E0E0"/>
<path d="M447.7 127.831C449.551 127.831 451.052 127.181 451.052 126.379C451.052 125.577 449.551 124.927 447.7 124.927C445.848 124.927 444.347 125.577 444.347 126.379C444.347 127.181 445.848 127.831 447.7 127.831Z" fill="#E0E0E0"/>
<path d="M419.232 147.968C421.084 147.968 422.585 147.318 422.585 146.516C422.585 145.714 421.084 145.064 419.232 145.064C417.38 145.064 415.879 145.714 415.879 146.516C415.879 147.318 417.38 147.968 419.232 147.968Z" fill="#E0E0E0"/>
<path d="M428.721 143.991C430.573 143.991 432.074 143.341 432.074 142.539C432.074 141.737 430.573 141.087 428.721 141.087C426.87 141.087 425.368 141.737 425.368 142.539C425.368 143.341 426.87 143.991 428.721 143.991Z" fill="#E0E0E0"/>
<path d="M438.21 139.951C440.062 139.951 441.563 139.301 441.563 138.499C441.563 137.697 440.062 137.047 438.21 137.047C436.359 137.047 434.858 137.697 434.858 138.499C434.858 139.301 436.359 139.951 438.21 139.951Z" fill="#E0E0E0"/>
<path d="M447.7 135.911C449.551 135.911 451.052 135.261 451.052 134.459C451.052 133.657 449.551 133.007 447.7 133.007C445.848 133.007 444.347 133.657 444.347 134.459C444.347 135.261 445.848 135.911 447.7 135.911Z" fill="#E0E0E0"/>
<path d="M457.252 131.871C459.104 131.871 460.605 131.221 460.605 130.419C460.605 129.617 459.104 128.967 457.252 128.967C455.4 128.967 453.899 129.617 453.899 130.419C453.899 131.221 455.4 131.871 457.252 131.871Z" fill="#E0E0E0"/>
<path d="M428.721 152.008C430.573 152.008 432.074 151.358 432.074 150.556C432.074 149.754 430.573 149.104 428.721 149.104C426.87 149.104 425.368 149.754 425.368 150.556C425.368 151.358 426.87 152.008 428.721 152.008Z" fill="#E0E0E0"/>
<path d="M428.721 150.556L447.7 142.539L438.21 138.499L447.7 134.459L438.21 130.419L428.721 134.459L419.232 138.499L428.721 142.539L419.232 146.516L428.721 150.556Z" stroke="#E0E0E0" stroke-miterlimit="10"/>
<path d="M438.21 147.968C440.062 147.968 441.563 147.318 441.563 146.516C441.563 145.714 440.062 145.064 438.21 145.064C436.359 145.064 434.858 145.714 434.858 146.516C434.858 147.318 436.359 147.968 438.21 147.968Z" fill="#E0E0E0"/>
<path d="M447.7 143.991C449.551 143.991 451.052 143.341 451.052 142.539C451.052 141.737 449.551 141.087 447.7 141.087C445.848 141.087 444.347 141.737 444.347 142.539C444.347 143.341 445.848 143.991 447.7 143.991Z" fill="#E0E0E0"/>
<path d="M457.252 139.951C459.104 139.951 460.605 139.301 460.605 138.499C460.605 137.697 459.104 137.047 457.252 137.047C455.4 137.047 453.899 137.697 453.899 138.499C453.899 139.301 455.4 139.951 457.252 139.951Z" fill="#E0E0E0"/>
<path d="M466.741 135.911C468.593 135.911 470.094 135.261 470.094 134.459C470.094 133.657 468.593 133.007 466.741 133.007C464.889 133.007 463.388 133.657 463.388 134.459C463.388 135.261 464.889 135.911 466.741 135.911Z" fill="#E0E0E0"/>
<path d="M438.21 156.048C440.062 156.048 441.563 155.398 441.563 154.596C441.563 153.794 440.062 153.144 438.21 153.144C436.359 153.144 434.858 153.794 434.858 154.596C434.858 155.398 436.359 156.048 438.21 156.048Z" fill="#E0E0E0"/>
<path d="M447.7 152.008C449.551 152.008 451.052 151.358 451.052 150.556C451.052 149.754 449.551 149.104 447.7 149.104C445.848 149.104 444.347 149.754 444.347 150.556C444.347 151.358 445.848 152.008 447.7 152.008Z" fill="#E0E0E0"/>
<path d="M457.252 147.968C459.104 147.968 460.605 147.318 460.605 146.516C460.605 145.714 459.104 145.064 457.252 145.064C455.4 145.064 453.899 145.714 453.899 146.516C453.899 147.318 455.4 147.968 457.252 147.968Z" fill="#E0E0E0"/>
<path d="M466.741 143.991C468.593 143.991 470.094 143.341 470.094 142.539C470.094 141.737 468.593 141.087 466.741 141.087C464.889 141.087 463.388 141.737 463.388 142.539C463.388 143.341 464.889 143.991 466.741 143.991Z" fill="#E0E0E0"/>
<path d="M476.23 139.951C478.082 139.951 479.583 139.301 479.583 138.499C479.583 137.697 478.082 137.047 476.23 137.047C474.379 137.047 472.878 137.697 472.878 138.499C472.878 139.301 474.379 139.951 476.23 139.951Z" fill="#E0E0E0"/>
<path d="M447.7 160.088C449.551 160.088 451.052 159.438 451.052 158.636C451.052 157.834 449.551 157.184 447.7 157.184C445.848 157.184 444.347 157.834 444.347 158.636C444.347 159.438 445.848 160.088 447.7 160.088Z" fill="#E0E0E0"/>
<path d="M457.252 156.048C459.104 156.048 460.605 155.398 460.605 154.596C460.605 153.794 459.104 153.144 457.252 153.144C455.4 153.144 453.899 153.794 453.899 154.596C453.899 155.398 455.4 156.048 457.252 156.048Z" fill="#E0E0E0"/>
<path d="M466.741 152.008C468.593 152.008 470.094 151.358 470.094 150.556C470.094 149.754 468.593 149.104 466.741 149.104C464.889 149.104 463.388 149.754 463.388 150.556C463.388 151.358 464.889 152.008 466.741 152.008Z" fill="#E0E0E0"/>
<path d="M476.23 147.968C478.082 147.968 479.583 147.318 479.583 146.516C479.583 145.714 478.082 145.064 476.23 145.064C474.379 145.064 472.878 145.714 472.878 146.516C472.878 147.318 474.379 147.968 476.23 147.968Z" fill="#E0E0E0"/>
<path d="M485.72 143.991C487.571 143.991 489.072 143.341 489.072 142.539C489.072 141.737 487.571 141.087 485.72 141.087C483.868 141.087 482.367 141.737 482.367 142.539C482.367 143.341 483.868 143.991 485.72 143.991Z" fill="#E0E0E0"/>
<path d="M436.755 94.5L279.488 161.098C272.846 163.876 262.091 163.876 255.449 161.098L98.2447 94.5C91.6023 91.7224 91.6023 87.1142 98.2447 84.3367L255.512 17.7385C262.154 14.9609 272.909 14.9609 279.551 17.7385L436.755 84.3367C443.335 87.1142 443.335 91.7224 436.755 94.5Z" fill="#F9F9F9"/>
<path d="M413.159 86.988V61.7375H320.987L277.59 43.3677C272.023 41.032 263.04 41.032 257.536 43.3677L214.139 61.7375H121.841V86.988C121.841 88.503 123.233 90.0811 126.016 91.2174L257.473 146.895C263.04 149.23 272.023 149.23 277.527 146.895L408.984 91.2174C411.767 90.0811 413.159 88.503 413.159 86.988Z" fill="url(#paint10_radial)"/>
<path d="M413.159 63.7575V61.6743L412.779 62.3687C412.21 61.2956 410.945 60.3487 409.047 59.5281L277.527 3.85069C271.96 1.51502 262.977 1.51502 257.473 3.85069L125.953 59.5281C124.119 60.2856 122.917 61.2325 122.284 62.2425L121.778 61.7375V63.8838C121.778 65.3988 123.17 66.9138 125.953 68.1132L257.473 123.727C263.04 126.063 272.023 126.063 277.527 123.727L408.984 68.0501C411.767 66.8507 413.159 65.3357 413.159 63.7575Z" fill="white"/>
<path d="M408.984 65.9669L277.527 121.644C271.96 123.98 262.977 123.98 257.473 121.644L126.016 65.9669C120.449 63.6313 120.449 59.7806 126.016 57.4449L257.473 1.76753C263.04 -0.56814 272.023 -0.56814 277.527 1.76753L408.984 57.4449C414.551 59.7806 414.551 63.6313 408.984 65.9669Z" fill="url(#paint11_radial)"/>
<path d="M408.984 74.9309L277.527 130.608C271.96 132.944 262.977 132.944 257.473 130.608L126.016 74.9309C123.612 73.9208 122.221 72.5952 121.904 71.2695C121.525 72.974 122.853 74.8046 126.016 76.1303L257.473 131.744C263.04 134.08 272.023 134.08 277.527 131.744L408.984 76.0671C412.084 74.7415 413.475 72.974 413.096 71.2064C412.779 72.5952 411.451 73.9208 408.984 74.9309Z" fill="url(#paint12_radial)"/>
<path d="M408.984 83.4529L277.527 139.13C271.96 141.466 262.977 141.466 257.473 139.13L126.016 83.4529C123.612 82.4429 122.221 81.1172 121.904 79.7916C121.525 81.496 122.853 83.3267 126.016 84.6523L257.473 140.33C263.04 142.665 272.023 142.665 277.527 140.33L408.984 84.5892C412.084 83.2635 413.475 81.496 413.096 79.7285C412.779 81.1172 411.451 82.4429 408.984 83.4529Z" fill="url(#paint13_radial)"/>
<path d="M386.589 65.2725L275.945 112.112C271.264 114.069 263.736 114.069 259.055 112.112L148.411 65.2725C143.73 63.3156 143.73 60.0962 148.411 58.1392L259.055 11.2996C263.736 9.34265 271.264 9.34265 275.945 11.2996L386.589 58.1392C391.271 60.0962 391.271 63.3156 386.589 65.2725Z" fill="url(#paint14_radial)"/>
<path d="M259.055 47.3447L182.572 79.7285L259.055 112.112C263.736 114.069 271.264 114.069 275.945 112.112L352.428 79.7285L275.945 47.3447C271.264 45.3878 263.736 45.3878 259.055 47.3447Z" fill="url(#paint15_radial)"/>
<path d="M259.055 48.5441C263.736 46.5872 271.264 46.5872 275.945 48.5441L351.036 80.3597L352.428 79.7916L275.945 47.3447C271.264 45.3878 263.736 45.3878 259.055 47.3447L182.572 79.7285L183.964 80.2966L259.055 48.5441Z" fill="#CECECE"/>
<path d="M257.03 191.273L163.657 230.79L257.03 270.307C262.85 272.769 272.213 272.769 278.033 270.307L371.343 230.853L277.97 191.273C272.213 188.874 262.787 188.874 257.03 191.273Z" fill="url(#paint16_radial)"/>
<path d="M277.97 201.751C272.15 199.29 262.787 199.29 256.967 201.751L175.993 236.029L177.891 236.85L256.967 203.33C262.787 200.868 272.15 200.868 277.97 203.33L357.046 236.85L358.944 236.029L277.97 201.751Z" fill="#C6C6C6"/>
<path d="M277.97 213.809C272.15 211.347 262.787 211.347 256.967 213.809L190.227 242.089L192.124 242.91L256.967 215.45C262.787 212.988 272.15 212.988 277.97 215.45L342.813 242.91L344.71 242.089L277.97 213.809Z" fill="#C6C6C6"/>
<path d="M277.97 225.866C272.15 223.404 262.787 223.404 256.967 225.866L204.46 248.149L206.358 248.97L256.967 227.507C262.787 225.045 272.15 225.045 277.97 227.507L328.579 248.97L330.477 248.149L277.97 225.866Z" fill="#C6C6C6"/>
<path d="M277.97 237.923C272.15 235.461 262.787 235.461 256.967 237.923L218.631 254.146L220.529 254.967L256.904 239.564C262.724 237.102 272.087 237.102 277.907 239.564L314.282 254.967L316.18 254.146L277.97 237.923Z" fill="#C6C6C6"/>
<path d="M277.97 249.98C272.15 247.518 262.787 247.518 256.967 249.98L232.865 260.206L234.762 261.027L256.967 251.621C262.787 249.159 272.15 249.159 277.97 251.621L300.175 261.027L302.072 260.206L277.97 249.98Z" fill="#C6C6C6"/>
<path d="M277.97 262.037C272.15 259.575 262.787 259.575 256.967 262.037L247.098 266.203L248.996 267.024L256.967 263.678C262.787 261.216 272.15 261.216 277.97 263.678L285.941 267.024L287.839 266.203L277.97 262.037Z" fill="#C6C6C6"/>
<path d="M348.253 174.86V191.841C348.253 195.123 346.988 198.28 344.647 200.615L312.764 232.431C309.6 235.587 307.829 239.817 307.829 244.299V257.745L312.257 255.851V244.299C312.257 241.016 313.523 237.86 315.863 235.524L347.747 203.708C350.91 200.552 352.681 196.323 352.681 191.841V176.754L348.253 174.86Z" fill="url(#paint17_linear)"/>
<path d="M182.319 176.754V191.841C182.319 196.323 184.09 200.552 187.253 203.708L219.137 235.524C221.478 237.86 222.743 240.953 222.743 244.299V255.914L227.171 257.808V244.299C227.171 239.817 225.4 235.587 222.237 232.431L190.416 200.615C188.076 198.28 186.81 195.186 186.81 191.841V174.86L182.319 176.754Z" fill="url(#paint18_linear)"/>
<path d="M281.829 268.728L286.257 266.898V195.755H281.829V268.728Z" fill="url(#paint19_linear)"/>
<path d="M248.743 266.898L253.171 268.728V195.755H248.743V266.898Z" fill="url(#paint20_linear)"/>
<path d="M419.738 157.247V134.964H373.241L278.033 94.6262C272.213 92.1643 262.85 92.1643 257.03 94.6262L161.822 134.964H115.325V157.247C115.325 158.826 116.78 160.467 119.69 161.666L257.094 219.869C262.914 222.331 272.276 222.331 278.096 219.869L415.5 161.666C418.283 160.467 419.738 158.889 419.738 157.247Z" fill="url(#paint21_radial)"/>
<path d="M419.738 155.985V133.701H373.241L278.033 93.3637C272.213 90.9018 262.85 90.9018 257.03 93.3637L161.822 133.701H115.325V155.985C115.325 157.563 116.78 159.204 119.69 160.404L257.094 218.606C262.914 221.068 272.276 221.068 278.096 218.606L415.5 160.404C418.283 159.204 419.738 157.626 419.738 155.985Z" fill="#FFC476"/>
<path d="M419.738 148.662V126.379H373.241L278.033 86.0411C272.213 83.5792 262.85 83.5792 257.03 86.0411L161.822 126.379H115.325V148.662C115.325 150.24 116.78 151.882 119.69 153.081L257.094 211.284C262.914 213.745 272.276 213.745 278.096 211.284L415.5 153.081C418.283 151.882 419.738 150.24 419.738 148.662Z" fill="#E23B14"/>
<path d="M419.738 147.274V124.99H373.241L278.033 84.6523C272.213 82.1904 262.85 82.1904 257.03 84.6523L161.759 124.99H115.262V147.274C115.262 148.852 116.717 150.493 119.627 151.692L257.03 209.895C262.85 212.357 272.213 212.357 278.033 209.895L415.436 151.692C418.283 150.493 419.738 148.915 419.738 147.274Z" fill="url(#paint22_radial)"/>
<path d="M258.802 219.301C263.989 220.879 271.074 220.879 276.262 219.301V179.342H258.802V219.301Z" fill="url(#paint23_radial)"/>
<path d="M415.374 129.409L277.971 187.611C272.151 190.073 262.788 190.073 256.968 187.611L119.628 129.409C113.808 126.947 113.808 122.97 119.628 120.508L257.031 62.3056C262.851 59.8437 272.214 59.8437 278.034 62.3056L415.374 120.571C421.131 122.97 421.131 126.947 415.374 129.409Z" fill="url(#paint24_radial)"/>
<path d="M403.164 129.093L277.147 182.435C271.833 184.707 263.23 184.707 257.916 182.435L131.836 129.03C126.522 126.758 126.522 123.096 131.836 120.887L257.853 67.5451C263.167 65.2726 271.77 65.2726 277.084 67.5451L403.164 120.95C408.478 123.159 408.478 126.821 403.164 129.093Z" stroke="#FE751A" stroke-miterlimit="10"/>
<path d="M415.373 128.083L277.97 186.286C272.15 188.748 262.787 188.748 256.967 186.286L119.564 128.083C117.097 127.01 115.642 125.684 115.325 124.296C114.882 126.126 116.274 128.02 119.564 129.409L256.967 187.611C262.787 190.073 272.15 190.073 277.97 187.611L415.373 129.409C418.663 128.02 420.054 126.126 419.612 124.296C419.295 125.684 417.84 127.01 415.373 128.083Z" fill="url(#paint25_radial)"/>
<path d="M391.966 128.714L388.74 130.103L277.021 163.434C272.15 165.517 264.685 165.896 259.814 163.876L146.323 130.103L143.097 128.714C138.226 126.631 138.226 123.286 143.097 121.266L258.738 72.2795C263.61 70.1964 271.517 70.1964 276.388 72.2795L392.03 121.266C396.838 123.286 396.838 126.631 391.966 128.714Z" fill="url(#paint26_radial)"/>
<path d="M391.967 121.266L276.325 72.2795C271.454 70.1964 263.546 70.1964 258.675 72.2795L143.034 121.266C140.06 122.528 138.922 124.232 139.554 125.874C139.934 124.801 141.136 123.791 143.034 123.033L258.675 74.0471C263.546 71.9639 271.454 71.9639 276.325 74.0471L391.967 123.033C393.864 123.854 395.003 124.864 395.446 125.874C396.078 124.232 394.877 122.528 391.967 121.266Z" fill="url(#paint27_radial)"/>
<path d="M258.675 82.506L146.26 130.103L258.675 177.7C263.546 179.784 271.454 179.784 276.325 177.7L388.74 130.103L276.325 82.506C271.454 80.4228 263.546 80.4228 258.675 82.506Z" fill="url(#paint28_radial)"/>
<path d="M231.473 127.957L224.134 124.864C223.185 124.485 221.604 124.485 220.655 124.864L213.317 127.957C212.368 128.336 212.368 129.03 213.317 129.409L220.655 132.502C221.604 132.881 223.185 132.881 224.134 132.502L231.473 129.409C232.422 129.03 232.422 128.399 231.473 127.957Z" fill="#FFC476"/>
<path d="M210.407 136.921L203.069 133.828C202.12 133.449 200.538 133.449 199.589 133.828L192.251 136.921C191.302 137.3 191.302 137.994 192.251 138.373L199.589 141.466C200.538 141.845 202.12 141.845 203.069 141.466L210.407 138.373C211.356 137.931 211.356 137.3 210.407 136.921Z" fill="#FFC476"/>
<path d="M324.783 123.223L332.121 126.316C333.07 126.694 334.652 126.694 335.601 126.316L342.939 123.223C343.888 122.844 343.888 122.149 342.939 121.771L335.601 118.677C334.652 118.299 333.07 118.299 332.121 118.677L324.783 121.771C323.834 122.149 323.834 122.781 324.783 123.223Z" fill="#FFC476"/>
<path d="M303.717 132.123L311.055 135.216C312.004 135.595 313.586 135.595 314.535 135.216L321.873 132.123C322.822 131.745 322.822 131.05 321.873 130.671L314.535 127.578C313.586 127.199 312.004 127.199 311.055 127.578L303.717 130.671C302.768 131.05 302.768 131.745 303.717 132.123Z" fill="#FFC476"/>
<path d="M273.289 148.536L265.95 145.443C265.001 145.064 263.42 145.064 262.471 145.443L255.133 148.536C254.184 148.915 254.184 149.609 255.133 149.988L262.471 153.081C263.42 153.46 265.001 153.46 265.95 153.081L273.289 149.988C274.237 149.609 274.237 148.978 273.289 148.536Z" fill="#FFC476"/>
<path d="M276.135 158.952L283.473 162.045C284.422 162.424 286.004 162.424 286.953 162.045L294.291 158.952C295.24 158.573 295.24 157.879 294.291 157.5L286.953 154.407C286.004 154.028 284.422 154.028 283.473 154.407L276.135 157.5C275.186 157.879 275.186 158.573 276.135 158.952Z" fill="#FFC476"/>
<path d="M258.802 101.191L251.463 98.0982C250.514 97.7195 248.933 97.7195 247.984 98.0982L240.646 101.191C239.697 101.57 239.697 102.265 240.646 102.643L247.984 105.736C248.933 106.115 250.514 106.115 251.463 105.736L258.802 102.643C259.814 102.265 259.814 101.633 258.802 101.191Z" fill="#FFC476"/>
<path d="M261.712 111.607L269.05 114.7C269.999 115.079 271.58 115.079 272.529 114.7L279.868 111.607C280.816 111.228 280.816 110.534 279.868 110.155L272.529 107.062C271.58 106.683 269.999 106.683 269.05 107.062L261.712 110.155C260.763 110.534 260.763 111.228 261.712 111.607Z" fill="#FFC476"/>
<path d="M308.272 142.792C308.841 143.044 309.537 143.17 310.296 143.17C311.055 143.17 311.751 143.044 312.321 142.792L359.64 122.717C361.221 123.222 363.372 123.222 364.954 122.717L385.514 131.429L386.336 131.113L365.776 122.402C366.662 121.897 366.915 121.266 366.472 120.697L363.752 119.561C362.36 119.372 360.842 119.435 359.64 119.814L338.701 110.976C337.562 110.471 335.79 110.471 334.652 110.976L301.693 124.927C300.744 125.306 299.099 125.306 298.15 124.927L296.189 124.106C295.05 123.601 293.279 123.601 292.14 124.106L286.447 126.505L286.573 126.821L281.386 124.611L294.165 119.182L297.771 120.697C298.34 120.95 299.036 121.076 299.795 121.076C300.554 121.076 301.25 120.95 301.819 120.697L334.146 106.999L333.323 106.683L301.566 120.129C300.617 120.508 298.972 120.508 298.024 120.129L294.987 118.867L308.272 113.249C309.094 112.87 309.221 112.428 309.221 112.175C309.221 111.923 309.094 111.418 308.272 111.102L305.046 109.713L322.695 102.265L321.873 101.949L304.286 109.272L296.948 106.178L314.598 98.7295L313.776 98.4139L296.126 105.863L288.598 102.706L306.248 95.2575L305.425 94.9419L287.775 102.265L280.247 99.1082L297.897 91.6593L297.075 91.3437L279.425 98.7926L273.858 96.4569C273.415 96.2676 273.288 96.0782 273.288 95.9519C273.288 95.8257 273.415 95.6363 273.858 95.4469L290.306 88.503L289.483 88.1874L273.605 94.8788C272.782 95.2576 272.656 95.6994 272.656 95.9519C272.656 96.2044 272.782 96.7094 273.605 97.0251L307.956 111.607C308.398 111.797 308.525 111.986 308.525 112.112C308.525 112.239 308.398 112.428 307.956 112.617L280.753 124.106L280.88 124.422L275.503 122.149L296.822 113.122C297.644 112.744 297.771 112.302 297.771 112.049C297.771 111.797 297.644 111.292 296.822 110.976L250.072 91.1543C251.274 90.4599 251.274 89.5762 250.072 88.8818L268.607 81.0541C268.101 81.0541 267.532 81.0541 267.026 81.0541L249.249 88.5662C248.047 88.1874 246.529 88.0612 245.137 88.3137L242.417 89.4499C241.974 90.0181 242.164 90.6493 243.113 91.1543L222.743 99.7395C221.92 100.118 221.794 100.56 221.794 100.813C221.794 101.065 221.92 101.57 222.743 101.886L255.702 115.837C256.145 116.026 256.271 116.215 256.271 116.342C256.271 116.468 256.145 116.657 255.702 116.847L253.741 117.667C252.918 118.046 252.792 118.488 252.792 118.741C252.792 118.993 252.918 119.498 253.741 119.814L259.118 122.086L253.93 124.296L254.057 123.98L241.531 118.677L244.568 117.415C245.39 117.036 245.517 116.594 245.517 116.342C245.517 116.089 245.39 115.584 244.568 115.269L212.811 101.823L211.988 102.138L244.315 115.837C244.758 116.026 244.884 116.215 244.884 116.342C244.884 116.468 244.758 116.657 244.315 116.847L240.709 118.362L226.855 112.491C225.716 111.986 223.945 111.986 222.806 112.491L219.01 114.069L201.487 106.683L200.665 106.999L218.314 114.448L210.976 117.541L193.326 110.092L192.504 110.408L210.154 117.857L202.626 121.013L184.976 113.564L184.153 113.88L201.803 121.329L194.275 124.485L176.625 117.036L175.803 117.352L193.453 124.801L188.455 126.884C187.506 127.263 185.861 127.263 184.913 126.884L169.034 120.192L168.212 120.508L184.659 127.452C185.229 127.704 185.925 127.831 186.684 127.831C187.443 127.831 188.139 127.704 188.708 127.452L223.059 112.87C224.008 112.491 225.653 112.491 226.602 112.87L253.488 124.232L248.49 126.316L226.728 117.415C225.589 116.91 223.818 116.91 222.679 117.415L175.36 137.489C173.779 136.984 171.628 136.984 170.046 137.489L149.486 128.778L148.664 129.093L169.224 137.805C168.338 138.31 168.085 138.941 168.528 139.509L171.248 140.645C172.64 140.835 174.158 140.772 175.36 140.393L196.3 149.23C196.869 149.483 197.565 149.609 198.324 149.609C199.02 149.609 199.779 149.483 200.348 149.23L233.307 135.28C234.256 134.901 235.901 134.901 236.85 135.28L238.811 136.1C239.95 136.605 241.721 136.605 242.86 136.1L248.553 133.701L248.427 133.386L253.614 135.595L240.835 141.024L237.23 139.509C236.091 139.004 234.32 139.004 233.181 139.509L200.854 153.207L201.677 153.523L233.434 140.14C234.383 139.762 236.028 139.762 236.976 140.14L240.013 141.403L226.728 147.021C225.906 147.4 225.779 147.842 225.779 148.094C225.779 148.347 225.906 148.852 226.728 149.167L229.954 150.556L212.305 158.005L213.127 158.321L230.777 150.872L238.115 153.965L220.465 161.414L221.288 161.729L238.938 154.281L246.466 157.437L228.816 164.886L229.638 165.201L247.288 157.753L254.816 160.909L237.103 168.547L237.925 168.863L255.575 161.414L261.142 163.75C261.585 163.939 261.712 164.128 261.712 164.255C261.712 164.381 261.585 164.57 261.142 164.76L244.694 171.703L245.517 172.019L261.395 165.328C262.218 164.949 262.344 164.507 262.344 164.255C262.344 164.002 262.218 163.497 261.395 163.181L227.044 148.599C226.602 148.41 226.475 148.22 226.475 148.094C226.475 147.968 226.602 147.779 227.044 147.589L254.247 136.1L254.12 135.785L259.497 138.057L238.178 147.084C237.356 147.463 237.23 147.905 237.23 148.157C237.23 148.41 237.356 148.915 238.178 149.23L284.928 169.052C283.727 169.747 283.727 170.63 284.928 171.325L266.33 179.215C266.836 179.215 267.405 179.215 267.911 179.215L285.688 171.703C286.89 172.082 288.408 172.208 289.8 171.956L292.52 170.82C292.963 170.252 292.773 169.62 291.824 169.115L312.194 160.467C313.016 160.088 313.143 159.646 313.143 159.394C313.143 159.141 313.016 158.636 312.194 158.321L279.235 144.37C278.792 144.18 278.666 143.991 278.666 143.865C278.666 143.739 278.792 143.549 279.235 143.36L281.196 142.539C282.018 142.16 282.145 141.718 282.145 141.466C282.145 141.213 282.018 140.708 281.196 140.393L275.819 138.12L281.006 135.911L280.88 136.226L293.405 141.529L290.369 142.792C289.547 143.17 289.42 143.612 289.42 143.865C289.42 144.117 289.547 144.622 290.369 144.938L322.126 158.384L322.948 158.068L290.622 144.37C290.179 144.18 290.053 143.991 290.053 143.865C290.053 143.739 290.179 143.549 290.622 143.36L294.228 141.845L308.082 147.715C308.651 147.968 309.347 148.094 310.106 148.094C310.802 148.094 311.561 147.968 312.131 147.715L315.926 146.137L333.576 153.586L334.399 153.271L316.749 145.822L324.087 142.728L341.737 150.177L342.559 149.862L324.91 142.413L332.438 139.257L350.088 146.705L350.91 146.39L333.26 138.941L340.788 135.785L358.438 143.233L359.26 142.918L341.611 135.469L346.608 133.386C347.557 133.007 349.202 133.007 350.151 133.386L366.029 140.077L366.852 139.762L350.404 132.818C349.265 132.313 347.494 132.313 346.355 132.818L312.004 147.4C311.055 147.779 309.411 147.779 308.462 147.4L281.576 136.037L286.573 133.954L308.272 142.792ZM292.393 124.674C293.342 124.296 294.987 124.296 295.936 124.674L297.897 125.495C299.036 126 300.807 126 301.946 125.495L334.905 111.544C335.854 111.165 337.499 111.165 338.447 111.544L358.818 120.129C357.616 120.824 357.616 121.707 358.818 122.402L312.068 142.223C311.119 142.602 309.474 142.602 308.525 142.223L287.206 133.196L290.812 131.681C292.836 130.798 292.836 129.409 290.812 128.525L287.016 126.947L292.393 124.674ZM242.607 135.532C241.658 135.911 240.013 135.911 239.064 135.532L237.103 134.711C235.964 134.206 234.193 134.206 233.054 134.711L200.095 148.662C199.146 149.041 197.502 149.041 196.553 148.662L176.182 140.077C177.384 139.383 177.384 138.499 176.182 137.805L222.933 117.983C223.881 117.604 225.526 117.604 226.475 117.983L247.794 127.01L244.188 128.525C242.164 129.409 242.164 130.798 244.188 131.681L247.984 133.26L242.607 135.532ZM254.057 119.309C253.614 119.119 253.488 118.93 253.488 118.804C253.488 118.677 253.614 118.488 254.057 118.299L256.018 117.478C256.841 117.099 256.967 116.657 256.967 116.405C256.967 116.152 256.841 115.647 256.018 115.332L223.059 101.381C222.616 101.191 222.49 101.002 222.49 100.876C222.49 100.75 222.616 100.56 223.059 100.371L243.998 91.5331C245.58 92.0381 247.731 92.0381 249.312 91.5331L296.632 111.607C297.075 111.797 297.201 111.986 297.201 112.112C297.201 112.239 297.075 112.428 296.632 112.617L274.743 121.897L271.138 120.382C269.113 119.498 265.76 119.498 263.736 120.382L259.561 122.149L259.687 121.834L254.057 119.309ZM280.943 140.898C281.386 141.087 281.512 141.277 281.512 141.403C281.512 141.529 281.386 141.718 280.943 141.908L278.982 142.728C278.16 143.107 278.033 143.549 278.033 143.802C278.033 144.054 278.16 144.559 278.982 144.875L311.941 158.826C312.384 159.015 312.51 159.204 312.51 159.331C312.51 159.457 312.384 159.646 311.941 159.836L291.002 168.673C289.42 168.168 287.269 168.168 285.688 168.673L238.368 148.599C237.925 148.41 237.799 148.22 237.799 148.094C237.799 147.968 237.925 147.779 238.368 147.589L260.257 138.31L263.863 139.825C265.887 140.708 269.24 140.708 271.264 139.825L275.439 138.057L275.313 138.373L280.943 140.898Z" fill="#FFC476"/>
<path opacity="0.8" d="M315.104 128.336C313.965 126.631 312.384 125.116 310.423 123.791C308.462 122.528 306.121 121.455 303.464 120.634C301.503 120.003 299.352 119.561 297.138 119.246C296.695 119.182 296.632 118.488 297.075 118.362C298.593 117.92 300.048 117.415 301.313 116.847C303.211 116.026 304.856 115.016 306.184 113.943C307.513 112.807 308.525 111.607 309.221 110.218C309.917 108.893 310.233 107.441 310.233 105.863C310.233 103.148 309.347 100.75 307.639 98.7295C305.931 96.7094 303.464 95.005 300.174 93.7425C296.948 92.4169 292.963 91.4068 288.218 90.7756C287.965 90.7125 287.649 90.7125 287.332 90.6493C286.384 90.5231 285.624 89.7024 285.624 88.7555V79.3497C285.624 78.0241 284.549 76.9509 283.22 76.9509H272.15C270.821 76.9509 269.746 78.0241 269.746 79.3497V88.1874C269.746 89.0712 268.987 89.8287 268.101 89.8287H262.154C261.269 89.8287 260.51 89.0712 260.51 88.1874V79.3497C260.51 78.0241 259.434 76.9509 258.106 76.9509H247.035C245.707 76.9509 244.631 78.0241 244.631 79.3497V88.1874C244.631 89.0712 243.872 89.8287 242.986 89.8287H214.266C212.684 89.8287 211.482 91.0912 211.482 92.6062V96.6463C211.482 98.2245 212.748 99.4239 214.266 99.4239H232.675C234.636 99.4239 236.281 101.002 236.281 103.022V139.888C236.281 141.845 234.699 143.486 232.675 143.486H214.266C212.684 143.486 211.482 144.749 211.482 146.264V150.304C211.482 151.882 212.748 153.081 214.266 153.081H242.923H244.568V163.813C244.568 165.138 245.643 166.211 246.972 166.211H258.043C259.371 166.211 260.446 165.138 260.446 163.813V154.849C260.446 153.902 261.206 153.081 262.218 153.081H267.911C268.86 153.081 269.683 153.839 269.683 154.849V163.813C269.683 165.138 270.758 166.211 272.087 166.211H283.157C284.486 166.211 285.561 165.138 285.561 163.813V154.596C285.561 153.397 286.447 152.387 287.649 152.261C290.179 151.945 292.583 151.566 294.924 151.124C298.15 150.493 301.06 149.609 303.717 148.599C306.374 147.589 308.651 146.39 310.613 145.001C312.51 143.612 314.029 141.971 315.104 140.14C316.18 138.31 316.749 136.29 316.749 134.017C316.812 131.997 316.243 130.103 315.104 128.336ZM287.585 107.504C287.585 108.64 287.269 109.713 286.637 110.787C286.004 111.797 285.055 112.68 283.727 113.501C282.461 114.259 280.817 114.89 278.855 115.332C276.894 115.774 274.301 115.963 271.011 115.963H260.004C259.118 115.963 258.359 115.269 258.359 114.322V101.128C258.359 100.245 259.055 99.487 260.004 99.487H269.809C273.288 99.487 276.072 99.6764 278.16 100.055C280.247 100.434 281.955 100.939 283.347 101.57C284.739 102.265 285.751 103.085 286.447 104.095C287.206 105.105 287.585 106.242 287.585 107.504ZM292.014 138.31C291.128 139.446 289.863 140.393 288.281 141.087C286.7 141.845 284.865 142.35 282.714 142.728C280.563 143.107 277.907 143.297 274.743 143.297H260.32C259.244 143.297 258.422 142.413 258.422 141.403V127.263C258.422 126.189 259.308 125.369 260.32 125.369H271.833C275.945 125.369 279.298 125.558 281.892 126C284.486 126.442 286.573 127.01 288.281 127.831C289.926 128.588 291.191 129.598 292.077 130.734C292.899 131.808 293.342 133.07 293.342 134.459C293.342 135.785 292.899 137.173 292.014 138.31Z" fill="url(#paint29_radial)"/>
<path d="M292.52 58.013C295.367 64.4519 301.693 66.7245 308.462 66.7876C308.715 66.4088 308.968 66.0301 309.158 65.6513C309.853 64.3257 310.17 62.8738 310.17 61.2956C310.17 61.1062 310.17 60.98 310.17 60.7906V45.514L303.717 50.8798C302.642 50.2485 301.503 49.6172 300.174 49.1122C299.036 48.6704 297.834 48.2285 296.569 47.8497C293.785 51.0692 291.002 54.2886 292.52 58.013Z" fill="url(#paint30_radial)"/>
<path d="M316.812 73.3527L311.751 77.2666L311.625 80.0441C311.245 79.7285 310.866 79.476 310.423 79.1604C308.462 77.8978 306.121 76.8247 303.464 76.004C300.807 75.1834 297.897 74.6153 294.734 74.2996C297.201 73.7946 299.415 73.1002 301.313 72.2165C303.211 71.3958 304.856 70.3858 306.184 69.3127C307.133 68.492 307.892 67.6714 308.525 66.7245C301.756 66.6614 295.43 64.3888 292.583 57.9499C291.128 54.2255 293.848 51.0692 296.632 47.8497C295.24 47.471 293.785 47.0922 292.204 46.7766L292.646 46.3347L285.688 41.2215V32.3207H269.809V38.6333H260.573V32.3207H244.694V45.1984H242.923H236.217V38.6333L211.419 34.972V45.1984V51.9529C211.419 53.5311 212.684 54.7936 214.266 54.7936H236.217V92.2906L211.419 88.6293V98.8558V105.61C211.419 107.188 212.684 108.451 214.266 108.451H242.923H244.568V119.056C244.568 120.508 245.707 121.644 247.162 121.644H257.853C259.308 121.644 260.446 120.508 260.446 119.056V108.451H269.683V119.056C269.683 120.508 270.821 121.644 272.276 121.644H282.967C284.422 121.644 285.561 120.508 285.561 119.056V107.946C288.851 107.63 291.951 107.188 294.861 106.62C298.087 105.989 300.997 105.105 303.654 104.095C306.311 103.085 308.588 101.886 310.549 100.497C312.447 99.1083 313.965 97.467 315.041 95.6363C316.116 93.8688 316.622 91.8487 316.686 89.6393V89.5131V89.4499C316.686 89.4499 316.686 89.45 316.686 89.3868V73.3527H316.812ZM258.422 54.8568H269.872C273.352 54.8568 276.135 55.0461 278.223 55.4249C280.311 55.8036 282.019 56.3087 283.41 56.9399C284.802 57.6343 285.814 58.4549 286.51 59.465C287.206 60.475 287.522 61.6113 287.522 62.8738C287.522 63.1263 287.522 63.3788 287.459 63.6944C285.624 62.9369 284.043 62.3057 284.043 62.3057L258.359 64.5151V54.8568H258.422ZM285.624 91.7225V97.4039C284.739 97.6564 283.727 97.9089 282.714 98.0982C280.564 98.477 277.907 98.6664 274.744 98.6664H269.746V92.2906H260.51V98.6664H258.422V80.6754H271.834C275.945 80.6754 279.298 80.8648 281.892 81.3067C284.486 81.7485 286.573 82.3167 288.281 83.1373C289.926 83.8948 291.191 84.9049 292.077 86.0411C292.773 86.988 293.153 87.998 293.279 89.1343L285.624 91.7225Z" fill="url(#paint31_radial)"/>
<path d="M292.014 81.496C291.128 80.3597 289.863 79.3497 288.218 78.5922C286.573 77.8347 284.422 77.2034 281.829 76.7615C279.235 76.3196 275.882 76.1302 271.77 76.1302H258.359V77.1403H271.77C275.882 77.1403 279.235 77.3296 281.829 77.7715C284.422 78.2134 286.51 78.7816 288.218 79.6022C289.863 80.3597 291.128 81.3697 292.014 82.506C292.52 83.2004 292.836 83.8948 293.026 84.6523L293.216 84.5892C293.089 83.4529 292.71 82.4429 292.014 81.496Z" fill="#245BAA"/>
<path d="M258.422 51.3217H269.872C273.352 51.3217 276.135 51.511 278.223 51.8898C280.311 52.2686 282.019 52.7736 283.41 53.4048C284.802 54.0992 285.814 54.9199 286.51 55.9299C287.079 56.8136 287.459 57.7605 287.522 58.8337C287.522 58.6443 287.586 58.5181 287.586 58.3287C287.586 57.0662 287.269 55.9299 286.573 54.9199C285.878 53.9098 284.865 53.0892 283.474 52.3948C282.082 51.7004 280.374 51.1954 278.286 50.8798C276.199 50.501 273.415 50.3116 269.936 50.3116H258.485V51.3217H258.422Z" fill="#245BAA"/>
<path d="M292.14 51.8267C292.393 49.1754 294.481 46.7766 296.569 44.3778C296.316 44.3146 296.126 44.2515 295.873 44.1884C293.722 46.6503 291.887 49.1122 292.14 51.8267Z" fill="#245BAA"/>
<path d="M306.121 64.7675C304.793 65.9038 303.211 66.8507 301.25 67.6714C299.352 68.492 297.138 69.1864 294.671 69.7545C295.556 69.8177 296.379 69.9439 297.264 70.0702C298.719 69.6914 300.048 69.1864 301.25 68.6814C303.148 67.8607 304.793 66.8507 306.121 65.7776C307.07 64.9569 307.829 64.1363 308.462 63.1894C308.209 63.1894 307.956 63.1894 307.703 63.1894C307.26 63.7575 306.754 64.2625 306.121 64.7675Z" fill="#245BAA"/>
<path d="M214.329 51.3217H236.281V50.3116H214.329C212.747 50.3116 211.482 49.0491 211.482 47.4709V48.481C211.419 49.996 212.747 51.3217 214.329 51.3217Z" fill="#245BAA"/>
<path d="M283.031 117.162H272.34C270.885 117.162 269.746 116.026 269.746 114.574V115.584C269.746 117.036 270.885 118.172 272.34 118.172H283.031C284.486 118.172 285.624 117.036 285.624 115.584V114.574C285.624 115.963 284.486 117.162 283.031 117.162Z" fill="#245BAA"/>
<path d="M269.746 103.969H260.51V104.979H269.746V103.969Z" fill="#245BAA"/>
<path d="M316.812 85.1573C316.812 87.3668 316.243 89.3237 315.167 91.1543C314.092 92.985 312.574 94.6263 310.676 96.0151C308.778 97.4038 306.437 98.6032 303.78 99.6133C301.124 100.623 298.15 101.444 294.987 102.138C292.077 102.706 288.914 103.148 285.625 103.464V104.474C288.914 104.158 292.014 103.716 294.987 103.148C298.213 102.517 301.124 101.633 303.78 100.623C306.437 99.6133 308.715 98.4139 310.676 97.0251C312.574 95.6363 314.092 93.995 315.167 92.1644C316.243 90.3968 316.749 88.3768 316.812 86.1674V86.0411V85.978C316.812 85.978 316.812 85.978 316.812 85.9149V85.1573Z" fill="#245BAA"/>
<path d="M257.916 117.162H247.225C245.77 117.162 244.631 116.026 244.631 114.574V115.584C244.631 117.036 245.77 118.172 247.225 118.172H257.916C259.371 118.172 260.51 117.036 260.51 115.584V114.574C260.51 115.963 259.308 117.162 257.916 117.162Z" fill="#245BAA"/>
<path d="M244.568 103.969H242.923H214.266C212.684 103.969 211.419 102.706 211.419 101.128V102.138C211.419 103.716 212.684 104.979 214.266 104.979H242.923H244.568V103.969Z" fill="#245BAA"/>
<path d="M315.547 74.2996L311.751 77.2665L311.625 80.0441C311.245 79.7285 310.866 79.476 310.423 79.1603C309.347 78.4659 308.209 77.8347 306.943 77.3297L289.104 83.5792C290.369 84.2736 291.318 85.0942 292.014 86.0411C292.71 86.988 293.089 87.998 293.216 89.1343L285.561 91.7856V97.4669V107.946C288.851 107.63 291.95 107.188 294.861 106.62C298.087 105.989 300.997 105.105 303.654 104.095C306.311 103.085 308.588 101.886 310.549 100.497C312.447 99.1082 313.965 97.4669 315.041 95.6363C316.116 93.8688 316.622 91.8487 316.686 89.6393V89.513V89.4499C316.686 89.4499 316.686 89.4499 316.686 89.3868V73.8577L315.547 74.2996Z" fill="url(#paint32_radial)"/>
<path d="M292.014 82.3797C292.583 83.1372 292.9 83.8948 293.089 84.7785L293.216 84.7154C293.089 83.5791 292.647 82.5691 292.014 81.6222C291.445 80.8647 290.749 80.2334 289.863 79.6022L289.104 79.8547C290.369 80.6122 291.318 81.4328 292.014 82.3797Z" fill="#245BAA"/>
<path d="M316.812 85.2836C316.812 87.493 316.243 89.4499 315.167 91.2806C314.092 93.1112 312.574 94.7525 310.676 96.1413C308.778 97.5301 306.437 98.7295 303.78 99.7395C301.124 100.75 298.15 101.57 294.987 102.265C292.077 102.833 288.914 103.275 285.625 103.59V104.348C288.914 104.032 292.014 103.59 294.987 103.022C298.213 102.391 301.124 101.507 303.78 100.497C306.437 99.487 308.715 98.2876 310.676 96.8988C312.574 95.51 314.092 93.8687 315.167 92.0381C316.243 90.2705 316.749 88.2505 316.812 86.0411V85.9148V85.8517C316.812 85.8517 316.812 85.8517 316.812 85.7886V85.2836Z" fill="#245BAA"/>
<path d="M258.422 54.8567H269.872C273.352 54.8567 276.135 55.0461 278.223 55.4249C280.121 55.7405 281.765 56.2455 283.094 56.8136H288.977V43.7465L285.624 41.2846V37.1814H269.746V38.6964H260.51V37.1814H256.777V56.7505H258.422V54.8567Z" fill="url(#paint33_radial)"/>
<path d="M258.422 80.6753H271.833C275.945 80.6753 279.298 80.8647 281.892 81.3066C284.486 81.7485 286.573 82.3166 288.281 83.1372C288.408 83.2004 288.471 83.2635 288.598 83.2635H294.038V62.3687H287.585C287.585 62.5581 287.585 62.6843 287.585 62.8737C287.585 63.1262 287.585 63.3787 287.522 63.6944C286.004 63.0631 284.739 62.5581 284.296 62.3687H283.41L258.485 64.515V62.3687H256.081V83.2635H258.485V80.6753H258.422Z" fill="url(#paint34_radial)"/>
<path d="M269.746 92.2906H260.51V108.451H269.746V92.2906Z" fill="url(#paint35_radial)"/>
<path d="M315.104 67.482C313.965 65.7776 312.384 64.2625 310.423 62.9369C308.462 61.6744 306.121 60.6012 303.464 59.7806C301.503 59.1493 299.352 58.7074 297.138 58.3918C296.695 58.3287 296.632 57.6343 297.075 57.508C298.593 57.0661 300.048 56.5611 301.313 55.993C303.211 55.1724 304.856 54.1623 306.184 53.0892C307.513 51.9529 308.525 50.7535 309.221 49.3647C309.917 48.0391 310.233 46.5872 310.233 45.009C310.233 42.2946 309.347 39.8958 307.639 37.8758C305.931 35.8557 303.464 34.1513 300.174 32.8888C296.948 31.5631 292.963 30.5531 288.218 29.9219C287.965 29.8587 287.649 29.8587 287.332 29.7956C286.384 29.6693 285.624 28.8487 285.624 27.9018V18.496C285.624 17.1703 284.549 16.0972 283.22 16.0972H272.15C270.821 16.0972 269.746 17.1703 269.746 18.496V27.3337C269.746 28.2174 268.987 28.975 268.101 28.975H262.154C261.269 28.975 260.51 28.2174 260.51 27.3337V18.496C260.51 17.1703 259.434 16.0972 258.106 16.0972H247.035C245.707 16.0972 244.631 17.1703 244.631 18.496V27.3337C244.631 28.2174 243.872 28.975 242.986 28.975H214.266C212.684 28.975 211.482 30.2375 211.482 31.7525V35.7926C211.482 37.3707 212.748 38.5701 214.266 38.5701H232.675C234.636 38.5701 236.281 40.1483 236.281 42.1683V79.0341C236.281 80.991 234.699 82.6323 232.675 82.6323H214.266C212.684 82.6323 211.482 83.8948 211.482 85.4098V89.4499C211.482 91.0281 212.748 92.2275 214.266 92.2275H242.923H244.568V102.959C244.568 104.285 245.643 105.358 246.972 105.358H258.043C259.371 105.358 260.446 104.285 260.446 102.959V94.0581C260.446 93.1112 261.206 92.2906 262.218 92.2906H267.911C268.86 92.2906 269.683 93.0481 269.683 94.0581V103.022C269.683 104.348 270.758 105.421 272.087 105.421H283.157C284.486 105.421 285.561 104.348 285.561 103.022V93.8056C285.561 92.6062 286.447 91.5962 287.649 91.4699C290.179 91.1543 292.583 90.7756 294.924 90.3337C298.15 89.7024 301.06 88.8187 303.717 87.8086C306.374 86.7986 308.651 85.5992 310.613 84.2104C312.51 82.8217 314.029 81.1804 315.104 79.3497C316.18 77.519 316.749 75.499 316.749 73.2265C316.812 71.1433 316.243 69.2495 315.104 67.482ZM287.585 46.6503C287.585 47.7866 287.269 48.8597 286.637 49.9329C286.004 50.9429 285.055 51.8267 283.727 52.6473C282.461 53.4048 280.817 54.0361 278.855 54.478C276.894 54.9198 274.301 55.1092 271.011 55.1092H260.004C259.118 55.1092 258.359 54.4148 258.359 53.4679V40.2746C258.359 39.3908 259.055 38.6333 260.004 38.6333H269.809C273.288 38.6333 276.072 38.8227 278.16 39.2014C280.247 39.5802 281.955 40.0852 283.347 40.7164C284.739 41.4108 285.751 42.2315 286.447 43.2415C287.206 44.2515 287.585 45.3878 287.585 46.6503ZM292.014 77.4559C291.128 78.5922 289.863 79.5391 288.281 80.2335C286.7 80.991 284.865 81.496 282.714 81.8748C280.563 82.2535 277.907 82.4429 274.743 82.4429H260.32C259.244 82.4429 258.422 81.5591 258.422 80.5491V66.4088C258.422 65.3357 259.308 64.515 260.32 64.515H271.833C275.945 64.515 279.298 64.7044 281.892 65.1463C284.486 65.5882 286.573 66.1563 288.281 66.977C289.926 67.7345 291.191 68.7445 292.077 69.8808C292.899 70.9539 293.342 72.2164 293.342 73.6052C293.342 74.9309 292.899 76.3196 292.014 77.4559Z" fill="url(#paint36_radial)"/>
<path d="M306.121 53.1523C304.793 54.2886 303.211 55.2355 301.25 56.0561C299.922 56.6243 298.53 57.1293 297.012 57.5711C296.569 57.6974 296.569 58.3287 297.075 58.4549C297.581 58.518 298.024 58.5812 298.467 58.7074C299.479 58.3918 300.364 58.013 301.25 57.6343C303.148 56.8136 304.793 55.8036 306.121 54.7305C307.45 53.5942 308.462 52.3948 309.158 51.006C309.854 49.6804 310.17 48.2285 310.17 46.6503C310.17 46.3347 310.17 46.019 310.107 45.7665C310.043 47.0922 309.727 48.2916 309.094 49.491C308.462 50.7535 307.45 52.016 306.121 53.1523Z" fill="url(#paint37_radial)"/>
<path d="M214.266 40.1483H232.675C234.636 40.1483 236.281 41.7264 236.281 43.7465V42.2314C236.281 40.2745 234.699 38.6332 232.675 38.6332H214.266C212.684 38.6332 211.482 37.3707 211.482 35.8557V37.3707C211.419 38.8857 212.684 40.1483 214.266 40.1483Z" fill="url(#paint38_radial)"/>
<path d="M292.014 69.8176C291.128 68.6813 289.863 67.6713 288.218 66.9138C286.573 66.1563 284.422 65.525 281.829 65.0831C279.235 64.6412 275.882 64.4518 271.77 64.4518H260.257C259.181 64.4518 258.359 65.3356 258.359 66.3456V67.8607C258.359 66.7875 259.244 65.9669 260.257 65.9669H271.77C275.882 65.9669 279.235 66.1563 281.829 66.5981C284.422 67.04 286.51 67.6082 288.218 68.4288C289.863 69.1863 291.128 70.1963 292.014 71.3326C292.71 72.2795 293.089 73.2895 293.279 74.4258C293.342 74.1102 293.342 73.7945 293.342 73.542C293.279 72.1532 292.836 70.9538 292.014 69.8176Z" fill="url(#paint39_radial)"/>
<path d="M258.422 40.2745V41.7895C258.422 40.9058 259.118 40.1483 260.067 40.1483H269.872C273.352 40.1483 276.135 40.3376 278.223 40.7164C280.311 41.0952 282.019 41.6002 283.41 42.2314C284.802 42.9258 285.814 43.7465 286.51 44.7565C287.079 45.5771 287.396 46.4609 287.459 47.4078C287.522 47.1553 287.522 46.9028 287.522 46.6503C287.522 45.3877 287.206 44.2515 286.51 43.2415C285.814 42.2314 284.802 41.4108 283.41 40.7164C282.019 40.022 280.311 39.517 278.223 39.2014C276.135 38.8226 273.352 38.6332 269.872 38.6332H260.004C259.118 38.6332 258.422 39.3908 258.422 40.2745Z" fill="url(#paint40_radial)"/>
<path d="M315.167 79.4128C314.092 81.2435 312.574 82.8847 310.676 84.2735C308.778 85.6623 306.437 86.8617 303.78 87.8717C301.124 88.8817 298.15 89.7024 294.987 90.3968C292.71 90.8386 290.243 91.2174 287.712 91.533C286.51 91.6593 285.625 92.6693 285.625 93.8687V95.3837C285.625 94.1843 286.51 93.1743 287.712 93.0481C290.243 92.7324 292.647 92.3537 294.987 91.9118C298.213 91.2805 301.124 90.3968 303.78 89.3867C306.437 88.3767 308.715 87.1773 310.676 85.7885C312.574 84.3998 314.092 82.7585 315.167 80.9278C316.243 79.0972 316.812 77.0771 316.812 74.8046C316.812 74.5521 316.812 74.2996 316.812 74.0471C316.622 76.0671 316.116 77.8346 315.167 79.4128Z" fill="url(#paint41_radial)"/>
<path d="M283.22 105.484H272.15C270.821 105.484 269.746 104.411 269.746 103.085V104.6C269.746 105.926 270.821 106.999 272.15 106.999H283.22C284.549 106.999 285.624 105.926 285.624 104.6V103.085C285.624 104.411 284.549 105.484 283.22 105.484Z" fill="url(#paint42_radial)"/>
<path d="M244.568 92.2906H242.923H214.203C212.621 92.2906 211.419 91.028 211.419 89.513V91.028C211.419 92.6062 212.684 93.8056 214.203 93.8056H242.923H244.568V92.2906Z" fill="url(#paint43_radial)"/>
<path d="M269.746 94.0581C269.746 93.1112 268.987 92.2906 267.974 92.2906H262.281C261.332 92.2906 260.51 93.0481 260.51 94.0581V95.5731C260.51 94.6263 261.269 93.8056 262.281 93.8056H267.974C268.923 93.8056 269.746 94.5631 269.746 95.5731V94.0581Z" fill="url(#paint44_radial)"/>
<path d="M258.043 105.484H246.972C245.643 105.484 244.568 104.411 244.568 103.085V104.6C244.568 105.926 245.643 106.999 246.972 106.999H258.043C259.371 106.999 260.447 105.926 260.447 104.6V103.085C260.51 104.411 259.434 105.484 258.043 105.484Z" fill="url(#paint45_radial)"/>
<path d="M252.855 268.602L143.35 315L78.8868 287.666L188.392 241.332L252.855 268.602Z" fill="url(#paint46_radial)"/>
<path d="M240.709 193.987L132.532 148.157C131.583 147.715 130.761 146.642 130.761 145.632C130.761 144.685 131.52 144.18 132.532 144.622L240.709 190.452C241.658 190.894 242.48 191.967 242.48 192.977C242.48 193.924 241.721 194.366 240.709 193.987Z" fill="#E23B14"/>
<path d="M139.048 147.4L124.751 153.46C111.656 159.015 101.028 174.102 101.028 187.232V224.414C101.028 237.481 90.4003 252.631 77.3053 258.186L43.2075 272.642L143.35 315L177.448 300.544C190.543 294.989 201.171 279.902 201.171 266.772V229.59C201.171 216.523 211.799 201.373 224.894 195.818L239.191 189.757L139.048 147.4Z" fill="url(#paint47_linear)"/>
<path d="M136.075 148.662L236.218 191.083L239.254 189.821L139.048 147.4L136.075 148.662Z" fill="#CECECE"/>
<path d="M162.265 171.072L132.153 158.321C131.71 158.131 131.71 157.816 132.153 157.626C132.596 157.437 133.355 157.437 133.798 157.626L163.91 170.378C164.353 170.567 164.353 170.883 163.91 171.072C163.467 171.262 162.708 171.262 162.265 171.072Z" fill="#E0E0E0"/>
<path d="M140.567 165.833L127.471 160.278C127.029 160.088 127.029 159.773 127.471 159.583C127.914 159.394 128.673 159.394 129.116 159.583L142.211 165.138C142.654 165.328 142.654 165.643 142.211 165.833C141.769 166.022 141.009 166.022 140.567 165.833Z" fill="#E0E0E0"/>
<path d="M154.358 171.64L148.221 169.052C147.778 168.863 147.778 168.547 148.221 168.358C148.664 168.168 149.423 168.168 149.866 168.358L156.002 170.946C156.445 171.135 156.445 171.451 156.002 171.64C155.496 171.83 154.8 171.83 154.358 171.64Z" fill="#E0E0E0"/>
<path d="M205.409 193.293L186.431 185.276C185.988 185.086 185.988 184.771 186.431 184.581C186.874 184.392 187.633 184.392 188.076 184.581L207.054 192.598C207.497 192.788 207.497 193.103 207.054 193.293C206.611 193.482 205.852 193.482 205.409 193.293Z" fill="#E0E0E0"/>
<path d="M179.093 182.119L162.139 174.923C161.696 174.733 161.696 174.418 162.139 174.228C162.582 174.039 163.341 174.039 163.783 174.228L180.738 181.425C181.18 181.614 181.18 181.93 180.738 182.119C180.231 182.309 179.536 182.309 179.093 182.119Z" fill="#E0E0E0"/>
<path d="M182.952 179.784L169.54 174.102C169.097 173.913 169.097 173.597 169.54 173.408C169.983 173.218 170.742 173.218 171.185 173.408L184.596 179.089C185.039 179.279 185.039 179.594 184.596 179.784C184.09 179.973 183.394 179.973 182.952 179.784Z" fill="#E0E0E0"/>
<path d="M210.091 191.336L190.227 182.94C189.784 182.75 189.784 182.435 190.227 182.245C190.669 182.056 191.428 182.056 191.871 182.245L211.735 190.641C212.178 190.831 212.178 191.146 211.735 191.336C211.293 191.525 210.533 191.525 210.091 191.336Z" fill="#E0E0E0"/>
<path d="M123.106 204.277L111.403 199.29C110.96 199.1 110.581 198.595 110.581 198.153C110.581 197.711 110.96 197.522 111.403 197.711L123.106 202.698C123.549 202.888 123.929 203.393 123.929 203.835C123.929 204.277 123.549 204.466 123.106 204.277Z" fill="#E0E0E0"/>
<path d="M189.088 232.178L184.027 230.032C183.584 229.843 183.205 229.338 183.205 228.896C183.205 228.454 183.584 228.265 184.027 228.454L189.088 230.6C189.531 230.79 189.91 231.295 189.91 231.737C189.847 232.178 189.531 232.368 189.088 232.178Z" fill="#E0E0E0"/>
<path d="M189.088 236.913L184.027 234.767C183.584 234.577 183.205 234.072 183.205 233.63C183.205 233.188 183.584 232.999 184.027 233.188L189.088 235.335C189.531 235.524 189.91 236.029 189.91 236.471C189.847 236.913 189.531 237.102 189.088 236.913Z" fill="#E0E0E0"/>
<path d="M117.856 206.739L111.403 204.024C110.96 203.835 110.581 203.33 110.581 202.888C110.581 202.446 110.96 202.257 111.403 202.446L117.856 205.16C118.299 205.35 118.678 205.855 118.678 206.297C118.615 206.739 118.299 206.928 117.856 206.739Z" fill="#E0E0E0"/>
<path d="M142.654 217.281L122.98 208.948C122.537 208.758 122.158 208.253 122.158 207.812C122.158 207.37 122.537 207.18 122.98 207.37L142.654 215.702C143.097 215.892 143.477 216.397 143.477 216.839C143.477 217.217 143.097 217.47 142.654 217.281Z" fill="#E0E0E0"/>
<path d="M136.201 209.832L128.926 206.738C128.484 206.549 128.104 206.044 128.104 205.602C128.104 205.16 128.484 204.971 128.926 205.16L136.201 208.253C136.644 208.443 137.024 208.948 137.024 209.39C137.024 209.768 136.644 210.021 136.201 209.832Z" fill="#E0E0E0"/>
<path d="M159.861 219.869L142.148 212.357C141.705 212.167 141.326 211.662 141.326 211.22C141.326 210.779 141.705 210.589 142.148 210.779L159.861 218.291C160.304 218.48 160.684 218.985 160.684 219.427C160.684 219.806 160.304 220.058 159.861 219.869Z" fill="#E0E0E0"/>
<path d="M123.106 214.061L111.403 209.074C110.96 208.885 110.581 208.38 110.581 207.938C110.581 207.496 110.96 207.307 111.403 207.496L123.106 212.483C123.549 212.672 123.929 213.177 123.929 213.619C123.929 214.061 123.549 214.25 123.106 214.061Z" fill="#E0E0E0"/>
<path d="M189.088 242.026L184.027 239.88C183.584 239.69 183.205 239.185 183.205 238.743C183.205 238.302 183.584 238.112 184.027 238.302L189.088 240.448C189.531 240.637 189.91 241.142 189.91 241.584C189.847 242.026 189.531 242.215 189.088 242.026Z" fill="#E0E0E0"/>
<path d="M189.088 246.76L184.027 244.614C183.584 244.425 183.205 243.92 183.205 243.478C183.205 243.036 183.584 242.847 184.027 243.036L189.088 245.182C189.531 245.372 189.91 245.877 189.91 246.319C189.847 246.697 189.531 246.95 189.088 246.76Z" fill="#E0E0E0"/>
<path d="M117.856 216.586L111.403 213.872C110.96 213.682 110.581 213.177 110.581 212.735C110.581 212.294 110.96 212.104 111.403 212.294L117.856 215.008C118.299 215.197 118.678 215.702 118.678 216.144C118.615 216.523 118.299 216.776 117.856 216.586Z" fill="#E0E0E0"/>
<path d="M142.654 227.065L122.98 218.732C122.537 218.543 122.158 218.038 122.158 217.596C122.158 217.154 122.537 216.965 122.98 217.154L142.654 225.487C143.097 225.676 143.477 226.181 143.477 226.623C143.477 227.065 143.097 227.254 142.654 227.065Z" fill="#E0E0E0"/>
<path d="M136.201 219.616L128.926 216.523C128.484 216.334 128.104 215.829 128.104 215.387C128.104 214.945 128.484 214.755 128.926 214.945L136.201 218.038C136.644 218.227 137.024 218.732 137.024 219.174C137.024 219.616 136.644 219.806 136.201 219.616Z" fill="#E0E0E0"/>
<path d="M159.861 229.653L142.148 222.141C141.705 221.952 141.326 221.447 141.326 221.005C141.326 220.563 141.705 220.374 142.148 220.563L159.861 228.075C160.304 228.265 160.684 228.77 160.684 229.211C160.684 229.653 160.304 229.843 159.861 229.653Z" fill="#E0E0E0"/>
<path d="M123.106 223.972L111.403 218.985C110.96 218.796 110.581 218.291 110.581 217.849C110.581 217.407 110.96 217.217 111.403 217.407L123.106 222.394C123.549 222.583 123.929 223.088 123.929 223.53C123.929 223.972 123.549 224.161 123.106 223.972Z" fill="#E0E0E0"/>
<path d="M189.088 251.874L184.027 249.727C183.584 249.538 183.205 249.033 183.205 248.591C183.205 248.149 183.584 247.96 184.027 248.149L189.088 250.296C189.531 250.485 189.91 250.99 189.91 251.432C189.847 251.874 189.531 252.063 189.088 251.874Z" fill="#E0E0E0"/>
<path d="M189.088 256.608L184.027 254.462C183.584 254.273 183.205 253.768 183.205 253.326C183.205 252.884 183.584 252.694 184.027 252.884L189.088 255.03C189.531 255.219 189.91 255.724 189.91 256.166C189.847 256.608 189.531 256.798 189.088 256.608Z" fill="#E0E0E0"/>
<path d="M117.856 226.434L111.403 223.719C110.96 223.53 110.581 223.025 110.581 222.583C110.581 222.141 110.96 221.952 111.403 222.141L117.856 224.856C118.299 225.045 118.678 225.55 118.678 225.992C118.615 226.434 118.299 226.623 117.856 226.434Z" fill="#E0E0E0"/>
<path d="M142.654 236.913L122.98 228.58C122.537 228.391 122.158 227.886 122.158 227.444C122.158 227.002 122.537 226.813 122.98 227.002L142.654 235.335C143.097 235.524 143.477 236.029 143.477 236.471C143.477 236.913 143.097 237.102 142.654 236.913Z" fill="#E0E0E0"/>
<path d="M136.201 229.527L128.926 226.434C128.484 226.244 128.104 225.739 128.104 225.298C128.104 224.856 128.484 224.666 128.926 224.856L136.201 227.949C136.644 228.138 137.024 228.643 137.024 229.085C137.024 229.464 136.644 229.716 136.201 229.527Z" fill="#E0E0E0"/>
<path d="M159.861 239.564L142.148 232.052C141.705 231.863 141.326 231.358 141.326 230.916C141.326 230.474 141.705 230.285 142.148 230.474L159.861 237.986C160.304 238.175 160.684 238.68 160.684 239.122C160.684 239.501 160.304 239.754 159.861 239.564Z" fill="#E0E0E0"/>
<g opacity="0.4">
<g opacity="0.4">
<path opacity="0.4" d="M107.987 174.165L109.189 174.67" stroke="#CECECE" stroke-miterlimit="10" stroke-linecap="round"/>
<path opacity="0.4" d="M111.53 175.617L199.336 212.862" stroke="#CECECE" stroke-miterlimit="10" stroke-linecap="round" stroke-dasharray="4.02 4.02"/>
<path opacity="0.4" d="M200.475 213.304L201.677 213.809" stroke="#CECECE" stroke-miterlimit="10" stroke-linecap="round"/>
</g>
</g>
<g opacity="0.4">
<g opacity="0.4">
<path opacity="0.4" d="M97.802 242.91L99.0039 243.415" stroke="#CECECE" stroke-miterlimit="10" stroke-linecap="round"/>
<path opacity="0.4" d="M101.345 244.362L189.151 281.606" stroke="#CECECE" stroke-miterlimit="10" stroke-linecap="round" stroke-dasharray="4.02 4.02"/>
<path opacity="0.4" d="M190.29 282.048L191.492 282.553" stroke="#CECECE" stroke-miterlimit="10" stroke-linecap="round"/>
</g>
</g>
<path d="M410.502 145.254L406.959 146.769C406.517 146.958 406.2 146.769 406.2 146.327V142.792C406.2 142.35 406.517 141.908 406.959 141.718L410.502 140.203C410.945 140.014 411.261 140.203 411.261 140.645V144.18C411.261 144.622 410.945 145.064 410.502 145.254Z" fill="#FFC476"/>
<path d="M402.658 148.599L399.115 150.114C398.672 150.304 398.356 150.114 398.356 149.672V146.137C398.356 145.695 398.672 145.253 399.115 145.064L402.658 143.549C403.101 143.36 403.417 143.549 403.417 143.991V147.526C403.417 147.905 403.101 148.41 402.658 148.599Z" fill="#FFC476"/>
<path d="M394.813 151.882L391.271 153.397C390.828 153.586 390.511 153.397 390.511 152.955V149.42C390.511 148.978 390.828 148.536 391.271 148.347L394.813 146.832C395.256 146.642 395.572 146.832 395.572 147.274V150.809C395.572 151.251 395.256 151.756 394.813 151.882Z" fill="#FFC476"/>
<path d="M250.957 258.628C252.18 258.628 253.171 257.639 253.171 256.419C253.171 255.199 252.18 254.209 250.957 254.209C249.734 254.209 248.743 255.199 248.743 256.419C248.743 257.639 249.734 258.628 250.957 258.628Z" fill="#EF5316"/>
<path d="M309.98 245.751C311.203 245.751 312.194 244.761 312.194 243.541C312.194 242.321 311.203 241.332 309.98 241.332C308.757 241.332 307.766 242.321 307.766 243.541C307.766 244.761 308.757 245.751 309.98 245.751Z" fill="#EF5316"/>
<path d="M329.085 221.384C330.308 221.384 331.299 220.395 331.299 219.174C331.299 217.954 330.308 216.965 329.085 216.965C327.862 216.965 326.871 217.954 326.871 219.174C326.871 220.395 327.862 221.384 329.085 221.384Z" fill="#FE751A"/>
<path d="M250.957 233.883C252.18 233.883 253.171 232.894 253.171 231.673C253.171 230.453 252.18 229.464 250.957 229.464C249.734 229.464 248.743 230.453 248.743 231.673C248.743 232.894 249.734 233.883 250.957 233.883Z" fill="#FE751A"/>
<path d="M349.518 199.163C350.741 199.163 351.732 198.174 351.732 196.954C351.732 195.734 350.741 194.745 349.518 194.745C348.295 194.745 347.304 195.734 347.304 196.954C347.304 198.174 348.295 199.163 349.518 199.163Z" fill="#FFC476"/>
<path d="M58.7697 146.516L68.2589 142.539L77.7481 146.516L87.2373 142.539L77.7481 138.499L87.2373 134.459L77.7481 130.419L49.2173 142.539L58.7697 146.516Z" stroke="#E0E0E0" stroke-miterlimit="10"/>
<path d="M96.7897 154.596L106.279 150.556L96.7897 146.516L87.2372 150.556L96.7897 154.596Z" stroke="#E0E0E0" stroke-miterlimit="10"/>
<path d="M476.23 146.516L485.72 142.539L466.741 134.459L457.252 138.499L476.23 146.516Z" stroke="#E0E0E0" stroke-miterlimit="10"/>
<defs>
<linearGradient id="paint0_linear" x1="115.281" y1="207.799" x2="419.705" y2="207.799" gradientUnits="userSpaceOnUse">
<stop stop-color="#CECECE"/>
<stop offset="0.4972" stop-color="#E0E0E0"/>
<stop offset="0.5173" stop-color="#E5E5E5"/>
<stop offset="0.5938" stop-color="#F0F0F0"/>
<stop offset="0.7012" stop-color="#F7F7F7"/>
<stop offset="1" stop-color="#F9F9F9"/>
</linearGradient>
<radialGradient id="paint1_radial" cx="0" cy="0" r="1" gradientUnits="userSpaceOnUse" gradientTransform="translate(269.204 282.289) rotate(-22.9572) scale(331.243 292.982)">
<stop stop-color="#E0E0E0"/>
<stop offset="1" stop-color="#F9F9F9" stop-opacity="0"/>
</radialGradient>
<radialGradient id="paint2_radial" cx="0" cy="0" r="1" gradientUnits="userSpaceOnUse" gradientTransform="translate(-14.3391 143.638) scale(238.404 292.944)">
<stop stop-color="#F9F9F9"/>
<stop offset="1" stop-color="#E0E0E0"/>
</radialGradient>
<radialGradient id="paint3_radial" cx="0" cy="0" r="1" gradientUnits="userSpaceOnUse" gradientTransform="translate(87.8533 177.952) scale(14.2584 14.228)">
<stop stop-color="white"/>
<stop offset="1" stop-color="white" stop-opacity="0"/>
</radialGradient>
<radialGradient id="paint4_radial" cx="0" cy="0" r="1" gradientUnits="userSpaceOnUse" gradientTransform="translate(162.339 170.009) scale(284.398 283.791)">
<stop stop-color="#CECECE"/>
<stop offset="1" stop-color="#F9F9F9" stop-opacity="0"/>
</radialGradient>
<radialGradient id="paint5_radial" cx="0" cy="0" r="1" gradientUnits="userSpaceOnUse" gradientTransform="translate(-30.6635 249.971) rotate(-27.4431) scale(170.365 175.167)">
<stop stop-color="#E0E0E0"/>
<stop offset="1" stop-color="#F9F9F9"/>
</radialGradient>
<radialGradient id="paint6_radial" cx="0" cy="0" r="1" gradientUnits="userSpaceOnUse" gradientTransform="translate(346.109 143.638) scale(238.404 292.944)">
<stop stop-color="#F9F9F9"/>
<stop offset="1" stop-color="#E0E0E0"/>
</radialGradient>
<radialGradient id="paint7_radial" cx="0" cy="0" r="1" gradientUnits="userSpaceOnUse" gradientTransform="translate(448.302 177.952) scale(14.2584 14.228)">
<stop stop-color="white"/>
<stop offset="1" stop-color="white" stop-opacity="0"/>
</radialGradient>
<radialGradient id="paint8_radial" cx="0" cy="0" r="1" gradientUnits="userSpaceOnUse" gradientTransform="translate(329.782 249.961) rotate(-27.4431) scale(170.365 175.167)">
<stop stop-color="#E0E0E0"/>
<stop offset="1" stop-color="#F9F9F9"/>
</radialGradient>
<radialGradient id="paint9_radial" cx="0" cy="0" r="1" gradientUnits="userSpaceOnUse" gradientTransform="translate(529.535 158.366) scale(255.09 254.546)">
<stop stop-color="#CECECE"/>
<stop offset="1" stop-color="#F9F9F9" stop-opacity="0"/>
</radialGradient>
<radialGradient id="paint10_radial" cx="0" cy="0" r="1" gradientUnits="userSpaceOnUse" gradientTransform="translate(260.468 -279.093) scale(397.95 488.99)">
<stop stop-color="#F9F9F9"/>
<stop offset="1" stop-color="#E0E0E0"/>
</radialGradient>
<radialGradient id="paint11_radial" cx="0" cy="0" r="1" gradientUnits="userSpaceOnUse" gradientTransform="translate(70.6357 241.168) rotate(-27.4431) scale(284.378 292.393)">
<stop stop-color="#E0E0E0"/>
<stop offset="1" stop-color="#F9F9F9"/>
</radialGradient>
<radialGradient id="paint12_radial" cx="0" cy="0" r="1" gradientUnits="userSpaceOnUse" gradientTransform="translate(266.934 141.191) scale(882.168 880.286)">
<stop stop-color="#CECECE"/>
<stop offset="1" stop-color="#F9F9F9" stop-opacity="0"/>
</radialGradient>
<radialGradient id="paint13_radial" cx="0" cy="0" r="1" gradientUnits="userSpaceOnUse" gradientTransform="translate(266.934 141.191) scale(882.168 880.286)">
<stop stop-color="#CECECE"/>
<stop offset="1" stop-color="#F9F9F9" stop-opacity="0"/>
</radialGradient>
<radialGradient id="paint14_radial" cx="0" cy="0" r="1" gradientUnits="userSpaceOnUse" gradientTransform="translate(122.277 -10.7329) scale(430.34 429.422)">
<stop stop-color="#CECECE"/>
<stop offset="1" stop-color="#F9F9F9" stop-opacity="0"/>
</radialGradient>
<radialGradient id="paint15_radial" cx="0" cy="0" r="1" gradientUnits="userSpaceOnUse" gradientTransform="translate(186.237 80.5884) scale(403.609 402.748)">
<stop stop-color="#CECECE"/>
<stop offset="1" stop-color="#F9F9F9" stop-opacity="0"/>
</radialGradient>
<radialGradient id="paint16_radial" cx="0" cy="0" r="1" gradientUnits="userSpaceOnUse" gradientTransform="translate(268.758 278.817) scale(565.865 564.658)">
<stop stop-color="#CECECE"/>
<stop offset="1" stop-color="#F9F9F9" stop-opacity="0"/>
</radialGradient>
<linearGradient id="paint17_linear" x1="330.202" y1="172.113" x2="330.202" y2="268.91" gradientUnits="userSpaceOnUse">
<stop stop-color="white"/>
<stop offset="1" stop-color="#F9F9F9" stop-opacity="0"/>
</linearGradient>
<linearGradient id="paint18_linear" x1="204.784" y1="172.113" x2="204.784" y2="268.91" gradientUnits="userSpaceOnUse">
<stop stop-color="white"/>
<stop offset="1" stop-color="#F9F9F9" stop-opacity="0"/>
</linearGradient>
<linearGradient id="paint19_linear" x1="284.036" y1="172.113" x2="284.036" y2="268.91" gradientUnits="userSpaceOnUse">
<stop stop-color="white"/>
<stop offset="1" stop-color="#F9F9F9" stop-opacity="0"/>
</linearGradient>
<linearGradient id="paint20_linear" x1="250.95" y1="172.113" x2="250.95" y2="268.91" gradientUnits="userSpaceOnUse">
<stop stop-color="white"/>
<stop offset="1" stop-color="#F9F9F9" stop-opacity="0"/>
</linearGradient>
<radialGradient id="paint21_radial" cx="0" cy="0" r="1" gradientUnits="userSpaceOnUse" gradientTransform="translate(267.493 157.265) scale(116.93 116.681)">
<stop stop-color="#FFC476"/>
<stop offset="1" stop-color="#EF5316"/>
</radialGradient>
<radialGradient id="paint22_radial" cx="0" cy="0" r="1" gradientUnits="userSpaceOnUse" gradientTransform="translate(68.1393 64.2814) scale(230.917 230.425)">
<stop stop-color="#FFC476"/>
<stop offset="1" stop-color="#EF5316"/>
</radialGradient>
<radialGradient id="paint23_radial" cx="0" cy="0" r="1" gradientUnits="userSpaceOnUse" gradientTransform="translate(267.422 163.319) scale(62.3379 62.2048)">
<stop stop-color="#FFC476"/>
<stop offset="1" stop-color="#FF9B48" stop-opacity="0"/>
</radialGradient>
<radialGradient id="paint24_radial" cx="0" cy="0" r="1" gradientUnits="userSpaceOnUse" gradientTransform="translate(126.421 125.032) rotate(-22.9572) scale(575.521 413.398)">
<stop stop-color="#FFC476"/>
<stop offset="1" stop-color="#EF5316"/>
</radialGradient>
<radialGradient id="paint25_radial" cx="0" cy="0" r="1" gradientUnits="userSpaceOnUse" gradientTransform="translate(154.179 134.409) scale(778.238 776.578)">
<stop stop-color="#FFC476"/>
<stop offset="1" stop-color="#FF9B48" stop-opacity="0"/>
</radialGradient>
<radialGradient id="paint26_radial" cx="0" cy="0" r="1" gradientUnits="userSpaceOnUse" gradientTransform="translate(347.756 227.149) rotate(-22.9572) scale(225.263 161.807)">
<stop stop-color="#FFC476"/>
<stop offset="1" stop-color="#EF5316"/>
</radialGradient>
<radialGradient id="paint27_radial" cx="0" cy="0" r="1" gradientUnits="userSpaceOnUse" gradientTransform="translate(384.255 116.212) scale(900.442 898.521)">
<stop stop-color="#FFC476"/>
<stop offset="1" stop-color="#FF9B48" stop-opacity="0"/>
</radialGradient>
<radialGradient id="paint28_radial" cx="0" cy="0" r="1" gradientUnits="userSpaceOnUse" gradientTransform="translate(23.7387 6.94757) scale(652.153 650.762)">
<stop stop-color="#FFC476"/>
<stop offset="1" stop-color="#EF5316"/>
</radialGradient>
<radialGradient id="paint29_radial" cx="0" cy="0" r="1" gradientUnits="userSpaceOnUse" gradientTransform="translate(109.324 -63.1532) scale(332.798 311)">
<stop stop-color="#FFC476"/>
<stop offset="1" stop-color="#EF5316" stop-opacity="0.7"/>
</radialGradient>
<radialGradient id="paint30_radial" cx="0" cy="0" r="1" gradientUnits="userSpaceOnUse" gradientTransform="translate(225.375 19.9479) scale(83.3932 83.2152)">
<stop stop-color="#88C4FF"/>
<stop offset="1" stop-color="#528CE2"/>
</radialGradient>
<radialGradient id="paint31_radial" cx="0" cy="0" r="1" gradientUnits="userSpaceOnUse" gradientTransform="translate(159.305 -12.3222) scale(120.773 120.516)">
<stop stop-color="#88C4FF"/>
<stop offset="1" stop-color="#3A72C9"/>
</radialGradient>
<radialGradient id="paint32_radial" cx="0" cy="0" r="1" gradientUnits="userSpaceOnUse" gradientTransform="translate(225.375 19.9479) scale(83.3932 83.2152)">
<stop stop-color="#88C4FF"/>
<stop offset="1" stop-color="#3A72C9"/>
</radialGradient>
<radialGradient id="paint33_radial" cx="0" cy="0" r="1" gradientUnits="userSpaceOnUse" gradientTransform="translate(207.609 13.1149) scale(57.8843 57.7608)">
<stop stop-color="#88C4FF"/>
<stop offset="1" stop-color="#3A72C9"/>
</radialGradient>
<radialGradient id="paint34_radial" cx="0" cy="0" r="1" gradientUnits="userSpaceOnUse" gradientTransform="translate(207.61 13.1148) scale(57.8843 57.7608)">
<stop stop-color="#88C4FF"/>
<stop offset="1" stop-color="#3A72C9"/>
</radialGradient>
<radialGradient id="paint35_radial" cx="0" cy="0" r="1" gradientUnits="userSpaceOnUse" gradientTransform="translate(225.375 19.9479) scale(83.3932 83.2152)">
<stop stop-color="#88C4FF"/>
<stop offset="1" stop-color="#3A72C9"/>
</radialGradient>
<radialGradient id="paint36_radial" cx="0" cy="0" r="1" gradientUnits="userSpaceOnUse" gradientTransform="translate(165.134 -47.968) scale(193.413 180.745)">
<stop stop-color="#C7E6FF"/>
<stop offset="1" stop-color="#5A9FF4"/>
</radialGradient>
<radialGradient id="paint37_radial" cx="0" cy="0" r="1" gradientUnits="userSpaceOnUse" gradientTransform="translate(228.837 104.017) scale(135.752 135.463)">
<stop stop-color="#C7E6FF"/>
<stop offset="1" stop-color="#5A9FF4"/>
</radialGradient>
<radialGradient id="paint38_radial" cx="0" cy="0" r="1" gradientUnits="userSpaceOnUse" gradientTransform="translate(228.837 104.017) scale(135.752 135.463)">
<stop stop-color="#C7E6FF"/>
<stop offset="1" stop-color="#5A9FF4"/>
</radialGradient>
<radialGradient id="paint39_radial" cx="0" cy="0" r="1" gradientUnits="userSpaceOnUse" gradientTransform="translate(228.837 104.017) scale(135.752 135.463)">
<stop stop-color="#C7E6FF"/>
<stop offset="1" stop-color="#5A9FF4"/>
</radialGradient>
<radialGradient id="paint40_radial" cx="0" cy="0" r="1" gradientUnits="userSpaceOnUse" gradientTransform="translate(228.837 104.017) scale(135.752 135.463)">
<stop stop-color="#C7E6FF"/>
<stop offset="1" stop-color="#5A9FF4"/>
</radialGradient>
<radialGradient id="paint41_radial" cx="0" cy="0" r="1" gradientUnits="userSpaceOnUse" gradientTransform="translate(228.837 104.017) scale(135.752 135.463)">
<stop stop-color="#C7E6FF"/>
<stop offset="1" stop-color="#5A9FF4"/>
</radialGradient>
<radialGradient id="paint42_radial" cx="0" cy="0" r="1" gradientUnits="userSpaceOnUse" gradientTransform="translate(228.837 104.017) scale(135.752 135.463)">
<stop stop-color="#C7E6FF"/>
<stop offset="1" stop-color="#5A9FF4"/>
</radialGradient>
<radialGradient id="paint43_radial" cx="0" cy="0" r="1" gradientUnits="userSpaceOnUse" gradientTransform="translate(228.837 104.017) scale(135.752 135.463)">
<stop stop-color="#C7E6FF"/>
<stop offset="1" stop-color="#5A9FF4"/>
</radialGradient>
<radialGradient id="paint44_radial" cx="0" cy="0" r="1" gradientUnits="userSpaceOnUse" gradientTransform="translate(228.837 104.017) scale(135.752 135.462)">
<stop stop-color="#C7E6FF"/>
<stop offset="1" stop-color="#5A9FF4"/>
</radialGradient>
<radialGradient id="paint45_radial" cx="0" cy="0" r="1" gradientUnits="userSpaceOnUse" gradientTransform="translate(228.837 104.017) scale(135.752 135.463)">
<stop stop-color="#C7E6FF"/>
<stop offset="1" stop-color="#5A9FF4"/>
</radialGradient>
<radialGradient id="paint46_radial" cx="0" cy="0" r="1" gradientUnits="userSpaceOnUse" gradientTransform="translate(194.341 300.221) scale(55.4703 55.3519)">
<stop stop-color="#E0E0E0"/>
<stop offset="0.3976" stop-color="#E5E5E5" stop-opacity="0.6024"/>
<stop offset="0.8922" stop-color="#F5F5F5" stop-opacity="0.1078"/>
<stop offset="1" stop-color="#F9F9F9" stop-opacity="0"/>
</radialGradient>
<linearGradient id="paint47_linear" x1="110.596" y1="298.809" x2="172.823" y2="160.868" gradientUnits="userSpaceOnUse">
<stop stop-color="white"/>
<stop offset="0.0251397" stop-color="white"/>
<stop offset="0.5056" stop-color="#F9F9F9"/>
<stop offset="0.7072" stop-color="#F9F9F9"/>
<stop offset="0.7767" stop-color="#FDFDFD"/>
<stop offset="1" stop-color="white"/>
</linearGradient>
</defs>
</svg>
